<svg width="634" height="469" viewBox="0 0 634 469" fill="none" xmlns="http://www.w3.org/2000/svg">
<path d="M240.919 89.0249L235.945 90.5662L232.604 82.7599L225.056 84.1077L221.61 78.6782L218.887 80.4395L223.496 87.7011L230.65 86.4236L234.125 94.5447L241.611 92.2253L240.919 89.0249Z" fill="#50BFA5"/>
<path d="M559.927 369.801L554.953 371.342L551.612 363.536L544.064 364.884L540.617 359.454L537.895 361.215L542.504 368.477L549.658 367.2L553.133 375.321L560.618 373.001L559.927 369.801Z" fill="#50BFA5"/>
<path d="M210.269 462.224C210.269 462.224 183.724 371.395 181.595 351.36C179.465 331.324 194.308 337.533 194.308 337.533C194.308 337.533 181.822 299.356 190.851 290.294C199.88 281.233 208.025 298.123 208.025 298.123C208.025 298.123 210.759 251.779 220.386 251.761C238.317 251.729 237.963 302.305 237.963 302.305C237.963 302.305 242.54 282.504 252.141 287.933C266.621 296.119 245.857 335.799 245.857 335.799C245.857 335.799 264.307 335.813 270.788 345.204C282.415 362.055 210.269 462.224 210.269 462.224Z" fill="#50BFA5"/>
<path d="M218.947 450.201C218.947 450.201 142.424 437.283 125.779 423.594C109.134 409.906 125.609 403.734 125.609 403.734C125.609 403.734 87.1666 383.839 87.6119 370.312C88.057 356.784 107.154 363.661 107.154 363.661C107.154 363.661 74.7634 326.375 82.4317 319.293C96.715 306.103 134.161 344.864 134.161 344.864C134.161 344.864 123.042 326.431 134.752 323.513C152.412 319.114 165.445 364.567 165.445 364.567C165.445 364.567 162.133 346.617 174.31 349.008C196.158 353.299 218.947 450.201 218.947 450.201Z" fill="#50BFA5"/>
<path d="M174.31 349.009C162.103 346.78 165.445 364.567 165.445 364.567C165.445 364.567 152.411 319.115 134.752 323.514C123.042 326.431 134.161 344.865 134.161 344.865C134.161 344.865 96.715 306.104 82.4317 319.294L218.689 450.224C216.264 437.718 194.775 352.744 174.31 349.009Z" fill="#3C8F7C"/>
<path d="M240.718 460.858C240.718 460.858 200.419 419.484 180.124 415.175C159.829 410.867 163.48 425.444 163.48 425.444C163.48 425.444 123.215 389.896 113.884 398.509C104.553 407.122 114.647 415.437 114.647 415.437C114.647 415.437 81.1077 409.438 76.3065 420.549C68.9288 437.622 124.088 446.914 124.088 446.914C124.088 446.914 100.974 448.531 106.334 459.237C114.418 475.381 240.718 460.858 240.718 460.858Z" fill="#355389"/>
<path d="M76.3065 420.549C81.1077 409.438 114.647 415.437 114.647 415.437C114.647 415.437 104.553 407.122 113.884 398.509C123.215 389.896 162.228 420.609 162.228 420.609C162.228 420.609 153.029 402.859 173.324 407.168C193.618 411.477 240.718 460.858 240.718 460.858L76.3065 420.549Z" fill="#466EB6"/>
<path d="M304.876 34.1507C291.312 36.4041 287.283 54.3776 298.56 62.4167C300.585 63.8605 301.987 66.0323 302.584 68.4621L304.637 76.8226C305.202 79.1266 307.426 80.6055 309.746 80.2196L314.885 79.3662C317.206 78.9807 318.843 76.8605 318.648 74.4949C317.935 65.8632 317.053 62.7327 319.832 58.8828C327.962 47.6214 318.445 31.8968 304.876 34.1507Z" fill="#F7CC7F"/>
<path d="M306.261 70.6911C305.377 63.2958 304.138 55.4888 303.716 53.2744C295.94 53.7072 298.895 45.4334 302.484 48.7979C303.506 49.7566 303.989 51.0571 304.308 52.4816C306.891 52.2469 309.415 51.5024 311.716 50.3026C311.592 48.479 311.414 47.0972 311.919 45.93C312.68 44.1673 314.893 43.6872 315.793 45.4051C316.131 46.05 316.19 46.8751 315.946 47.5583C315.425 49.0168 313.854 49.9798 312.487 50.7343C312.896 56.6134 313.463 62.5377 314.176 68.372L313.442 68.4638C312.74 62.7237 312.18 56.8964 311.773 51.1112C309.488 52.2576 307.002 52.976 304.458 53.2178C304.99 56.0488 306.166 63.6591 306.995 70.6019L306.261 70.6911ZM300.023 51.5304C300.714 52.282 301.872 52.6127 303.561 52.5342C303.269 51.2778 302.837 50.1474 301.98 49.3449C300.05 47.5339 298.865 50.2693 300.023 51.5304ZM312.597 46.2284C312.173 47.2093 312.334 48.4658 312.431 49.9103C313.542 49.2719 314.833 48.474 315.25 47.3043C315.543 46.4846 315.213 45.3256 314.386 45.1117C314.297 45.0891 312.894 45.5402 312.597 46.2284Z" fill="#FAE0B2"/>
<path d="M302.524 68.256C302.542 68.3255 302.567 68.3925 302.584 68.4627L304.637 76.8232C305.202 79.1272 307.426 80.6061 309.746 80.2206L314.885 79.3668C317.206 78.9814 318.843 76.8611 318.647 74.4955C318.33 70.6556 317.981 67.9059 317.934 65.6958L302.524 68.256Z" fill="#96D9C9"/>
<path d="M294.821 27.9076L290.765 20.4327C290.373 19.709 290.636 18.8016 291.352 18.405C292.069 18.0091 292.968 18.2738 293.361 18.9972L297.417 26.4724C297.809 27.1961 297.547 28.1036 296.83 28.5002C296.109 28.8986 295.212 28.6273 294.821 27.9076Z" fill="#FAE0B2"/>
<path d="M285.955 45.9886L277.113 45.2079C276.299 45.1359 275.697 44.4118 275.768 43.5896C275.839 42.7681 276.557 42.1598 277.371 42.2322L286.213 43.0128C287.026 43.0845 287.629 43.8092 287.558 44.6307C287.486 45.4523 286.77 46.0599 285.955 45.9886Z" fill="#FAE0B2"/>
<path d="M277.188 73.3544C276.613 72.7676 276.619 71.8221 277.2 71.2421C279.374 69.0739 281.764 67.1056 284.305 65.3916C284.984 64.9331 285.903 65.1179 286.357 65.8036C286.811 66.4897 286.628 67.4169 285.949 67.8755C283.564 69.4841 281.32 71.3313 279.28 73.3666C278.702 73.9441 277.765 73.9441 277.188 73.3544Z" fill="#FAE0B2"/>
<path d="M316.668 27.5037C315.878 27.2905 315.409 26.4719 315.62 25.6751C316.622 21.8908 317.236 17.9885 317.444 14.0774C317.488 13.2537 318.184 12.6203 319.001 12.6662C319.817 12.7106 320.443 13.4139 320.398 14.2379C320.18 18.3551 319.533 22.4629 318.479 26.4461C318.267 27.2479 317.451 27.7162 316.668 27.5037Z" fill="#FAE0B2"/>
<path d="M325.773 38.9783C325.538 38.1883 325.98 37.3553 326.763 37.1171L335.954 34.3205C336.738 34.0826 337.562 34.5297 337.798 35.3197C338.034 36.1096 337.591 36.9426 336.809 37.1808L327.616 39.9778C326.836 40.2143 326.01 39.7697 325.773 38.9783Z" fill="#FAE0B2"/>
<path d="M340.873 63.6708C340.741 63.6708 340.606 63.6529 340.472 63.6146C337.287 62.711 334.19 61.4575 331.267 59.8897C330.546 59.5024 330.271 58.5981 330.655 57.8698C331.038 57.1414 331.934 56.8649 332.655 57.2518C335.392 58.7196 338.291 59.8929 341.273 60.7388C342.059 60.962 342.518 61.7867 342.297 62.581C342.113 63.2402 341.519 63.6708 340.873 63.6708Z" fill="#FAE0B2"/>
<path d="M475.512 129.697L470.874 118.626L459.211 116.206C457.883 115.931 457.444 114.237 458.469 113.34L467.466 105.467L466.141 93.5214C465.99 92.1608 467.45 91.216 468.612 91.9229L478.809 98.1273L489.653 93.1639C490.888 92.5986 492.229 93.7085 491.923 95.0423L489.229 106.751L497.256 115.629C498.17 116.64 497.539 118.27 496.188 118.388L484.325 119.42L478.442 129.87C477.772 131.059 476.04 130.957 475.512 129.697Z" fill="#F7CC7F"/>
<path d="M549.337 91.7102L547.431 99.4606L534.739 97.7416L530.567 108.726L520.861 109.008L521.002 113.968L533.984 113.592L537.938 103.182L551.141 104.97L554.009 93.3074L549.337 91.7102Z" fill="#F48C7F"/>
<path d="M436.263 463.24H213.166C204.645 463.24 197.737 456.007 197.737 447.084V437.478C197.737 428.556 204.645 421.322 213.166 421.322H436.263C426.057 433.003 425.881 450.853 435.853 462.752L436.263 463.24Z" fill="#B75742"/>
<path d="M432.818 426.125H309.077C300.555 426.125 293.647 433.358 293.647 442.281C293.647 451.204 300.555 458.437 309.077 458.437H432.828C427.046 448.526 427.058 436.01 432.818 426.125Z" fill="#FAE0B2"/>
<path d="M357.885 392.21C358.209 391.596 357.716 390.885 356.966 390.885H238.917C229.665 390.885 222.164 397.7 222.164 406.107C222.164 414.513 229.665 421.328 238.917 421.328H356.998C357.752 421.328 358.247 420.612 357.919 419.996C353.245 411.198 353.256 400.969 357.885 392.21Z" fill="#86B1F2"/>
<path d="M357.141 393.718H298.636C287.776 393.718 278.973 399.429 278.973 406.474C278.973 413.518 287.777 419.229 298.636 419.229H357.526C353.499 411.112 353.389 401.87 357.141 393.718Z" fill="#F7CC7F"/>
<path d="M342.031 399.764H334.411C332.773 399.764 331.445 400.32 331.445 401.005V401.117H342.031V399.764Z" fill="#B75742"/>
<path d="M348.531 402.876C348.531 401.157 346.541 399.764 344.086 399.764H334.308C336.169 399.764 337.679 400.821 337.679 402.124L337.633 435.473L343.036 431.185L348.542 435.473L348.531 402.876Z" fill="#F47458"/>
<path d="M336.182 389.787H267.495C261.404 389.787 256.466 383.871 256.466 376.573C256.466 369.275 261.404 363.358 267.495 363.358H336.182C330.931 370.684 330.726 381.43 335.691 389.036L336.182 389.787Z" fill="#FAE0B2"/>
<path d="M256.473 376.573C256.473 369.275 261.527 363.358 267.762 363.358H337.491C337.816 363.358 338.079 363.048 338.076 362.667C338.073 362.292 337.812 361.989 337.491 361.989H226.876C219.995 361.989 214.417 368.518 214.417 376.573C214.417 384.627 219.995 391.156 226.876 391.156H337.491C337.811 391.156 338.073 390.853 338.076 390.478C338.078 390.097 337.816 389.787 337.491 389.787H267.762C261.527 389.787 256.473 383.871 256.473 376.573Z" fill="#466EB6"/>
<path d="M324.188 369.853H316.569C314.93 369.853 313.602 370.397 313.602 371.069V371.178H324.188V369.853Z" fill="#184655"/>
<path d="M330.688 372.904C330.688 371.219 328.698 369.853 326.243 369.853H316.465C318.327 369.853 319.836 370.889 319.836 372.167L319.79 404.872L325.193 400.666L330.699 404.872L330.688 372.904Z" fill="#3C8F7C"/>
<path d="M445.621 167.834L455.761 165.14L448.888 257.68L436.722 258.089L442.859 171.196C442.972 169.595 444.082 168.243 445.621 167.834Z" fill="#184655"/>
<path d="M449.797 260.319C449.57 260.34 449.337 260.337 449.102 260.309C447.088 260.068 445.597 258.046 445.772 255.792L452.521 168.778C452.696 166.523 454.469 164.89 456.485 165.131C458.499 165.371 459.99 167.393 459.814 169.648L453.066 256.662C452.911 258.653 451.509 260.159 449.797 260.319Z" fill="#F7CC7F"/>
<path d="M356.473 264.953C356.478 265.017 356.48 265.081 356.486 265.145C356.804 268.685 359.521 271.333 362.555 271.059L448.19 263.321C451.223 263.047 453.425 259.955 453.107 256.415C453.094 256.265 453.074 256.118 453.053 255.972L356.473 264.953Z" fill="#F7CC7F"/>
<path d="M416.105 358.418C410.497 361.557 393.357 356.053 393.357 355.556C393.111 360.285 374.164 406.571 374.164 406.571L374.179 420.813C374.179 420.813 413.22 422.691 412.658 419.209C412.097 415.726 409.997 417.991 402.21 411.413C401.518 410.829 390.583 408.267 393.543 401.732C399.501 388.573 412.159 366.633 416.105 358.418Z" fill="#F7A491"/>
<path d="M372.896 421.321L415.631 421.333C417.173 421.175 417.534 419.909 416.989 419.139C415.867 417.552 407.678 413.813 402.172 411.333C392.582 412.464 375.725 408.741 374.182 406.534C370.124 412.022 372.035 421.142 372.896 421.321Z" fill="#3C8F7C"/>
<path d="M363.521 325.186C362.943 323.435 400.315 307.425 401.988 309.254C404.947 312.49 381.768 373.23 381.768 373.23L408.399 381.444C408.399 381.444 436.085 311.27 434.929 298.435C433.773 285.601 419.904 271.015 389.853 280.35C359.801 289.684 363.521 325.186 363.521 325.186Z" fill="#355389"/>
<path d="M440.899 366.402C434.591 365.242 426.414 364.912 419.868 364.798C420.639 370.682 424.385 400.853 423.7 402.706C420.926 410.217 414.772 413.731 414.772 413.731C414.772 413.731 443.791 440.164 445.543 437.111C447.296 434.057 444.25 434.466 442.355 424.395C442.187 423.501 437.991 409.443 437.731 401.861C437.235 387.4 440.683 374.432 440.899 366.402Z" fill="#F7A491"/>
<path d="M431.589 267.699C427.54 265.519 417.031 265.442 405.474 266.199C382.944 267.673 360.705 272.149 339.273 279.316L324.93 284.112L324.978 269.267C324.978 269.267 279.353 261.561 277.766 272.977C275.375 290.167 278.341 325.067 293.543 332.856C340.76 357.052 406.928 294.31 407.167 302.519C407.488 313.543 416.695 354.566 419.048 372.528C425.594 372.643 436.841 372.638 441.718 371.507C442.668 336.322 443.113 273.906 431.589 267.699Z" fill="#466EB6"/>
<path d="M413.888 414.349L446.51 440.656C447.802 441.52 448.876 440.772 448.938 439.827C449.065 437.882 445.078 429.75 442.377 424.31C434.249 419.048 423.531 405.328 423.723 402.634C420.283 405.565 413.335 413.66 413.888 414.349Z" fill="#3C8F7C"/>
<path d="M340.051 124.216C338.955 114.103 337.801 103.954 329.498 96.5416C322.778 90.5435 314.234 89.5275 305.786 92.7365C281.849 101.829 294.183 123.29 263.661 144.928C254.176 151.652 243.723 156.254 236.583 165.307C226.588 177.98 230.362 193.223 239.47 203.4C283.055 252.096 331.714 186.331 335.207 170.545C337.806 158.801 340.756 130.725 340.051 124.216Z" fill="#13375B"/>
<path d="M331.2 181.081C327.64 174.455 323.973 169.197 323.973 169.197C320.28 162.57 310.739 159.218 310.739 159.218C310.739 159.218 307.548 159.283 303.884 159.465C303.657 160.079 303.426 160.517 303.193 160.694C301.815 161.736 293.924 160.39 288.826 163.884C271.74 178.67 276.465 250.339 277.809 272.976L329.846 273.473C329.846 273.473 323.285 224.767 333.858 212.253C341.22 203.539 336.482 190.91 331.2 181.081Z" fill="#50BFA5"/>
<path d="M307.745 134.972C307.745 134.972 304.884 155.595 302.887 160.606C300.889 165.618 313.871 176.336 324.674 179.589C335.477 182.842 321.373 168.519 321.82 163.161C322.268 157.804 324.231 132.439 324.231 132.439L307.745 134.972Z" fill="#F7A491"/>
<path d="M323.685 139.713C324.001 135.517 324.231 132.439 324.231 132.439L307.745 134.972C307.745 134.972 307.329 137.395 306.869 140.821C313.553 144.735 319.563 143.5 323.685 139.713Z" fill="#F47458"/>
<path d="M312.914 97.3027C312.914 97.3027 306.416 98.7809 302.404 104.962C298.392 111.144 295.638 129.342 308.854 137.836C322.069 146.331 332.346 134.315 332.517 122.595C332.687 110.876 330.2 95.2358 312.914 97.3027Z" fill="#F7A491"/>
<path d="M335.541 118.928C334.414 121.756 332.177 123.511 330.545 122.848C328.914 122.185 328.505 119.355 329.632 116.527C330.76 113.699 332.996 111.944 334.628 112.607C336.26 113.27 336.669 116.1 335.541 118.928Z" fill="#F7A491"/>
<path d="M314.864 96.9193C314.864 96.9193 306.58 115.678 299.301 117.354C292.023 119.029 292.129 128.468 292.129 128.468C292.129 128.468 292.291 106.671 299.113 101.671C305.933 96.6706 314.864 96.9193 314.864 96.9193Z" fill="#13375B"/>
<path d="M302.193 121.253C303.151 124.299 302.275 127.299 300.235 127.953C298.195 128.607 295.765 126.667 294.806 123.621C293.848 120.574 294.725 117.575 296.765 116.92C298.805 116.267 301.235 118.207 302.193 121.253Z" fill="#F7A491"/>
<path d="M395.271 256.685C392.148 255.545 387.5 255.404 387.578 254.988C387.892 253.303 401.685 258.705 399.821 256.248C398.784 254.88 388.462 250.032 385.952 250.833C383.517 251.609 367.531 256.139 367.531 256.139L323.843 245.802C323.843 245.802 312.815 220.503 311.739 198.769C302.623 200.014 296.418 202.288 288.495 206.727C292.315 227.512 301.603 261.204 311.867 267.526C316.185 270.186 367.748 264.343 367.748 264.343C367.748 264.343 379.111 263.532 380.968 262.811C382.377 262.264 386.002 260.203 387.974 259.639C392.457 258.358 400.445 261.575 400.47 260.689C400.487 260.043 398.461 257.849 395.271 256.685Z" fill="#F7A491"/>
<path d="M312.006 175.547C311.586 168.859 309.077 162.402 302.028 160.322C297.659 159.034 292.758 160.267 289.267 163.145C285.114 166.57 283.955 172.063 283.973 177.263C284.017 189.068 284.814 201.309 286.951 212.933C294.874 208.493 304.122 205.826 313.237 204.581C313.233 204.512 312.562 184.386 312.006 175.547Z" fill="#96D9C9"/>
<path d="M176.644 188.166L108.912 175.434C107.552 175.178 106.654 173.857 106.908 172.484L115.393 126.485C115.646 125.111 116.954 124.205 118.314 124.461L186.046 137.194C187.407 137.45 188.304 138.77 188.051 140.144L179.566 186.143C179.313 187.516 178.004 188.422 176.644 188.166Z" fill="#F7CC7F"/>
<path d="M144.403 135.58L123.785 131.704C122.425 131.449 121.528 130.128 121.781 128.755L123.072 121.755C123.326 120.382 124.634 119.476 125.994 119.732L146.611 123.608C147.971 123.863 148.869 125.184 148.615 126.557L147.324 133.557C147.071 134.93 145.763 135.835 144.403 135.58Z" fill="#F7CC7F"/>
<path d="M179.728 186.407C179.377 187.666 178.132 188.446 176.859 188.207L108.684 175.391C107.416 175.152 106.535 173.981 106.647 172.684L110.215 131.451C110.276 130.74 110.632 130.089 111.195 129.657C111.758 129.226 112.475 129.054 113.169 129.185L188.905 143.422C189.597 143.552 190.203 143.97 190.575 144.574C190.946 145.177 191.049 145.911 190.857 146.595L179.728 186.407Z" fill="#FAE0B2"/>
<path d="M490.392 35.7439L478.793 38.9407L476.295 24.7513L480.091 24.0706L481.85 34.0644L489.376 31.99L490.392 35.7439Z" fill="#50BFA5"/>
<path d="M120.879 230.613C123.783 230.374 128.243 231.666 130.242 233.034C130.542 233.318 132.842 234.242 135.232 238.24L134.694 238.616C132.172 235.951 130.476 235.354 128.455 234.742C125.125 233.878 121.769 234.524 121.494 234.674L120.879 230.613Z" fill="#355389"/>
<path d="M134.963 238.429C134.963 238.429 117.266 241.41 118.916 255.367C120.566 269.324 139.236 280.182 155.899 271.549C178.316 259.937 169.462 230.415 153.507 228.132C137.553 225.849 134.963 238.429 134.963 238.429Z" fill="#F47458"/>
<path d="M142.471 232.283C142.471 232.283 147.088 227.498 157.204 231.851C167.321 236.204 168.053 256.506 159.03 255.327C150.008 254.147 135.257 235.212 142.471 232.283Z" fill="#F48C7F"/>
<path d="M264.216 46.8637L191.43 73.0758C189.083 73.9206 186.503 72.6856 185.666 70.3171L172.232 32.2962C171.395 29.9278 172.618 27.3228 174.964 26.478L247.751 0.265896C250.097 -0.578893 252.677 0.656043 253.514 3.02489L266.949 41.0454C267.786 43.4136 266.562 46.0185 264.216 46.8637Z" fill="#86B1F2"/>
<path d="M215.972 37.0904C218.648 44.6652 214.736 52.9963 207.233 55.6984C199.729 58.4004 191.477 54.4502 188.8 46.8754C186.124 39.3006 190.036 30.9695 197.54 28.2674C205.043 25.5654 213.295 29.5156 215.972 37.0904Z" fill="white"/>
<path d="M204.453 35.0527C205.242 37.2865 204.089 39.7431 201.876 40.5399C199.663 41.3366 197.23 40.1719 196.441 37.9382C195.651 35.7044 196.805 33.2477 199.018 32.451C201.23 31.6542 203.663 32.8193 204.453 35.0527Z" fill="#86B1F2"/>
<path d="M211.384 47.0268L198.581 51.6373L198.068 50.1867C197.133 47.5402 198.5 44.6293 201.122 43.6856L204.431 42.4937C207.053 41.5496 209.936 42.9297 210.871 45.5762L211.384 47.0268Z" fill="#86B1F2"/>
<path d="M217.766 29.1419C216.99 29.1419 216.294 28.6464 216.033 27.9087C215.692 26.9443 216.192 25.8795 217.148 25.5356L248.966 14.0772C249.165 14.0055 249.373 13.969 249.584 13.969C250.36 13.969 251.056 14.4648 251.317 15.2025C251.657 16.1669 251.158 17.2317 250.202 17.5756L218.384 29.034C218.184 29.1057 217.976 29.1419 217.766 29.1419Z" fill="white"/>
<path d="M226.355 37.1498C225.579 37.1498 224.883 36.6543 224.622 35.9163C224.281 34.9518 224.781 33.8874 225.737 33.5431L250.587 24.594C250.787 24.522 250.995 24.4858 251.205 24.4858C251.981 24.4858 252.677 24.9813 252.938 25.7193C253.103 26.1865 253.078 26.6906 252.868 27.1388C252.657 27.587 252.286 27.9255 251.823 28.0925L226.973 37.042C226.773 37.1132 226.565 37.1498 226.355 37.1498Z" fill="white"/>
<path d="M377.31 333.649H201.558C196.101 333.649 191.676 338.116 191.676 343.625V352.017C191.676 357.526 196.101 361.993 201.558 361.993H377.31L377.218 361.896C369.699 353.996 369.74 341.499 377.31 333.649Z" fill="#F47458"/>
<path d="M374.198 337.845H280.245C274.787 337.845 270.363 342.311 270.363 347.821C270.363 353.331 274.787 357.797 280.245 357.797H374.197C370.743 351.62 370.747 344.017 374.198 337.845Z" fill="#FAE0B2"/>
<path d="M521.152 334.466L507.83 300.723C507.16 299.026 507.979 297.101 509.661 296.424L557.6 277.134C559.281 276.458 561.188 277.285 561.858 278.983L575.18 312.725C575.851 314.423 575.03 316.347 573.349 317.024L525.41 336.314C523.729 336.991 521.822 336.163 521.152 334.466Z" fill="#FAE0B2"/>
<path d="M566.375 314.954L554.404 284.633C554.211 284.146 554.446 283.594 554.928 283.4C555.411 283.206 555.958 283.443 556.15 283.93L568.121 314.252C568.314 314.739 568.078 315.291 567.596 315.485C567.114 315.679 566.567 315.442 566.375 314.954Z" fill="#466EB6"/>
<path d="M560.671 310.961L550.842 286.066C550.65 285.579 550.885 285.027 551.368 284.833C551.85 284.639 552.397 284.877 552.589 285.363L562.418 310.258C562.61 310.745 562.375 311.297 561.893 311.491C561.41 311.685 560.864 311.448 560.671 310.961Z" fill="#466EB6"/>
<path d="M559.252 317.821L547.281 287.499C547.089 287.013 547.324 286.46 547.806 286.266C548.289 286.072 548.836 286.31 549.028 286.796L560.999 317.118C561.191 317.605 560.957 318.157 560.474 318.351C559.992 318.546 559.445 318.308 559.252 317.821Z" fill="#466EB6"/>
<path d="M552.96 312.335L543.72 288.932C543.528 288.445 543.763 287.893 544.245 287.699C544.727 287.505 545.274 287.743 545.467 288.229L554.706 311.631C554.899 312.119 554.664 312.671 554.181 312.865C553.699 313.059 553.152 312.822 552.96 312.335Z" fill="#466EB6"/>
<path d="M566.053 281.4L565.812 280.79C565.723 280.565 565.481 280.451 565.272 280.535L560.722 282.366C560.513 282.45 560.415 282.701 560.504 282.926L560.745 283.536C560.834 283.761 561.076 283.875 561.285 283.791L565.834 281.96C566.044 281.876 566.141 281.625 566.053 281.4Z" fill="#355389"/>
<path d="M567.084 284.012L566.843 283.402C566.754 283.177 566.512 283.063 566.303 283.147L561.753 284.978C561.544 285.062 561.446 285.313 561.535 285.538L561.776 286.148C561.865 286.373 562.106 286.487 562.316 286.402L566.866 284.572C567.075 284.487 567.173 284.237 567.084 284.012Z" fill="#355389"/>
<path d="M568.115 286.623L567.874 286.013C567.786 285.788 567.544 285.674 567.334 285.758L562.784 287.589C562.574 287.673 562.477 287.924 562.566 288.149L562.807 288.759C562.896 288.984 563.137 289.098 563.347 289.013L567.896 287.183C568.106 287.098 568.204 286.848 568.115 286.623Z" fill="#355389"/>
<path d="M569.146 289.235L568.905 288.625C568.816 288.4 568.575 288.286 568.365 288.37L563.816 290.201C563.606 290.285 563.509 290.536 563.597 290.76L563.838 291.371C563.927 291.596 564.169 291.71 564.378 291.625L568.928 289.795C569.137 289.71 569.235 289.46 569.146 289.235Z" fill="#355389"/>
<path d="M570.177 291.847L569.936 291.236C569.847 291.011 569.605 290.898 569.396 290.982L564.846 292.812C564.637 292.896 564.539 293.148 564.628 293.372L564.869 293.983C564.958 294.207 565.2 294.321 565.409 294.237L569.959 292.406C570.168 292.322 570.266 292.072 570.177 291.847Z" fill="#355389"/>
<path d="M571.208 294.458L570.967 293.848C570.878 293.623 570.637 293.509 570.428 293.593L565.878 295.424C565.668 295.508 565.571 295.759 565.659 295.984L565.901 296.594C565.989 296.819 566.231 296.932 566.441 296.848L570.99 295.018C571.199 294.934 571.297 294.683 571.208 294.458Z" fill="#355389"/>
<path d="M572.24 297.07L571.998 296.459C571.91 296.234 571.668 296.121 571.459 296.205L566.909 298.035C566.7 298.12 566.602 298.37 566.691 298.595L566.932 299.206C567.02 299.43 567.262 299.544 567.471 299.46L572.021 297.629C572.23 297.545 572.328 297.295 572.24 297.07Z" fill="#355389"/>
<path d="M573.27 299.681L573.029 299.071C572.941 298.846 572.699 298.732 572.49 298.817L567.94 300.647C567.73 300.731 567.633 300.982 567.721 301.207L567.962 301.817C568.051 302.042 568.293 302.156 568.502 302.072L573.052 300.241C573.261 300.156 573.359 299.906 573.27 299.681Z" fill="#355389"/>
<path d="M574.301 302.293L574.06 301.683C573.971 301.458 573.73 301.344 573.52 301.428L568.971 303.259C568.761 303.343 568.664 303.594 568.753 303.819L568.994 304.429C569.083 304.654 569.324 304.768 569.533 304.684L574.083 302.853C574.293 302.768 574.39 302.518 574.301 302.293Z" fill="#355389"/>
<path d="M575.333 304.904L575.092 304.294C575.003 304.069 574.761 303.955 574.552 304.039L570.003 305.87C569.793 305.954 569.695 306.205 569.784 306.43L570.025 307.04C570.114 307.265 570.356 307.379 570.565 307.295L575.115 305.464C575.324 305.38 575.422 305.129 575.333 304.904Z" fill="#355389"/>
<path d="M576.364 307.516L576.122 306.905C576.034 306.681 575.792 306.567 575.583 306.651L571.033 308.482C570.823 308.566 570.726 308.817 570.815 309.041L571.055 309.652C571.145 309.877 571.386 309.991 571.595 309.907L576.145 308.076C576.355 307.991 576.453 307.741 576.364 307.516Z" fill="#355389"/>
<path d="M577.395 310.128L577.154 309.517C577.065 309.293 576.823 309.179 576.614 309.263L572.064 311.094C571.855 311.178 571.757 311.428 571.846 311.653L572.087 312.264C572.175 312.489 572.417 312.602 572.627 312.518L577.177 310.688C577.386 310.603 577.484 310.353 577.395 310.128Z" fill="#355389"/>
<path d="M589.965 307.44L570.938 334.791C570.896 334.852 570.863 334.919 570.84 334.991L568.901 341C568.675 341.7 569.476 342.277 570.058 341.834L575.15 337.959C575.213 337.912 575.267 337.855 575.312 337.791L594.387 310.369C594.631 310.018 594.536 309.533 594.179 309.302L590.977 307.238C590.64 307.021 590.195 307.11 589.965 307.44Z" fill="#B75742"/>
<path d="M575.291 337.82L575.244 337.888L570.33 341.626L568.99 340.722L570.828 335.025C572.269 335.82 573.993 336.636 575.291 337.82Z" fill="#F7CC7F"/>
<path d="M397.212 11.3445C399.951 13.551 404.715 20.6519 410.793 25.6368C414.349 28.5527 417.088 27.8107 421.627 28.365C443.162 30.9928 437.326 35.4368 439.909 35.8731C439.176 37.577 432.466 51.975 431.213 54.8848C430.056 57.5693 428.057 58.7706 425.16 58.3661C420.707 57.7445 416.213 57.2823 411.829 56.3225C400.59 53.862 394.336 48.187 386.281 41.2951C384.144 39.4665 383.618 37.1858 384.726 34.6016C389.882 22.5743 396.652 12.4515 397.212 11.3445Z" fill="#466EB6"/>
<path d="M442.242 53.1928C442.145 57.9308 442.504 58.8813 440.489 58.1626C439.276 57.7299 438.101 57.1663 436.955 56.5694C436.147 56.1481 436.115 55.5924 436.772 54.9268C437.728 53.9577 438.71 53.0137 439.666 52.0728C438.966 50.2149 439.767 48.0524 441.489 47.0353C441.841 46.8275 441.584 47.2681 444.583 40.3002C434.666 39.0649 427.668 38.2359 415.569 36.7341C412.334 36.3325 409.457 35.0631 406.955 32.9497C398.312 25.6501 389.671 18.3497 381.035 11.0422C379.864 10.0508 379.715 8.59842 380.645 7.48063C381.356 6.62545 382.3 6.58462 383.313 6.71288C386.075 7.06255 413.149 10.4582 415.897 10.7824C419.51 11.2087 422.69 12.582 425.483 14.9429C433.973 22.1204 442.485 29.2718 450.986 36.4364C452.152 37.4194 452.468 38.3215 452.058 39.415C451.608 40.6162 450.625 41.1891 449.139 40.8652C448.066 40.6316 447.592 40.9584 447.223 41.9608C445.556 46.4925 444.392 47.4956 444.794 49.1501C445.105 50.427 443.601 52.6378 442.242 53.1928Z" fill="#86B1F2"/>
<path d="M487.158 375.035L492.093 379.786C503.763 391.023 513.281 404.336 520.167 419.059L520.923 420.675C520.923 420.675 533.844 421.828 535.648 410.035C524.312 397.113 514.98 383.319 507.279 367.975L504.944 362.459L487.158 375.035Z" fill="#466EB6"/>
<path d="M504.933 362.443C505.567 363.362 502.102 366.908 497.192 370.364C492.284 373.821 487.767 375.92 487.133 375.002C486.499 374.084 489.987 370.496 494.896 367.04C499.805 363.584 504.299 361.526 504.933 362.443Z" fill="#86B1F2"/>
<path d="M504.953 362.477L504.938 362.459C504.938 362.459 495.102 370.863 491.048 371.721L492.3 373.441C493.78 372.633 495.462 371.583 497.192 370.364C502.045 366.947 505.487 363.444 504.953 362.477Z" fill="#355389"/>
<path d="M518.093 386.878C518.111 388.327 517.562 394.58 507.257 397.19C507.935 398.122 508.601 399.062 509.255 400.012C515.779 398.064 518.712 394.683 520.03 392.11C520.238 391.703 520.491 391.156 520.658 390.734C519.788 389.459 518.933 388.173 518.093 386.878Z" fill="#B75742"/>
<path d="M508.181 395.341L493.014 394.793L496.608 397.873L494.461 401.807L508.816 398.113L508.181 395.341Z" fill="#B75742"/>
<path d="M509.564 398.902L504.174 408.379L507.964 406.922L509.424 409.932L511.957 399.965L509.564 398.902Z" fill="#B75742"/>
<path d="M511.621 401.471C508.958 401.661 506.641 399.57 506.447 396.8C506.253 394.03 508.254 391.629 510.918 391.439C513.582 391.249 515.898 393.34 516.092 396.11C516.286 398.881 514.285 401.281 511.621 401.471Z" fill="#F47458"/>
<path d="M543.815 186.452L511.875 157.679C509.799 155.809 510.664 151.962 513.527 150.325L539.018 135.754C540.65 134.822 542.488 134.908 543.671 135.974L575.611 164.747C577.686 166.617 576.822 170.464 573.959 172.1L548.468 186.671C546.836 187.604 544.998 187.518 543.815 186.452Z" fill="#9BC1F9"/>
<path d="M542.301 163.563L539.639 141.457C539.537 140.61 540.148 139.706 541.003 139.436C541.858 139.167 542.635 139.636 542.737 140.482L545.187 160.824L569.407 166.737C570.196 166.929 570.56 167.789 570.219 168.657C569.877 169.524 568.959 170.071 568.168 169.878L542.301 163.563Z" fill="white"/>
<path d="M3.09528 462.976C1.38581 462.976 0 464.594 0 466.592C0 468.589 1.38581 470.208 3.46506 467.781H632.535C633.341 467.781 633.995 466.714 634 465.393C634.005 464.06 633.348 462.976 632.535 462.976H3.09528Z" fill="#184655"/>
<path d="M125.221 62.3066L128.522 68.8994L135.981 68.6562L139.163 76.3109L147.028 73.5784L151.006 82.075L158.555 80.4603L163.706 88.0036L160.878 89.9715L157.027 84.3317L149.061 86.0356L145.237 77.8682L137.24 80.6466L133.728 72.1991L126.445 72.4369L123.384 66.326L118.634 67.4922L117.822 64.1227L125.221 62.3066Z" fill="#F7CC7F"/>
<path d="M524.659 230.97L531.438 233.751L536.904 228.62L544.284 232.282L548.436 225.005L556.964 228.774L561.605 222.549L570.397 224.821L569.546 228.18L562.972 226.482L558.074 233.05L549.877 229.428L545.656 236.826L537.511 232.786L532.174 237.796L525.89 235.218L523.067 239.248L520.263 237.245L524.659 230.97Z" fill="#50BFA5"/>
</svg>
