<svg width="606" height="471" viewBox="0 0 606 471" fill="none" xmlns="http://www.w3.org/2000/svg">
<path d="M578.596 310.548H1.00513V325.653H578.596V310.548Z" fill="#04C45C"/>
<path d="M567.363 325.967V310.872" stroke="white" stroke-width="1.5" stroke-miterlimit="10" stroke-linecap="round" stroke-linejoin="round"/>
<path d="M474.473 325.967V310.872" stroke="white" stroke-width="1.5" stroke-miterlimit="10" stroke-linecap="round" stroke-linejoin="round"/>
<path d="M381.583 325.967V310.872" stroke="white" stroke-width="1.5" stroke-miterlimit="10" stroke-linecap="round" stroke-linejoin="round"/>
<path d="M288.691 325.967V310.872" stroke="white" stroke-width="1.5" stroke-miterlimit="10" stroke-linecap="round" stroke-linejoin="round"/>
<path d="M195.801 325.967V310.872" stroke="white" stroke-width="1.5" stroke-miterlimit="10" stroke-linecap="round" stroke-linejoin="round"/>
<path d="M102.911 325.967V310.872" stroke="white" stroke-width="1.5" stroke-miterlimit="10" stroke-linecap="round" stroke-linejoin="round"/>
<path d="M10.021 325.967V310.872" stroke="white" stroke-width="1.5" stroke-miterlimit="10" stroke-linecap="round" stroke-linejoin="round"/>
<path d="M552.316 299.29L1.00122 299.293" stroke="#04C45C" stroke-width="1.5" stroke-miterlimit="10" stroke-linecap="round" stroke-linejoin="round"/>
<path d="M604.871 382.993H1V398.089H604.871V382.993Z" fill="#04C45C"/>
<path d="M593.643 398.566V383.472" stroke="white" stroke-width="1.5" stroke-miterlimit="10" stroke-linecap="round" stroke-linejoin="round"/>
<path d="M500.751 398.566V383.472" stroke="white" stroke-width="1.5" stroke-miterlimit="10" stroke-linecap="round" stroke-linejoin="round"/>
<path d="M407.861 398.566V383.472" stroke="white" stroke-width="1.5" stroke-miterlimit="10" stroke-linecap="round" stroke-linejoin="round"/>
<path d="M314.971 398.566V383.472" stroke="white" stroke-width="1.5" stroke-miterlimit="10" stroke-linecap="round" stroke-linejoin="round"/>
<path d="M222.081 398.566V383.472" stroke="white" stroke-width="1.5" stroke-miterlimit="10" stroke-linecap="round" stroke-linejoin="round"/>
<path d="M129.189 398.566V383.472" stroke="white" stroke-width="1.5" stroke-miterlimit="10" stroke-linecap="round" stroke-linejoin="round"/>
<path d="M36.2988 398.566V383.472" stroke="white" stroke-width="1.5" stroke-miterlimit="10" stroke-linecap="round" stroke-linejoin="round"/>
<path d="M578.593 371.89H1.00122" stroke="#04C45C" stroke-width="1.5" stroke-miterlimit="10" stroke-linecap="round" stroke-linejoin="round"/>
<path d="M604.871 444.487V382.993L578.593 371.89V310.396" stroke="#04C45C" stroke-width="1.5" stroke-miterlimit="10" stroke-linecap="round" stroke-linejoin="round"/>
<path d="M578.593 310.394L552.315 299.29V237.797" stroke="#04C45C" stroke-width="1.5" stroke-miterlimit="10" stroke-linecap="round" stroke-linejoin="round"/>
<path d="M552.316 237.799L526.037 226.696" stroke="#04C45C" stroke-width="1.5" stroke-miterlimit="10" stroke-linecap="round" stroke-linejoin="round"/>
<path d="M1.00122 444.487H604.871" stroke="#04C45C" stroke-width="1.5" stroke-miterlimit="10" stroke-linecap="round" stroke-linejoin="round"/>
<path d="M552.316 237.795H1.00513V252.9H552.316V237.795Z" fill="#04C45C"/>
<path d="M541.085 252.893V237.799" stroke="white" stroke-width="1.5" stroke-miterlimit="10" stroke-linecap="round" stroke-linejoin="round"/>
<path d="M448.195 252.893V237.799" stroke="white" stroke-width="1.5" stroke-miterlimit="10" stroke-linecap="round" stroke-linejoin="round"/>
<path d="M355.304 252.893V237.799" stroke="white" stroke-width="1.5" stroke-miterlimit="10" stroke-linecap="round" stroke-linejoin="round"/>
<path d="M262.414 252.893V237.799" stroke="white" stroke-width="1.5" stroke-miterlimit="10" stroke-linecap="round" stroke-linejoin="round"/>
<path d="M169.523 252.893V237.799" stroke="white" stroke-width="1.5" stroke-miterlimit="10" stroke-linecap="round" stroke-linejoin="round"/>
<path d="M76.6335 252.893V237.799" stroke="white" stroke-width="1.5" stroke-miterlimit="10" stroke-linecap="round" stroke-linejoin="round"/>
<path d="M1.00122 226.696H526.037" stroke="#04C45C" stroke-width="1.5" stroke-miterlimit="10" stroke-linecap="round" stroke-linejoin="round"/>
<path d="M460.098 84.3538C456.529 82.339 453.545 79.8756 451.778 75.7457C450.465 72.6768 450.275 68.9377 451.806 65.9871C453.039 63.6132 455.352 61.6369 455.335 58.9231C455.322 56.6469 453.64 54.8207 452.851 52.7068C451.846 50.0191 452.415 46.7397 454.255 44.6162C455.447 43.24 457.059 42.3785 458.451 41.2376C463.017 37.4985 459.927 32.569 459.363 27.6876C458.587 20.9773 461.162 15.1671 465.926 10.8183L506.89 6.42822C522.763 20.0635 528.131 36.926 529.56 46.3186C531.112 56.5272 530.034 67.6193 524.462 76.076C518.152 85.6529 503.923 91.9724 494.624 92.6275C489.264 93.0045 476.69 93.7188 460.098 84.3538Z" fill="#063137"/>
<path d="M459.821 41.1289C458.842 41.4634 457.862 41.7978 456.882 42.1322C455.209 42.7033 453.484 43.3061 452.165 44.5433C450.228 46.3598 449.486 49.4948 450.383 52.0765C450.864 53.4651 451.752 54.6473 452.38 55.967C453.009 57.2868 453.361 58.9135 452.719 60.2264C452.324 61.0342 451.614 61.5998 451.036 62.27C448.59 65.1022 448.715 69.6313 450.208 73.1378C451.65 76.526 454.557 79.5096 458.039 79.6445" stroke="#063137" stroke-width="1.5" stroke-miterlimit="10" stroke-linecap="round" stroke-linejoin="round"/>
<path d="M474.496 5.3988C468.021 7.14657 462.433 10.4632 459.292 14.3165C456.151 18.1713 455.267 24.66 457.057 29.3996C457.994 31.8781 459.751 33.8984 460.912 36.2668C462.074 38.6339 462.527 41.7771 460.912 43.8166" stroke="#063137" stroke-width="1.5" stroke-miterlimit="10" stroke-linecap="round" stroke-linejoin="round"/>
<path d="M464.414 36.7333C468.665 51.6031 483.764 59.8561 498.14 55.1647C512.517 50.4746 520.725 34.6168 516.476 19.747C512.227 4.87722 497.127 -3.3758 482.75 1.31564C464.582 3.84508 451.662 20.1667 464.414 36.7333Z" fill="#063137"/>
<path d="M463.059 38.0366C462.869 35.3971 462.633 29.745 464.751 23.6058C466.23 19.3121 469.988 11.015 479.843 9.33609C483.067 16.4895 487.844 16.9685 494.336 20.8053C499.117 23.6306 500.429 31.3222 500.429 31.3222C499.973 33.9823 502.632 40.7312 502.632 40.7312L504.012 46.2539L506.121 68.8275L513.318 73.7997L481.8 85.6432L476.032 67.2477L485.308 67.0178L485.816 60.5401C475.084 61.4044 464.369 56.1693 463.059 38.0366Z" fill="#FFC4B0"/>
<path d="M489.975 31.7501C489.197 30.0189 486.352 28.8271 484.269 28.9427C482.186 29.0583 480.159 30.4455 479.869 33.2681C480.892 35.9351 487.53 35.9021 489.975 31.7501Z" fill="white"/>
<path d="M480.5 30.2831C480.093 30.5666 479.911 30.9148 479.601 31.2657C479.06 31.8768 479.194 30.9533 479.256 30.5652C479.432 29.4381 479.892 28.3606 480.581 27.484C481.652 26.1229 483.459 25.1155 485.119 25.0219C486.572 24.9407 488.082 25.2889 489.243 26.2261C490.308 27.0862 491.024 28.4266 491.175 29.8455C491.221 30.279 491.185 30.7896 490.852 31.0414C490.665 31.1832 490.424 31.2093 490.195 31.1997C489.034 31.1501 488.055 30.3162 487.003 29.7918C484.947 28.7666 482.401 28.9579 480.5 30.2831Z" fill="#D48983"/>
<path d="M482.696 33.6232C483.533 35.0214 485.328 35.404 486.703 34.4778C488.079 33.5502 488.515 31.6662 487.677 30.268C486.84 28.8698 485.046 28.4872 483.67 29.4134C482.294 30.3396 481.859 32.225 482.696 33.6232Z" fill="#1B1B1B"/>
<path d="M487.871 30.1593L485.187 31.9456L488.444 31.7791L487.871 30.1593Z" fill="white"/>
<path d="M478.948 32.9144C479.672 29.1533 482.347 28.8299 484.431 28.7143C486.515 28.5987 488.827 30.3079 489.976 31.7502" stroke="#1B1B1B" stroke-width="1.5" stroke-miterlimit="10" stroke-linecap="round" stroke-linejoin="round"/>
<path d="M476.518 29.3624C478.037 30.3326 479.422 29.84 480.801 29.5331" stroke="#1B1B1B" stroke-width="1.5" stroke-miterlimit="10" stroke-linecap="round" stroke-linejoin="round"/>
<path d="M463.992 35.2636C467.051 36.56 471.108 35.1122 472.063 32.9255C471.496 31.296 469.815 30.1098 467.964 30.0299C467.485 30.0134 465.317 30.2254 464.031 30.8144C463.925 31.735 463.706 32.7342 463.992 35.2636Z" fill="white"/>
<path d="M470.285 27.89C469.529 27.323 468.692 26.8537 467.786 26.6583C466.881 26.4629 465.898 26.562 465.104 27.0656C464.309 27.5693 463.737 28.5093 463.756 29.496C463.76 29.7217 463.798 29.9557 463.922 30.1373C464.108 30.407 464.451 30.502 464.764 30.4772C465.075 30.4511 465.371 30.3259 465.672 30.2309C467.752 29.5758 470.046 30.4855 471.68 32.0089C471.992 32.3007 472.57 32.6461 472.825 32.0777C473.011 31.6663 472.658 30.8818 472.495 30.5158C472.02 29.4396 471.188 28.5671 470.285 27.89Z" fill="#D48983"/>
<path d="M466.506 35.2333C467.34 35.6063 468.36 35.4535 469.114 34.8026C470.118 33.9397 470.284 32.2924 469.485 31.1254C468.628 29.8703 466.8 29.7492 465.754 30.8213C465.122 31.4695 464.854 32.4975 465.083 33.403C465.165 33.7292 465.307 34.0361 465.48 34.3182C465.744 34.7489 466.103 35.0531 466.506 35.2333Z" fill="#1B1B1B"/>
<path d="M469.605 30.9823L467.784 32.536L470.242 32.3557L469.605 30.9823Z" fill="white"/>
<path d="M464.791 30.6121C466.287 30.0423 467.321 30.0024 467.964 30.0299C469.812 30.1111 471.491 31.2988 472.059 32.9296" stroke="#1B1B1B" stroke-width="1.5" stroke-miterlimit="10" stroke-linecap="round" stroke-linejoin="round"/>
<path d="M462.535 30.4015C462.916 30.7098 463.169 30.8749 463.693 30.9204C464.137 30.9589 464.732 30.8598 465.132 30.6369" stroke="#1B1B1B" stroke-width="1.5" stroke-miterlimit="10" stroke-linecap="round" stroke-linejoin="round"/>
<path d="M469.368 21.3035C467.713 21.364 465.325 22.0673 463.765 24.2031" stroke="#1B1B1B" stroke-width="1.5" stroke-miterlimit="10" stroke-linecap="round" stroke-linejoin="round"/>
<path d="M485.816 60.5401C492.316 60.3722 499.011 55.1592 500.293 51.4435C500.23 56.7074 496.838 62.2562 485.362 65.4311L485.816 60.5401Z" fill="#1B1B1B"/>
<path d="M473.894 41.6615C472.182 41.0959 470.882 40.0445 471.016 38.1729C471.155 36.2297 473.894 35.1095 473.894 25.4968" stroke="#1B1B1B" stroke-width="1.5" stroke-miterlimit="10" stroke-linecap="round" stroke-linejoin="round"/>
<path d="M483.546 44.2115C481.976 46.9048 477.418 48.5933 474.496 47.5213" stroke="#1B1B1B" stroke-width="1.5" stroke-miterlimit="10" stroke-linecap="round" stroke-linejoin="round"/>
<path d="M479.906 20.6704C483.193 18.8497 487.401 20.5617 490.694 23.4324" stroke="#1B1B1B" stroke-width="1.5" stroke-miterlimit="10" stroke-linecap="round" stroke-linejoin="round"/>
<path d="M479.848 6.74335C478.773 9.74758 480.592 18.8855 487.701 24.6944C491.555 27.8431 497.578 29.0239 502.426 28.8423" stroke="#063137" stroke-width="1.5" stroke-miterlimit="10" stroke-linecap="round" stroke-linejoin="round"/>
<path d="M499.25 33.9273C500.343 30.74 502.51 27.7674 505.553 26.4821C508.595 25.1967 512.51 26.021 514.196 28.845C515.864 31.6373 514.903 35.5883 512.562 37.9265C510.22 40.2646 506.471 41.6009 502.53 40.8578" fill="#FFC4B0"/>
<path d="M499.25 33.9273C500.343 30.74 502.51 27.7674 505.553 26.4821C508.595 25.1967 512.51 26.021 514.196 28.845C515.864 31.6373 514.903 35.5883 512.562 37.9265C510.22 40.2646 506.471 41.6009 502.53 40.8578" stroke="#1B1B1B" stroke-width="1.5" stroke-miterlimit="10" stroke-linecap="round" stroke-linejoin="round"/>
<path d="M511.24 30.9891C509.489 30.2198 507.335 30.4537 505.732 31.5864C504.128 32.7203 503.129 34.7172 503.175 36.692" stroke="#1B1B1B" stroke-width="1.5" stroke-miterlimit="10" stroke-linecap="round" stroke-linejoin="round"/>
<path d="M508.439 34.0346C507.696 33.6451 506.816 33.5805 505.978 33.7029C505.139 33.824 504.323 34.1708 503.586 34.541" stroke="#1B1B1B" stroke-width="1.5" stroke-miterlimit="10" stroke-linecap="round" stroke-linejoin="round"/>
<path d="M507.208 42.4941C507.208 44.4469 505.726 46.0295 503.899 46.0295C502.071 46.0295 500.59 44.4469 500.59 42.4941C500.59 40.5412 502.071 38.9586 503.899 38.9586C505.726 38.9586 507.208 40.5412 507.208 42.4941Z" fill="#1B1B1B"/>
<path d="M512.456 34.5355C513.966 34.6098 515.413 35.5635 516.154 36.9714" stroke="#1B1B1B" stroke-width="1.5" stroke-miterlimit="10" stroke-linecap="round" stroke-linejoin="round"/>
<path d="M468.425 71.7203C460.715 71.613 453.702 81.5876 445.204 95.5408C436.704 109.494 433.246 114.867 433.246 114.867L395.392 107.942L390.421 127.627C390.421 127.627 422.647 139.799 432.53 141.199C444.051 142.831 447.357 138.683 452.84 132.194C459.187 124.683 470.244 109.797 470.244 109.797L468.425 71.7203Z" fill="#D48983"/>
<path d="M471.79 68.0032C460.569 69.4826 458.636 71.8964 450.04 85.6432C444.801 94.0201 439.511 101.981 439.511 101.981C439.511 101.981 448.37 114.671 459.822 117.297L471.792 98.896V68.0032H471.79Z" fill="#1B1B1B" stroke="#1B1B1B" stroke-width="1.5" stroke-miterlimit="10" stroke-linecap="round" stroke-linejoin="round"/>
<path d="M311.365 217.893C311.49 221.545 315.86 222.111 318.344 222.387C322.036 222.799 325.753 222.868 329.463 222.924C344.522 223.15 359.584 223.143 374.642 222.905C378.708 222.84 382.904 222.73 386.614 220.951C393.248 217.769 394.36 210.117 393.127 203.163C392.697 200.734 392.575 198.78 392.75 196.248C392.916 193.84 392.957 191.764 393.756 189.509C394.584 187.172 395.455 184.853 396.345 182.542C399.952 173.179 403.963 163.951 406.907 154.314C406.907 154.314 413.908 171.365 431.466 205.16C440.261 222.09 492.962 233.819 511.015 225.787C529.067 217.754 528.245 181.721 528.245 181.721L481.556 180.565C460.071 152.8 430.301 117.952 420.349 107.927C406.907 94.3848 398.693 91.5182 388.292 95.1817C381.507 97.5721 375.015 105.738 373.323 117.451C371.87 127.499 369.643 141.751 367.787 155.908C366.846 163.089 365.871 170.265 364.715 177.411C364.264 180.202 364.012 183.242 363.221 185.947C362.214 189.4 359.404 191.879 356.726 193.856C344.389 202.967 329.608 207.277 315.686 213.232C313.655 214.1 311.285 215.555 311.365 217.893Z" fill="#FFC4B0"/>
<path d="M397.893 178.575C401.476 179.409 398.002 185.807 397.093 189.224C396.184 192.641 395.168 193.5 395.168 193.5L393.455 198.647C393.118 199.657 394.329 202.715 394.521 203.839C394.835 205.671 395.036 207.505 395.148 209.363C395.344 212.581 394.632 215.842 393.032 218.632C392.024 220.392 390.345 222.299 388.605 223.254C386.467 224.428 383.039 224.359 380.678 224.545C375.086 224.987 369.476 224.695 363.881 224.507C354.307 224.183 344.726 224.163 335.151 224.446C327.867 224.662 320.509 225.046 313.357 223.565C312.286 223.344 311.194 223.067 310.3 222.402C308.516 221.074 307.941 218.274 308.878 216.178C309.983 213.708 311.957 213.647 314.025 212.757C316.447 211.715 318.755 210.775 321.301 210.026C326.229 208.579 331.034 206.659 335.648 204.312C342.535 200.81 348.999 196.354 354.816 191.082C356.27 189.763 357.684 188.395 359.053 186.978C359.634 186.376 360.343 185.845 360.605 185.04C360.867 184.238 360.778 183.125 360.89 182.274C361.092 180.744 361.309 178.971 362.119 177.647C362.437 177.126 362.82 176.659 363.368 176.413C363.501 176.354 364.923 176.109 364.893 176.29L364.199 180.519C364.199 180.519 367.941 183.682 379.477 184.175C389.017 184.582 396.62 181.827 396.62 181.827L397.893 178.575Z" fill="#1B1B1B"/>
<path d="M397.581 201.812C397.962 198.677 398.846 196.482 398.922 193.665C399.025 189.831 397.094 189.225 397.094 189.225L394.107 193.658C394.107 193.658 392.318 195.719 387.602 195.891C382.849 196.065 379.865 192.254 377.83 190.505C376.735 189.564 375.578 188.591 374.198 188.316C372.746 188.027 371.296 188.551 369.929 189.211C365.963 183.064 357.764 182.585 354.463 185.52C351.928 187.775 340.813 197.276 334.574 201.135C329.189 204.467 325.608 205.929 319.377 207.676C309.133 210.548 306.253 213.781 305.882 221.241C305.797 222.934 309.35 226.885 313.918 226.892C318.487 226.898 330.2 226.915 337.764 226.926C337.764 226.926 373.412 226.977 383.962 226.992C392.164 227.003 397.473 225.975 398.251 220.341C398.269 204.933 397.026 206.374 397.581 201.812Z" fill="#569673"/>
<path d="M343.116 211.111C340.026 206.847 333.421 202.8 327.598 204.867" stroke="#1B1B1B" stroke-width="1.5" stroke-miterlimit="10" stroke-linecap="round" stroke-linejoin="round"/>
<path d="M337.45 199.212C340.218 200.833 341.769 202.899 343.643 206.232" stroke="#1B1B1B" stroke-width="1.5" stroke-miterlimit="10" stroke-linecap="round" stroke-linejoin="round"/>
<path d="M334.572 201.135C338.135 200.975 343.175 202.079 351.679 203.623" stroke="#1B1B1B" stroke-width="1.5" stroke-miterlimit="10" stroke-linecap="round" stroke-linejoin="round"/>
<path d="M344.481 194.21C347.249 195.831 348.557 197.471 350.431 200.804" stroke="#1B1B1B" stroke-width="1.5" stroke-miterlimit="10" stroke-linecap="round" stroke-linejoin="round"/>
<path d="M341.605 196.132C345.168 195.973 350.207 197.076 358.712 198.621" stroke="#1B1B1B" stroke-width="1.5" stroke-miterlimit="10" stroke-linecap="round" stroke-linejoin="round"/>
<path d="M351.364 188.404C354.132 190.025 355.831 192.894 357.705 196.226" stroke="#1B1B1B" stroke-width="1.5" stroke-miterlimit="10" stroke-linecap="round" stroke-linejoin="round"/>
<path d="M348.636 191.128C352.199 190.969 357.237 192.073 365.743 193.617" stroke="#1B1B1B" stroke-width="1.5" stroke-miterlimit="10" stroke-linecap="round" stroke-linejoin="round"/>
<path d="M397.076 202.806C396.277 204.006 395.269 205.014 393.981 205.723C391.405 207.138 388.305 207.424 385.541 206.502C381.185 205.049 377.835 200.824 373.319 200.121C370.035 199.609 366.787 201.078 363.802 202.632C358.29 205.504 349.64 210.867 348.523 212.689C347.406 214.511 346.49 220.213 345.607 225.708" stroke="#1B1B1B" stroke-width="1.5" stroke-miterlimit="10" stroke-linecap="round" stroke-linejoin="round"/>
<path d="M309.002 232.545C313.062 233.72 335.501 233.587 335.501 233.587C335.501 233.587 372.819 233.64 381.356 233.651C389.893 233.664 394.437 233.38 396.616 230.164C397.902 228.268 398.613 225.218 398.25 220.341C394.699 223.68 395.604 224.629 381.019 224.608C366.434 224.588 330.837 224.658 323.106 224.526C317.72 224.435 309.351 225.196 305.881 221.242C304.605 223.056 302.812 230.752 309.002 232.545Z" fill="white" stroke="#1B1B1B" stroke-width="1.5" stroke-miterlimit="10" stroke-linecap="round" stroke-linejoin="round"/>
<path d="M443.735 132.991L484.111 174.256V229.541C456.269 225.905 445.267 221.822 438.702 216.437C425.225 205.384 416.376 181.265 413.819 175.078C410.263 166.473 406.909 157.403 406.909 157.403C406.461 158.901 406.248 161.628 404.039 162.815C395.075 167.63 374.339 164.455 367.79 155.906C364.187 151.204 365.967 149.139 367.259 142.832C368.551 136.525 370.519 116.764 374.737 107.643C378.954 98.5217 387.647 90.9925 397.078 92.3536C406.508 93.7146 415.508 100.091 422.115 107.643C428.72 115.194 443.735 132.991 443.735 132.991Z" fill="#063137"/>
<path d="M367.788 155.906L366.596 164.788C373.144 173.337 392.465 176.231 401.43 171.417L404.038 162.815C395.073 167.629 374.337 164.455 367.788 155.906Z" fill="#1B1B1B"/>
<path d="M410.653 134.113C410.653 134.113 410.653 147.985 406.908 157.403" stroke="#1B1B1B" stroke-width="1.5" stroke-miterlimit="10" stroke-linecap="round" stroke-linejoin="round"/>
<path d="M392.402 217.429C391.341 186.072 399.985 177.157 417.384 177.084C438.225 176.996 500.174 182.629 500.174 182.629H527.228C528.756 202.047 527.452 226.802 508.437 231.823C497.893 234.605 484.561 232.273 463.694 226.802C442.827 221.332 430.866 218.197 430.866 218.197C436.094 238.094 430.138 254.848 428.328 275.803C426.414 297.966 426.255 304.967 426.858 315.735C427.145 320.854 426.214 328.806 419.893 332.792C418.987 333.365 417.934 333.602 416.903 333.825C394.412 338.692 373.684 339.189 350.738 339.545C349.264 339.569 343.177 338.877 342.865 337.337C342.71 336.571 343.997 333.007 344.389 332.347C346.963 328.007 351.219 328.28 356.242 326.396C363.493 323.675 369.109 320.471 375.804 316.442C381.433 313.054 384.07 312.383 389.883 307.557C393.075 304.907 396.058 300.173 396.117 286.702C396.194 269.638 393.228 241.832 392.402 217.429Z" fill="#FFC4B0"/>
<path d="M427.369 287.629C429.896 288.13 430.434 290.722 429.601 296.725C427.495 311.913 429.566 319.139 429.717 322.782C429.868 326.425 433.745 342.305 426.341 345.145C418.939 347.986 404.144 346.537 389.199 346.838C374.253 347.139 356.31 345.817 350.46 345.616C341.423 345.305 341.423 334.663 345.891 330.464C350.359 326.265 361.787 325.723 371.017 319.271C380.247 312.818 389.171 307.377 391.55 302.809C393.929 298.242 393.617 296.446 393.966 291.866C394.114 289.931 393.394 287.346 396.118 286.702C396.296 287.818 396.425 288.969 396.509 290.15C396.509 290.15 398.219 295.309 411.706 295.328C424.748 295.348 427.118 291.165 427.118 291.165L427.369 287.629Z" fill="#1B1B1B"/>
<path d="M353.914 325.007C360.173 323.251 363.768 321.781 369.175 318.436C375.439 314.559 386.599 305.017 389.144 302.753C392.458 299.805 400.692 300.284 404.674 306.456C406.046 305.793 407.503 305.264 408.959 305.555C410.347 305.831 411.508 306.807 412.608 307.753C414.652 309.509 417.65 313.334 422.422 313.16C427.158 312.986 428.617 307.117 428.617 307.117L429.007 301.911C432.99 303.541 432.495 305.187 432.035 308.375C431.631 311.172 431.873 316.127 432.24 320.173C432.656 324.771 433.063 329.719 433.121 337.708C432.34 343.366 427.009 344.399 418.773 344.39C408.178 344.376 372.382 344.332 372.382 344.332C364.785 344.322 353.023 344.307 348.435 344.302C343.849 344.296 340.281 340.328 340.365 338.629C340.737 331.14 343.628 327.893 353.914 325.007Z" fill="#569673"/>
<path d="M377.754 328.451C374.65 324.169 368.017 320.107 362.171 322.183" stroke="#1B1B1B" stroke-width="1.5" stroke-miterlimit="10" stroke-linecap="round" stroke-linejoin="round"/>
<path d="M372.062 316.505C374.842 318.133 376.399 320.207 378.282 323.553" stroke="#1B1B1B" stroke-width="1.5" stroke-miterlimit="10" stroke-linecap="round" stroke-linejoin="round"/>
<path d="M369.175 318.436C372.753 318.275 377.812 319.383 386.354 320.932" stroke="#1B1B1B" stroke-width="1.5" stroke-miterlimit="10" stroke-linecap="round" stroke-linejoin="round"/>
<path d="M379.123 311.479C381.903 313.107 383.218 314.755 385.099 318.1" stroke="#1B1B1B" stroke-width="1.5" stroke-miterlimit="10" stroke-linecap="round" stroke-linejoin="round"/>
<path d="M376.234 313.41C379.812 313.249 384.873 314.357 393.414 315.907" stroke="#1B1B1B" stroke-width="1.5" stroke-miterlimit="10" stroke-linecap="round" stroke-linejoin="round"/>
<path d="M386.033 305.647C388.813 307.275 390.519 310.155 392.401 313.501" stroke="#1B1B1B" stroke-width="1.5" stroke-miterlimit="10" stroke-linecap="round" stroke-linejoin="round"/>
<path d="M383.295 308.384C386.873 308.223 391.934 309.331 400.474 310.881" stroke="#1B1B1B" stroke-width="1.5" stroke-miterlimit="10" stroke-linecap="round" stroke-linejoin="round"/>
<path d="M431.94 320.101C431.138 321.307 430.125 322.32 428.832 323.031C426.246 324.453 423.133 324.74 420.356 323.814C415.982 322.355 412.616 318.114 408.083 317.408C404.784 316.895 401.522 318.37 398.527 319.932C392.991 322.818 384.306 328.203 383.186 330.035C382.064 331.865 381.146 337.59 380.261 343.108" stroke="#1B1B1B" stroke-width="1.5" stroke-miterlimit="10" stroke-linecap="round" stroke-linejoin="round"/>
<path d="M343.501 349.981C347.578 351.16 370.111 351.022 370.111 351.022C370.111 351.022 407.587 351.068 416.158 351.079C424.731 351.09 429.293 350.805 431.482 347.576C432.772 345.671 433.486 342.609 433.12 337.71C429.555 341.063 430.464 342.017 415.817 341.998C401.17 341.98 365.425 342.056 357.661 341.925C352.254 341.834 343.849 342.601 340.364 338.63C339.083 340.454 337.284 348.182 343.501 349.981Z" fill="white" stroke="#1B1B1B" stroke-width="1.5" stroke-miterlimit="10" stroke-linecap="round" stroke-linejoin="round"/>
<path d="M528.127 180.927L456.53 176.226L450.074 175.674C450.074 175.674 416.418 170.874 402.951 179.326C394.423 184.678 389.884 198.439 390.469 209.662C391.054 220.883 391.099 241.035 390.805 248.535C390.51 256.035 389.155 259.476 395.212 264.023C401.268 268.57 417.996 271.186 429.374 266.619C436.087 263.926 434.557 253.942 435.272 243.568C436.087 231.74 436.242 225.002 436.242 225.002C436.242 225.002 460.136 234.657 472.046 234.657C482.19 234.657 492.872 233.984 501.282 233.984C519.703 233.982 534.6 216.567 528.127 180.927Z" fill="#063137"/>
<path d="M395.213 264.021L395.772 273.81C401.828 278.357 416.952 280.369 428.329 275.804L429.374 266.618C417.997 271.183 401.269 268.568 395.213 264.021Z" fill="#1B1B1B"/>
<path d="M452.839 178.784C453.841 166.349 459.643 142.832 459.643 142.832H518.829C518.829 142.832 526.056 167.019 528.246 181.719L452.839 178.784Z" fill="#063137"/>
<path d="M500.584 180.642C481.51 178.576 455.233 174.256 413.818 175.078" stroke="#1B1B1B" stroke-width="1.5" stroke-miterlimit="10" stroke-linecap="round" stroke-linejoin="round"/>
<path d="M456.53 159.139C455.193 165.172 454.136 170.1 453.936 176.004" stroke="#1B1B1B" stroke-width="1.5" stroke-miterlimit="10" stroke-linecap="round" stroke-linejoin="round"/>
<path d="M428.828 200.725C432.602 208.27 435.125 216.529 436.243 225.001" stroke="#1B1B1B" stroke-width="1.5" stroke-miterlimit="10" stroke-linecap="round" stroke-linejoin="round"/>
<path d="M487.312 150.635C470.102 149.344 462.433 146.588 458.984 144.213C453.817 140.654 455.019 135.573 456.549 131.542C458.079 127.513 455.13 111.261 456.364 97.4827C457.66 83.0189 471.79 68.0032 471.79 68.0032L484.353 67.0413C484.353 67.0413 476.132 75.9879 486.042 77.2911C497.079 78.743 506.088 68.1697 506.088 68.1697C506.088 68.1697 517.059 73.9002 521.606 78.944C526.86 84.7708 529.293 89.0521 526.568 102.745C523.844 116.438 519.943 131.655 521.456 136.401C522.97 141.148 523.718 146.335 518.548 148.625C513.378 150.913 504.522 151.925 487.312 150.635Z" fill="#1B1B1B" stroke="#1B1B1B" stroke-width="1.5" stroke-miterlimit="10" stroke-linecap="round" stroke-linejoin="round"/>
<path d="M456.549 131.542C458.08 127.513 455.13 111.261 456.364 97.4827C456.964 90.7779 460.323 83.9547 463.753 78.5641" stroke="#063137" stroke-width="1.5" stroke-miterlimit="10" stroke-linecap="round" stroke-linejoin="round"/>
<path d="M395.58 46.9887L401.073 61.3149L391.143 71.8194L387.249 71.6074L393.561 47.4649L395.58 46.9887Z" fill="white" stroke="#1B1B1B" stroke-width="1.5" stroke-miterlimit="10" stroke-linecap="round" stroke-linejoin="round"/>
<path d="M410.495 51.3485L391.143 71.8194L432.649 89.1786L410.495 51.3485Z" fill="white" stroke="#1B1B1B" stroke-width="1.5" stroke-miterlimit="10" stroke-linecap="round" stroke-linejoin="round"/>
<path d="M422.391 112.283C431.18 107.061 439.97 101.838 448.76 96.6155L420.902 54.3416C412.112 59.5643 403.322 64.7869 394.533 70.0096L390.095 69.7412L395.58 46.99L392.87 47.6286L387.249 71.6073L414.065 112.3L422.391 112.283Z" fill="#569673" stroke="#1B1B1B" stroke-width="1.5" stroke-miterlimit="10" stroke-linecap="round" stroke-linejoin="round"/>
<path d="M394.533 70.0097L422.114 112.685" stroke="#1B1B1B" stroke-width="1.5" stroke-miterlimit="10" stroke-linecap="round" stroke-linejoin="round"/>
<path d="M403.127 74.2263L421.139 63.525L440.166 92.4003L422.155 103.102L403.127 74.2263Z" stroke="white" stroke-width="1.5" stroke-miterlimit="10" stroke-linecap="round" stroke-linejoin="round"/>
<path d="M419.547 90.109C421.043 89.6122 421.862 90.1723 422.665 91.214C422.767 91.3462 422.974 91.6902 423.183 92.0934C423.579 91.6407 424.167 91.3063 424.511 91.2017C425.541 90.8893 426.171 91.0971 426.81 91.7398C428.206 93.1449 429.143 95.3578 430.16 97.0615C431.651 99.5607 433.25 101.987 434.95 104.328C435.143 104.595 435.716 105.204 436.508 104.884C437.522 104.472 439.091 103.473 440.165 102.919C440.165 102.919 442.295 107.788 442.983 109.508C443.543 110.91 443.966 113.942 445.157 114.864C453.581 121.12 474.705 128.574 474.71 128.56L481.839 114.867C486.099 122.598 492.721 131.009 505.467 134.096C505.467 134.096 501.901 140.497 497.211 147.715C494.159 152.413 490.712 156.838 486.2 158.526C481.061 160.45 477.311 159.336 469.409 155.149C457.814 149.007 446.945 141.39 436.368 133.421C430.917 129.314 425.826 124.578 421.576 119.07C419.432 116.288 417.506 113.307 415.905 110.133C414.775 107.889 412.703 104.786 412.921 102.094C413.038 100.646 413.646 99.9928 414.954 99.5964C414.535 97.89 414.522 97.2253 414.933 95.9784C415.344 94.7316 416.785 94.1687 417.737 94.1646C417.197 91.3751 418.935 90.3127 419.547 90.109Z" fill="#FFC4B0"/>
<path d="M481.839 114.867C488.412 127.559 498.323 132.445 506.089 134.248" stroke="#1B1B1B" stroke-width="1.5" stroke-miterlimit="10" stroke-linecap="round" stroke-linejoin="round"/>
<path d="M481.839 114.867C495.353 85.3625 512.236 77.0007 519.818 83.9202C529.687 92.9288 524.569 104.794 506.089 134.248" stroke="#063137" stroke-width="1.5" stroke-miterlimit="10" stroke-linecap="round" stroke-linejoin="round"/>
<path d="M503.898 71.0528C509.465 74.7369 516.146 80.1632 519.817 83.9216" stroke="#063137" stroke-width="1.5" stroke-miterlimit="10" stroke-linecap="round" stroke-linejoin="round"/>
<path d="M447.005 116.131C447.595 119.891 441.517 128.399 433.386 131.081L438.876 135.3C446.356 133.041 453.099 124.668 452.46 119.236C450.447 118.178 448.578 117.136 447.005 116.131Z" fill="#1B1B1B"/>
<path d="M482.407 133.586C480.112 130.393 476.982 129.182 474.709 128.561" stroke="#1B1B1B" stroke-width="1.5" stroke-miterlimit="10" stroke-linecap="round" stroke-linejoin="round"/>
<path d="M424.413 91.2595C423.627 91.4756 423.098 92.4045 423.042 93.2687C422.987 94.1343 423.09 94.9146 423.39 95.7211C424.948 99.9226 426.96 103.93 429.374 107.642" stroke="#1B1B1B" stroke-width="1.5" stroke-miterlimit="10" stroke-linecap="round" stroke-linejoin="round"/>
<path d="M417.737 94.1674C419.011 99.6212 421.417 104.443 425.226 109.797" stroke="#1B1B1B" stroke-width="1.5" stroke-miterlimit="10" stroke-linecap="round" stroke-linejoin="round"/>
<path d="M414.818 98.896C416.267 103.586 419.159 108.887 422.114 112.685" stroke="#1B1B1B" stroke-width="1.5" stroke-miterlimit="10" stroke-linecap="round" stroke-linejoin="round"/>
<path d="M85.3379 248.856C85.3379 296.962 106.533 304.366 118.782 306.038C131.031 307.71 146.679 316.405 163.58 320.416C180.481 324.428 191.9 326.317 191.9 326.317C191.9 326.317 175.024 339.508 165.725 357.635C160.147 368.51 145.133 392.571 136.322 405.828C132.512 411.56 129.519 414.899 129.519 414.899L157.306 424.823C157.306 424.823 193.157 385.96 209.977 365.562C226.798 345.164 236.037 331.195 239.167 322.836C242.297 314.477 246.828 293.333 225.233 280.291C203.639 267.248 157.007 248.857 157.007 248.857H85.3379V248.856Z" fill="#FFC4B0"/>
<path d="M117.126 307.762C117.126 307.762 137.9 314.417 143.688 316.538C153.138 320.001 180.843 326.553 187.959 326.829C179.738 333.954 165.37 349.938 151.979 381.618C151.979 381.618 162.347 393.376 177.732 402.776C195.187 384.53 221.809 354.104 231.122 340.006C240.436 325.907 244.282 313.326 242.728 303.375C241.176 293.422 236.121 282.007 211.939 270.272C190.106 259.677 145.481 242.592 145.481 242.592V235.128H47.5534C47.5534 235.128 36.6054 284.189 117.126 307.762Z" fill="#1B1B1B" stroke="#1B1B1B" stroke-width="1.5" stroke-miterlimit="10" stroke-linecap="round" stroke-linejoin="round"/>
<path d="M154.35 371.89C154.35 371.89 156.966 381.268 165.461 388.629C173.954 395.99 183.848 397.099 183.848 397.099L176.624 404.46C176.624 404.46 170.22 404.882 160.028 396.231C151.586 389.066 150.454 381.873 150.454 381.873L154.35 371.89Z" fill="#569673" stroke="#1B1B1B" stroke-width="1.5" stroke-miterlimit="10" stroke-linecap="round" stroke-linejoin="round"/>
<path d="M210.702 308.838C200.644 313.669 194.207 320.478 187.959 326.829" stroke="#063137" stroke-width="1.5" stroke-miterlimit="10" stroke-linecap="round" stroke-linejoin="round"/>
<path d="M201.648 314.296C201.648 321.465 190.115 332.841 182.663 343.028C174.622 354.023 162.739 374.077 157.307 386.765" stroke="#063137" stroke-width="1.5" stroke-miterlimit="10" stroke-linecap="round" stroke-linejoin="round"/>
<path d="M107.249 284.75C131.618 288.783 151.922 293.151 173.469 298.166C187.959 301.538 204.024 306.419 204.024 312.619" stroke="#063137" stroke-width="1.5" stroke-miterlimit="10" stroke-linecap="round" stroke-linejoin="round"/>
<path d="M131.303 411.87C138.913 409.761 144.082 409.677 146.832 410.675C148.628 411.326 150.031 413.428 150.031 413.428C150.031 413.428 154.702 410.496 157.98 412.954C163.588 417.158 160.106 418.036 163.719 420.832C167.665 423.885 178.561 427.247 178.561 433.722C164.748 429.1 156.237 423.536 146.372 426.479C136.506 429.423 128.895 430.162 117.62 426.479L131.303 411.87Z" fill="#063137"/>
<path d="M117.619 426.478C113.616 429.436 112.264 434.391 112.264 434.391C112.264 434.391 117.761 434.391 122.975 436.5C128.19 438.608 132.841 439.662 136.787 436.5C140.733 433.337 142.002 430.582 154.686 431.282C167.371 431.983 175.866 438.796 176.942 442.278C178.528 447.414 175.686 450.655 171.739 453.969C179.068 447.794 180.581 441.375 179.914 437.102C179.246 432.829 173.651 426.478 162.87 424.093C157.674 422.944 151.59 422.184 145.545 424.169C139.004 426.317 134.764 429.138 131.545 428.969C126.589 428.709 122.689 426.837 117.619 426.478Z" fill="white" stroke="#1B1B1B" stroke-width="1.5" stroke-miterlimit="10" stroke-linecap="round" stroke-linejoin="round"/>
<path d="M112.264 434.391C112.264 434.391 117.761 434.391 122.974 436.499C128.19 438.608 132.841 439.662 136.787 436.499C140.733 433.337 142.002 430.582 154.686 431.282C167.37 431.983 176.023 438.745 176.941 442.278C178.559 448.497 175.686 450.655 171.739 453.969C165.968 457.63 153.513 457.965 146.44 455.267C137.054 451.683 130.482 450.597 123.322 447.915C116.164 445.23 110.901 438.454 112.264 434.391Z" fill="#1B1B1B" stroke="#1B1B1B" stroke-width="1.5" stroke-miterlimit="10" stroke-linecap="round" stroke-linejoin="round"/>
<path d="M150.031 413.426C152.864 417.121 155.573 421.522 159.65 423.481" stroke="#1B1B1B" stroke-width="1.5" stroke-miterlimit="10" stroke-linecap="round" stroke-linejoin="round"/>
<path d="M125.802 418.452C129.19 420.83 131 423.906 131.303 428.277" stroke="#1B1B1B" stroke-width="1.5" stroke-miterlimit="10" stroke-linecap="round" stroke-linejoin="round"/>
<path d="M45.8956 248.856C38.1574 279.728 46.1133 293.722 52.1759 301.342C56.4082 306.663 73.3531 322.567 77.3227 327.678C81.2923 332.791 87.816 346.307 99.5857 362.46C110.315 377.184 166.596 420.917 177.536 434.763L197.035 417.842C197.035 417.842 150.203 355.354 143.255 345.39C136.308 335.426 124.793 325.314 120.822 319.193C116.853 313.07 115.017 305.874 110.007 294.6C102.718 278.199 92.3265 248.856 92.3265 248.856H45.8956Z" fill="#FFC4B0"/>
<path d="M99.5857 362.462C110.315 377.186 166.596 420.918 177.536 434.764" stroke="#1B1B1B" stroke-width="1.5" stroke-miterlimit="10" stroke-linecap="round" stroke-linejoin="round"/>
<path d="M169.705 418.394C165.952 420.947 167.139 427.232 168.243 429.083C169.346 430.934 172.428 432.566 174.785 436.252C177.143 439.937 176.797 445.895 180.451 450.259C182.738 442.876 185.817 437.521 192.339 431.177C200.171 423.558 209.424 423.705 209.424 423.705C204.856 419.442 202.615 418.92 199.836 416.25C196.23 412.784 195.487 407.823 192.205 405.718C188.923 403.615 181.79 403.742 181.466 406.738C181.466 406.738 178.538 404.703 172.714 409.957C167.655 414.522 169.705 418.394 169.705 418.394Z" fill="#063137"/>
<path d="M180.451 450.259C182.738 442.876 185.816 437.521 192.339 431.176C200.171 423.558 209.424 423.705 209.424 423.705C212.174 425.987 213.859 428.094 215.072 430.125C215.072 430.125 205.818 429.978 197.987 437.596C191.464 443.941 188.386 449.295 186.099 456.679C184.286 455.48 182.414 453.468 180.451 450.259Z" fill="white" stroke="#1B1B1B" stroke-width="1.5" stroke-miterlimit="10" stroke-linecap="round" stroke-linejoin="round"/>
<path d="M186.099 456.679C188.386 449.295 191.464 443.941 197.987 437.596C205.819 429.978 215.072 430.125 215.072 430.125C216.357 430.425 211.513 438.989 203.17 447.04C194.826 455.091 186.578 458.312 186.099 456.679Z" fill="#1B1B1B" stroke="#1B1B1B" stroke-width="1.5" stroke-miterlimit="10" stroke-linecap="round" stroke-linejoin="round"/>
<path d="M182.575 409.678C185.788 416.197 191.783 421.075 198.519 422.651" stroke="#1B1B1B" stroke-width="1.5" stroke-miterlimit="10" stroke-linecap="round" stroke-linejoin="round"/>
<path d="M172.396 419.766C177.388 424.703 183.357 429.531 182.614 437.653" stroke="#1B1B1B" stroke-width="1.5" stroke-miterlimit="10" stroke-linecap="round" stroke-linejoin="round"/>
<path d="M195.813 418.56C188.958 421.467 183.248 427.264 179.584 433.7" stroke="white" stroke-width="1.5" stroke-miterlimit="10" stroke-linecap="round" stroke-linejoin="round"/>
<path d="M192.37 414.899C185.515 417.807 179.805 423.603 176.141 430.04" stroke="white" stroke-width="1.5" stroke-miterlimit="10" stroke-linecap="round" stroke-linejoin="round"/>
<path d="M188.277 410.439C181.422 413.347 175.712 419.143 172.048 425.58" stroke="white" stroke-width="1.5" stroke-miterlimit="10" stroke-linecap="round" stroke-linejoin="round"/>
<path d="M145.483 344.585C138.112 336.015 127.242 323.037 123.618 318.613C119.997 314.19 117.124 307.762 117.124 307.762L104.644 275.313C126.167 266.742 137.785 252.13 145.483 235.127H47.5533C40.8262 255.723 39.8318 275.584 43.9908 289.636C47.8058 302.528 57.3357 313.698 63.0273 318.951C68.719 324.204 70.9008 330.414 76.3516 338.179C83.366 348.171 89.1762 354.952 97.9165 364.234C108.575 375.556 144.521 405.827 144.521 405.827C155.481 402.63 164.511 393.328 170.51 381.295C170.51 381.295 152.855 353.155 145.483 344.585Z" fill="#1B1B1B"/>
<path d="M52.3202 235.826C51.4211 245.528 50.6496 255.244 50.0043 264.97C49.7686 268.53 49.5497 272.097 49.6089 275.665C49.8858 292.114 55.5672 308.837 67.2802 323.023" stroke="#063137" stroke-width="1.5" stroke-miterlimit="10" stroke-linecap="round" stroke-linejoin="round"/>
<path d="M74.4905 259.368C79.077 259.491 90.1679 262.542 100.088 272.435C103.926 276.262 106.219 281.51 108.441 286.592C111.504 293.598 114.375 300.701 117.048 307.887" stroke="#063137" stroke-width="1.5" stroke-miterlimit="10" stroke-linecap="round" stroke-linejoin="round"/>
<path d="M137.289 400.881L145.058 407.385C145.058 407.385 153.568 404.814 160.93 397.402C168.291 389.991 171.411 380.31 171.411 380.31L165.32 370.746C165.32 370.746 164.752 379.217 155.549 389.065C146.349 398.914 137.289 400.881 137.289 400.881Z" fill="#569673" stroke="#1B1B1B" stroke-width="1.5" stroke-miterlimit="10" stroke-linecap="round" stroke-linejoin="round"/>
<path d="M75.8246 74.1163C75.1008 87.8452 85.3571 103.494 98.8102 104.304C112.263 105.115 123.818 90.7793 124.542 77.0503C125.266 63.3214 114.947 51.5357 101.494 50.7251C88.0426 49.9146 76.5498 60.3874 75.8246 74.1163Z" fill="#D48983"/>
<path d="M84.6359 98.7088C84.5882 101.694 85.5078 104.503 87.378 106.681L86.3824 123.278L78.9726 122.231C81.166 124.62 89.0266 146.022 102.087 146.259C116.533 146.522 117.151 133.436 118.537 124.404L110.692 123.862L110.407 115.253C111.993 115.303 117.687 114.227 120.64 111.282C123.594 108.337 125.749 104.83 126.397 98.3909C127.011 92.2861 125.152 86.8818 124.868 84.7708C124.582 82.6597 125.701 80.9367 125.665 75.9948C125.612 68.7436 121.84 66.1729 121.84 66.1729C118.506 60.8374 108.921 57.6171 97.8919 61.0576C90.701 64.3728 87.7515 68.1133 86.6091 72.5997C88.3144 76.4751 89.2997 77.1797 88.903 82.6377C88.6815 86.4057 87.8984 86.5103 86.6013 84.7006C84.8626 82.3542 82.1913 80.305 79.3087 80.1743C75.5542 80.0036 72.9551 82.2303 72.3484 85.1134C71.6297 88.5305 73.6892 91.1301 76.2562 92.3962C78.8231 93.6637 82.2737 93.8096 84.7376 92.249C84.7376 92.249 84.6835 95.7239 84.6359 98.7088Z" fill="#FFCCCC"/>
<path d="M86.6103 72.5997L77.5994 66.6257C77.5994 66.6257 77.2375 57.3487 83.0258 52.4192C85.4678 50.3384 88.4688 49.2443 91.5883 48.764C94.6448 48.2934 97.9858 48.4888 100.719 46.7878C102.279 45.8176 103.511 44.1455 103.578 42.2753C105.338 43.3336 106.7 45.069 107.329 47.0534C108.77 45.6208 110.608 44.5557 112.605 44.2804C116.793 43.7024 122.013 46.9076 120.709 51.8096C123.102 51.1118 127.214 51.4173 129.969 54.9363C131.369 56.7239 131.962 59.197 131.883 61.4787C130.79 59.3084 128.813 57.3818 125.828 57.5318C131.904 61.169 131.351 69.3643 126.632 71.346C124.011 72.447 120.806 70.9593 119.118 70.1033C117.429 69.2473 115.894 68.1106 114.283 67.1128C110.284 64.6371 105.767 63.0132 101.125 62.5425C100.166 62.4462 90.7022 62.1159 86.6103 72.5997Z" fill="#1B1B1B"/>
<path d="M110.407 115.253C104.395 114.991 97.6305 113.485 93.6184 110.854C94.6887 113.602 99.2276 118.002 110.557 119.774L110.407 115.253Z" fill="#1B1B1B"/>
<path d="M112.32 82.0431C112.943 80.2898 114.622 79.4875 116.442 79.4366C118.26 79.3857 120.835 79.9953 121.175 82.7285C120.367 85.4148 114.58 85.9061 112.32 82.0431Z" fill="white"/>
<path d="M118.658 84.3056C117.762 85.2084 116.314 85.1327 115.423 84.1377C114.533 83.1427 114.537 81.6027 115.433 80.7C116.33 79.7972 117.777 79.8729 118.667 80.8678C119.56 81.8642 119.555 83.4028 118.658 84.3056Z" fill="#1B1B1B"/>
<path d="M115.306 80.5761L117.047 82.5027L114.573 81.7032L115.306 80.5761Z" fill="white"/>
<path d="M121.493 82.2399C120.464 80.1949 118.415 79.6017 116.596 79.6527C114.776 79.7036 112.866 80.8142 112.32 82.0431" stroke="#1B1B1B" stroke-width="1.5" stroke-miterlimit="10" stroke-linecap="round" stroke-linejoin="round"/>
<path d="M114.184 73.6002C116.984 73.0924 121.193 74.0337 122.838 76.1957" stroke="#1B1B1B" stroke-width="1.5" stroke-miterlimit="10" stroke-linecap="round" stroke-linejoin="round"/>
<path d="M94.0962 80.7358C94.7621 79.0004 96.4597 78.2462 98.2809 78.2449C100.101 78.2449 102.659 78.9261 102.933 81.6688C102.059 84.3318 96.2626 84.6607 94.0962 80.7358Z" fill="white"/>
<path d="M100.378 83.0381C99.4775 83.9354 98.0298 83.8528 97.1437 82.8523C96.2575 81.8519 96.2691 80.3133 97.1694 79.416C98.0697 78.5187 99.5175 78.6013 100.404 79.6018C101.29 80.6009 101.278 82.1409 100.378 83.0381Z" fill="#1B1B1B"/>
<path d="M97.0418 79.2921L98.7729 81.2271L96.3025 80.4151L97.0418 79.2921Z" fill="white"/>
<path d="M103.262 81.19C102.283 79.1174 100.249 78.4665 98.429 78.4665C96.6091 78.4665 94.6719 79.5234 94.0962 80.7358" stroke="#1B1B1B" stroke-width="1.5" stroke-miterlimit="10" stroke-linecap="round" stroke-linejoin="round"/>
<path d="M91.6838 74.1989C93.9275 72.0176 98.1779 71.0832 101.278 72.1841" stroke="#1B1B1B" stroke-width="1.5" stroke-miterlimit="10" stroke-linecap="round" stroke-linejoin="round"/>
<path d="M107.645 76.5494C108.269 81.6083 110.06 84.8231 111.112 87.3842C111.918 89.348 111.916 92.7059 107.375 92.7706" stroke="#1B1B1B" stroke-width="1.5" stroke-miterlimit="10" stroke-linecap="round" stroke-linejoin="round"/>
<path d="M76.3477 85.1423C77.029 84.6373 78.6995 84.2547 80.3804 84.7446C82.0625 85.2345 83.4522 86.6492 83.9378 88.364" stroke="#1B1B1B" stroke-width="1.5" stroke-miterlimit="10" stroke-linecap="round" stroke-linejoin="round"/>
<path d="M79.2134 87.1062C79.7157 86.7373 81.479 85.8029 83.192 86.8006" stroke="#1B1B1B" stroke-width="1.5" stroke-miterlimit="10" stroke-linecap="round" stroke-linejoin="round"/>
<path d="M80.9652 93.3899C80.8789 94.667 79.8408 95.6262 78.6469 95.534C77.4516 95.4418 76.5539 94.3326 76.6389 93.0569C76.7252 91.7797 77.7633 90.8205 78.9573 90.9127C80.1525 91.0049 81.0502 92.1141 80.9652 93.3899Z" fill="#1B1B1B"/>
<path d="M111.527 98.8616C107.896 100.159 102.79 98.7887 100.914 96.4698" stroke="#1B1B1B" stroke-width="1.5" stroke-miterlimit="10" stroke-linecap="round" stroke-linejoin="round"/>
<path d="M164.877 153.663C159.84 139.096 151.395 139.531 144.681 137.356V196.278L154.928 233.411C154.928 233.411 183.558 232.797 182.708 226.948C181.555 219.021 169.914 168.23 164.877 153.663Z" fill="#FFCCCC"/>
<path d="M147.459 134.461C158.643 138.709 164.443 140.435 169.443 162.223C174.443 184.011 182.591 216.881 183.817 219.572C185.043 222.262 185.043 226.749 181.842 228.244C178.643 229.74 154.543 234.655 154.543 234.655L142.847 196.403L142.195 132.483L147.459 134.461Z" fill="#569673"/>
<path d="M102.088 144.279C96.4094 140.457 88.7741 133.605 83.1933 122.897C83.1933 122.897 62.3909 125.882 45.7654 133.313C45.7654 133.313 43.9623 147.478 46.4043 168.537C48.3698 185.487 50.1137 194.552 49.2546 207.391C48.7806 214.481 46.1003 230.982 45.124 248.338C47.2119 253.934 64.7041 272.88 116.653 266.26C133.996 264.05 147.65 255.207 151.404 248.696C152.474 240.726 150.032 214.141 149.753 195.78C149.473 177.417 151.394 157.366 145.491 135.572C138.213 133.119 112.49 124.38 112.49 124.38C111.154 129.043 106.872 140.332 102.088 144.279Z" fill="white" stroke="#1B1B1B" stroke-width="1.5" stroke-miterlimit="10" stroke-linecap="round" stroke-linejoin="round"/>
<path d="M85.3029 123.808C81.0242 128.408 78.8011 138.667 80.9701 166.845C82.6329 188.456 84.0252 223.452 84.0252 234.802C84.0252 246.455 84.5417 267.645 84.5417 267.645C84.5417 267.645 53.3439 277.562 45.2514 286.098C46.6206 293.477 48.4276 301.027 53.541 308.185C39.8097 308.284 34.4478 305.447 32.3947 297.453C30.3416 289.459 36.2728 273.858 40.6082 250.212C44.9423 226.567 47.8146 207.578 45.1239 185.383C42.4333 163.188 44.0987 142.496 47.5904 130.796L85.2012 118.02L85.3029 123.808Z" fill="#569673"/>
<path d="M53.5408 308.185C48.4275 301.027 46.6204 293.477 45.2513 286.098C43.0785 288.391 41.2624 290.872 40.1509 293.479C34.9049 305.791 53.537 308.185 53.5408 308.185Z" fill="#1B1B1B"/>
<path d="M86.9426 113.943C83.1932 113.943 80.1432 115.313 74.6744 118.128C68.7458 121.181 58.2422 127.225 58.2422 127.225C58.2422 127.225 67.7244 127.847 71.3231 129.425C76.6335 131.755 75.7035 139.845 75.7898 143.604C76.0255 153.902 79.4258 155.2 80.7499 163.73C80.7499 163.73 80.9418 144.507 82.3393 137.355C83.8836 129.449 86.3836 123.277 86.3836 123.277L86.9426 113.943Z" fill="#1B1B1B"/>
<path d="M110.692 120.998L147.459 134.461C147.459 134.461 150.3 140.925 151.367 155.109C151.722 159.838 151.882 165.424 151.672 171.915C150.836 197.879 151.095 211.108 152.269 223.783C153.444 236.457 155.054 250.129 155.054 250.129C155.054 250.129 147.452 261.887 138.797 264.021C138.797 264.021 127.518 244.17 126.519 212.348C125.486 179.449 124.484 165.676 123.652 148.431C122.819 131.186 110.69 123.863 110.69 123.863L110.692 120.998Z" fill="#569673"/>
<path d="M151.094 151.994C151.631 157.325 151.93 163.938 151.673 171.915C150.837 197.879 151.096 211.108 152.271 223.783C153.446 236.457 155.056 250.129 155.056 250.129" stroke="#1B1B1B" stroke-width="1.5" stroke-miterlimit="10" stroke-linecap="round" stroke-linejoin="round"/>
<path d="M124.256 160.112C126.094 153.381 127.863 149.632 128.409 145.692C128.955 141.751 127.759 134.669 129.049 132.485C130.957 129.259 138.546 131.197 138.546 131.197C138.546 131.197 130.026 124.742 123.48 120.695C118.514 117.622 110.406 115.253 110.406 115.253L110.69 123.862C110.69 123.862 123.038 136.437 124.256 160.112Z" fill="#1B1B1B"/>
<path d="M166.099 276.604C166.099 276.604 177.279 257.317 179.797 250.587C182.316 243.857 183.855 232.988 182.708 226.947C180.032 212.879 157.049 221.128 154.928 233.409C152.807 245.69 147.047 267.577 147.047 267.577L166.099 276.604Z" fill="#FFCCCC"/>
<path d="M154.311 236.744L154.928 233.409C154.928 233.409 160.55 226.325 169.881 226.325C179.211 226.325 183.095 232.306 183.095 232.306C183.095 232.306 182.94 236.341 182.642 238.402C185.431 237.155 188.522 234.565 187.093 230.938C184.937 225.456 187.038 224.31 183.094 220.59C180.613 218.251 171.871 214.544 162.54 219.57C153.21 224.598 151.057 229.883 154.311 236.744Z" fill="#569673"/>
<path d="M183.094 220.591C180.613 218.252 171.87 214.546 162.54 219.572C153.21 224.597 151.058 229.883 154.311 236.744" stroke="#1B1B1B" stroke-width="1.5" stroke-miterlimit="10" stroke-linecap="round" stroke-linejoin="round"/>
<path d="M65.1421 283.738C61.4996 283.738 59.7969 280.755 56.0462 276.018C52.2943 271.281 47.1797 264.722 47.1797 264.722V262.14H112.49L128.348 281.158V283.739L65.1421 283.738Z" fill="#1B1B1B"/>
<path d="M65.1421 281.156C61.4996 281.156 59.7969 278.173 56.0462 273.436C52.2943 268.699 47.1797 262.14 47.1797 262.14H112.49L128.348 281.158H65.1421V281.156Z" fill="#063137"/>
<path d="M94.3048 259.648C88.7046 255.588 74.4336 254.853 70.437 253.507C62.5313 250.846 46.9362 226.971 43.9623 221.858L56.0372 185.383C56.0372 185.383 56.1621 149.098 47.1797 134.595C40.4911 137.454 35.3288 136.842 28.2552 154.818C21.1815 172.793 11.7791 208.134 9.7892 216.917C7.79925 225.701 8.27323 229.442 11.8139 234.801C15.3546 240.16 18.4664 244.336 32.861 255.011C43.5707 262.953 51.2716 268.318 60.0429 271.033C68.8141 273.748 77.1938 271.263 81.7932 274.698C86.3927 278.133 92.5068 276.991 99.3061 275.332C106.104 273.674 99.905 263.708 94.3048 259.648Z" fill="#FFCCCC"/>
<path d="M47.5906 130.796C34.6115 134.594 31.0411 140.805 26.6246 153.104C22.2081 165.403 12.7207 197.737 10.1035 203.854C7.4863 209.971 2.79285 215.172 5.85054 218.361C3.06976 221.681 5.19624 228.06 6.34127 230.201C7.48629 232.343 9.61277 238.364 11.4121 240.159C13.2114 241.955 16.2807 240.79 16.2807 240.79L13.5386 237.587C13.5386 237.587 16.4198 228.149 24.2212 222.731C32.0226 217.313 40.6702 218.643 43.9623 221.857L45.1241 223.773C45.1241 223.773 50.307 224.325 47.1797 217.148C47.1797 217.148 55.4139 193.486 57.5403 186.087C58.384 183.151 60.2747 173.856 59.3487 163.733C57.9422 148.35 55.8762 130.818 47.5906 130.796Z" fill="#569673"/>
<path d="M45.124 223.773C45.124 223.773 50.3069 224.325 47.1797 217.148C47.1797 217.148 55.4138 193.486 57.5403 186.087C58.3839 183.151 60.2747 173.856 59.3486 163.733" stroke="#1B1B1B" stroke-width="1.5" stroke-miterlimit="10" stroke-linecap="round" stroke-linejoin="round"/>
<path d="M7.68066 216.032C13.4045 210.767 20.8736 207.713 28.4251 207.552C34.4233 207.424 43.9622 210.344 47.1796 217.148" stroke="#1B1B1B" stroke-width="1.5" stroke-miterlimit="10" stroke-linecap="round" stroke-linejoin="round"/>
<path d="M28.3401 203.54C35.1394 203.875 44.753 210.344 47.1796 217.148" stroke="#1B1B1B" stroke-width="1.5" stroke-miterlimit="10" stroke-linecap="round" stroke-linejoin="round"/>
<path d="M154.676 220.591H65.142C63.8489 220.591 62.8018 221.712 62.8018 223.092V281.238C62.8018 282.619 63.8502 283.738 65.142 283.738H154.676C155.969 283.738 157.016 282.618 157.016 281.238V223.092C157.016 221.71 155.969 220.591 154.676 220.591Z" fill="#1B1B1B"/>
<path d="M157.257 220.591H67.7231C66.43 220.591 65.3828 221.712 65.3828 223.092V281.238C65.3828 282.619 66.4312 283.738 67.7231 283.738H157.257C158.55 283.738 159.597 282.618 159.597 281.238V223.092C159.597 221.71 158.549 220.591 157.257 220.591Z" fill="#063137"/>
<path d="M121.185 252.165C121.185 255.318 118.42 257.875 115.007 257.875C111.595 257.875 108.828 255.318 108.828 252.165C108.828 249.013 111.595 246.456 115.007 246.456C118.42 246.456 121.185 249.011 121.185 252.165Z" fill="white"/>
<path d="M159.597 260.998C164.007 263.471 167.011 266.156 167.154 271.648C167.297 277.141 168.638 281.306 165.591 282.608C165.714 286.774 164.646 289.585 160.542 289.507C159.597 292.116 158.09 293.175 155.115 292.645C151.35 294.388 147.071 293.224 141.672 290.761C137.48 288.849 133.464 286.757 131.756 283.738C130.787 282.025 131.708 278.409 134.511 278.93C132.562 274.634 136.717 272.975 139.275 274.406C141.833 275.837 144.879 277.661 144.879 277.661C144.879 277.661 140.522 275.669 142.35 272.528C143.487 270.572 145.173 270.868 150.047 272.455C154.92 274.041 157.624 273.814 159.597 272.939V260.998Z" fill="#FFCCCC"/>
<path d="M159.597 260.998C164.007 263.471 167.011 266.156 167.154 271.648C167.297 277.141 168.638 281.306 165.591 282.608" stroke="#1B1B1B" stroke-width="1.5" stroke-miterlimit="10" stroke-linecap="round" stroke-linejoin="round"/>
<path d="M143.094 276.604C148.092 280.055 151.783 281.156 156.41 282.528" stroke="#1B1B1B" stroke-width="1.5" stroke-miterlimit="10" stroke-linecap="round" stroke-linejoin="round"/>
<path d="M134.509 278.93C139.732 282.79 145.583 286.634 151.781 288.112" stroke="#1B1B1B" stroke-width="1.5" stroke-miterlimit="10" stroke-linecap="round" stroke-linejoin="round"/>
<path d="M195.348 196.362C196.427 195.746 197.538 196.798 198.413 198.162C199.046 199.149 199.667 200.144 200.288 201.139C200.531 201.528 201.736 204.197 202.419 203.412C202.545 203.268 202.527 203.042 202.5 202.847C201.983 199.084 200.509 195.516 200.339 191.687C200.304 190.897 200.326 190.088 200.563 189.339C200.801 188.589 201.282 187.899 201.959 187.579C202.638 187.26 203.518 187.389 203.996 187.995C204.155 187.216 204.501 186.447 205.102 185.973C207.026 184.461 208.661 186.915 209.3 188.563C209.998 190.363 210.269 192.284 210.796 194.138C211.451 196.441 211.907 197.8 212.165 198.589C212.424 199.377 212.754 200.174 213.128 200.085C213.501 199.995 213.498 199.764 213.408 198.809C212.976 194.248 212.861 193.49 212.38 189.455C212.101 187.104 211.887 186.015 212.347 184.561C212.673 183.529 214.294 183.177 215.08 184.113C216.322 185.593 216.417 187.554 216.925 190.065C217.545 193.139 218.344 198.546 219.184 202.192C219.643 204.189 220.21 204.619 220.607 204.685C221.447 204.827 222.012 202.576 222.195 201.622C222.474 200.166 222.672 198.64 223.426 197.357C223.966 196.441 225.424 195.671 226.308 196.54C226.519 196.747 226.641 197.039 226.726 197.334C227.149 198.795 226.798 200.798 226.751 202.322C226.694 204.147 226.569 205.969 226.38 207.785C226.118 210.291 225.826 212.751 225.804 215.491C225.781 218.231 226.943 221.534 227.83 223.304C231.583 230.788 235.174 235.955 239.853 242.781C239.861 242.2 246.9 234.652 252.29 228.656C262.713 217.064 265.266 214.206 275.688 211.295V248.531C275.688 248.531 256.135 263.939 248.46 268.718C240.785 273.498 231.601 276.853 224.628 263.906C216.778 249.328 214.015 235.571 211.816 230.764C209.616 225.957 206.485 221.391 203.756 216.644C202.599 214.632 200.903 211.024 199.857 208.963C197.973 205.248 195.679 200.817 195.115 199.654C194.636 198.663 194.27 196.979 195.348 196.362Z" fill="#D48983"/>
<path d="M216.491 208.369C213.928 210.749 212.971 214.908 214.206 218.286" stroke="#1B1B1B" stroke-width="1.5" stroke-miterlimit="10" stroke-linecap="round" stroke-linejoin="round"/>
<path d="M203.826 187.824C205.152 192.404 206.583 197.709 207.798 202.94" stroke="#1B1B1B" stroke-width="1.5" stroke-miterlimit="10" stroke-linecap="round" stroke-linejoin="round"/>
<path d="M210.912 239.992C211.851 241.018 213.023 241.672 214.345 241.986C214.826 242.1 215.343 242.169 215.857 242.193C219.168 242.345 223.059 240.655 226.193 237.373C228.551 234.889 230.139 231.875 230.687 228.876C230.701 228.81 230.716 228.732 230.718 228.663C231.228 225.599 230.568 222.923 228.891 221.083C228.183 220.319 227.33 219.742 226.359 219.372C226.659 220.483 227.037 221.527 227.414 222.393C227.458 222.431 227.49 222.466 227.534 222.504C228.22 223.249 228.67 224.201 228.866 225.314C229.042 226.271 229.039 227.336 228.826 228.489C228.348 231.089 226.941 233.731 224.865 235.922C221.827 239.118 218.049 240.64 215.152 240.117C214.027 239.919 213.031 239.418 212.271 238.586C210.516 236.687 210.382 233.54 211.617 230.358C211.279 229.614 210.912 228.888 210.508 228.156C208.352 232.515 208.354 237.223 210.912 239.992Z" fill="#1B1B1B"/>
<path d="M213.463 245.929C214.401 246.955 215.574 247.609 216.895 247.923C217.377 248.037 217.893 248.106 218.407 248.13C221.719 248.282 225.61 246.592 228.743 243.31C231.102 240.826 232.69 237.812 233.237 234.813C233.251 234.747 233.267 234.668 233.269 234.6C233.779 231.536 233.119 228.86 231.443 227.02C230.735 226.256 229.882 225.679 228.909 225.309C229.21 226.418 229.587 227.464 229.964 228.33C230.008 228.368 230.04 228.403 230.084 228.441C230.771 229.186 231.22 230.138 231.416 231.251C231.592 232.208 231.59 233.273 231.376 234.426C230.898 237.026 229.492 239.668 227.415 241.859C224.377 245.055 220.599 246.577 217.703 246.054C216.577 245.856 215.581 245.355 214.821 244.523C213.177 242.743 212.955 239.865 213.951 236.891C213.732 236.178 213.35 234.941 213.058 234.093C210.902 238.452 210.905 243.16 213.463 245.929Z" fill="#1B1B1B"/>
<path d="M239.864 242.795C241.738 246.289 242.612 250.61 242.728 254.272" stroke="#1B1B1B" stroke-width="1.5" stroke-miterlimit="10" stroke-linecap="round" stroke-linejoin="round"/>
<path d="M268.004 177.979C272.452 192.573 287.496 200.426 301.607 195.516C315.717 190.606 323.551 174.794 319.102 160.199C314.653 145.604 299.61 137.751 285.498 142.662C267.608 145.513 255.134 161.876 268.004 177.979Z" fill="#1B1B1B"/>
<path d="M323.577 151.512C323.569 151.552 323.561 151.592 323.554 151.632C326.871 152.109 329.936 154.994 330.183 158.66C330.268 159.921 330.068 161.187 329.749 162.405C328.988 165.307 327.501 168.033 325.319 169.943C323.138 171.853 320.234 172.887 317.442 172.462C315.567 172.177 313.824 171.27 312.196 170.234C310.048 168.866 308.353 166.994 306.58 165.135C304.842 163.31 303.509 161.041 302.751 158.564C301.651 154.965 301.779 150.953 303.104 147.441C304.915 142.641 309.337 138.77 314.18 138.912C317.06 138.995 319.875 140.507 321.656 142.925C323.416 145.311 324.135 148.535 323.577 151.512Z" fill="#1B1B1B"/>
<path d="M323.203 152.371C323.439 149.463 323.664 146.459 322.796 143.691C322.011 141.186 320.323 139.02 318.162 137.739C316.001 136.458 313.386 136.077 310.983 136.69C309.916 136.963 308.883 137.431 308.019 138.151C305.519 140.237 304.871 144.01 305.072 147.393" stroke="#1B1B1B" stroke-width="1.5" stroke-miterlimit="10" stroke-linecap="round" stroke-linejoin="round"/>
<path d="M318.475 150.033C320.225 149.156 322.276 149.471 324.172 149.879C325.967 150.264 327.823 150.755 329.222 152.017C330.371 153.053 331.104 154.522 331.637 156.023C332.013 157.082 332.304 158.185 332.373 159.315C332.568 162.563 330.754 165.802 328.054 167.312C325.356 168.822 321.93 168.614 319.315 166.945" stroke="#1B1B1B" stroke-width="1.5" stroke-miterlimit="10" stroke-linecap="round" stroke-linejoin="round"/>
<path d="M322.594 187.561C323.416 178.203 321.16 173.618 317.514 168.34" stroke="#1B1B1B" stroke-width="1.5" stroke-miterlimit="10" stroke-linecap="round" stroke-linejoin="round"/>
<path d="M317.719 168.335C321.678 170.396 324.947 173.932 326.829 178.185" stroke="#1B1B1B" stroke-width="1.5" stroke-miterlimit="10" stroke-linecap="round" stroke-linejoin="round"/>
<path d="M264.235 178.657C264.002 176.055 263.674 170.481 265.658 164.381C267.046 160.113 270.613 151.851 280.312 150.001C283.616 156.999 288.34 157.379 294.812 161.039C299.579 163.735 301.006 171.302 301.006 171.302C300.602 173.937 303.341 180.546 303.341 180.546L304.642 190.718L308.842 206.476L315.251 207.991C315.251 207.991 313.142 217.228 296.861 220.18C280.582 223.132 282.653 210.761 282.653 210.761L288.054 209.047L287.486 200.345C276.069 201.963 265.777 195.85 264.235 178.657Z" fill="#D48983"/>
<path d="M284.216 146.021C283.206 149.007 285.157 157.991 292.272 163.587C296.129 166.62 302.094 167.668 306.877 167.395" stroke="#1B1B1B" stroke-width="1.5" stroke-miterlimit="10" stroke-linecap="round" stroke-linejoin="round"/>
<path d="M299.701 173.57C300.725 170.403 302.814 167.426 305.795 166.098C308.775 164.77 312.655 165.508 314.368 168.263C316.061 170.986 315.18 174.906 312.908 177.259C310.636 179.612 306.959 181.005 303.056 180.347" fill="#D48983"/>
<path d="M299.701 173.57C300.725 170.403 302.814 167.426 305.795 166.098C308.775 164.77 312.655 165.508 314.368 168.263C316.061 170.986 315.18 174.906 312.908 177.259C310.636 179.612 306.959 181.005 303.056 180.347" stroke="#1B1B1B" stroke-width="1.5" stroke-miterlimit="10" stroke-linecap="round" stroke-linejoin="round"/>
<path d="M311.487 170.436C309.745 169.711 307.623 169.983 306.059 171.134C304.495 172.284 303.543 174.274 303.623 176.223" stroke="#1B1B1B" stroke-width="1.5" stroke-miterlimit="10" stroke-linecap="round" stroke-linejoin="round"/>
<path d="M308.774 173.497C308.033 173.126 307.164 173.081 306.338 173.217C305.513 173.354 304.713 173.711 303.992 174.091" stroke="#1B1B1B" stroke-width="1.5" stroke-miterlimit="10" stroke-linecap="round" stroke-linejoin="round"/>
<path d="M298.836 194.426C299.048 198.495 292.514 202.684 287.707 203.741L287.486 200.344C290.832 199.878 296.502 197.094 298.836 194.426Z" fill="#1B1B1B"/>
<path d="M286.474 183.664C284.969 186.353 280.5 188.108 277.597 187.107" stroke="#1B1B1B" stroke-width="1.5" stroke-miterlimit="10" stroke-linecap="round" stroke-linejoin="round"/>
<path d="M265.585 168.006C266.275 167.755 267.007 167.624 267.749 167.664C270.07 167.791 273.227 169.411 273.407 172.927C271.052 175.103 267.562 175.839 264.852 174.141C264.762 171.006 265.263 169.206 265.585 168.006Z" fill="white"/>
<path d="M266.404 172.444C267.025 173.947 268.769 174.616 270.229 174.064C271.819 173.464 272.664 171.666 272.116 170.047C271.641 168.639 270.142 167.827 268.787 168.017C267.159 168.244 265.881 170.19 266.239 171.906C266.279 172.096 266.335 172.275 266.404 172.444Z" fill="#1B1B1B"/>
<path d="M272.336 169.985L269.239 171.134L272.567 171.763L272.336 169.985Z" fill="white"/>
<path d="M273.407 172.928C272.243 169.865 270.133 168.882 268.108 168.41C267.092 168.174 266.179 168.138 265.298 168.355" stroke="#1B1B1B" stroke-width="1.5" stroke-miterlimit="10" stroke-linecap="round" stroke-linejoin="round"/>
<path d="M262.714 166.791C263.027 167.697 263.85 168.377 264.75 168.471" stroke="#1B1B1B" stroke-width="1.5" stroke-miterlimit="10" stroke-linecap="round" stroke-linejoin="round"/>
<path d="M272.088 161.328C270.455 161.419 268.109 162.161 266.607 164.3" stroke="#1B1B1B" stroke-width="1.5" stroke-miterlimit="10" stroke-linecap="round" stroke-linejoin="round"/>
<path d="M292.896 169.499C291.814 167.401 289.461 166.142 287.151 166.426C284.843 166.709 281.788 168.538 281.815 172.06C283.286 175.302 290.684 174.815 292.896 169.499Z" fill="white"/>
<path d="M285.298 171.291C286.06 172.943 287.995 173.603 289.62 172.762C291.244 171.921 291.944 169.899 291.181 168.247C290.419 166.594 288.484 165.934 286.859 166.775C285.235 167.615 284.535 169.638 285.298 171.291Z" fill="#1B1B1B"/>
<path d="M291.408 168.152L288.24 169.769L291.853 170.015L291.408 168.152Z" fill="white"/>
<path d="M281.815 172.061C282.796 168.925 284.843 167.803 286.836 167.195C289.021 166.529 290.778 166.855 292.843 168.658" stroke="#1B1B1B" stroke-width="1.5" stroke-miterlimit="10" stroke-linecap="round" stroke-linejoin="round"/>
<path d="M294.774 166.792C294.515 167.718 293.733 168.452 292.84 168.607" stroke="#1B1B1B" stroke-width="1.5" stroke-miterlimit="10" stroke-linecap="round" stroke-linejoin="round"/>
<path d="M283.09 159.175C287.1 158.242 289.742 158.573 292.964 161.134" stroke="#1B1B1B" stroke-width="1.5" stroke-miterlimit="10" stroke-linecap="round" stroke-linejoin="round"/>
<path d="M276.318 180.657C273.742 179.86 272.064 177.689 273.125 174.983C274.077 172.557 276.627 170.872 276.627 165.379" fill="#D48983"/>
<path d="M276.318 180.657C273.742 179.86 272.064 177.689 273.125 174.983C274.077 172.557 276.627 170.872 276.627 165.379" stroke="#1B1B1B" stroke-width="1.5" stroke-miterlimit="10" stroke-linecap="round" stroke-linejoin="round"/>
<path d="M301.919 182.738C302.487 184.535 304.311 185.501 305.993 184.894C307.675 184.287 308.579 182.339 308.011 180.541C307.443 178.744 305.619 177.779 303.937 178.385C302.254 178.992 301.351 180.94 301.919 182.738Z" fill="#063137"/>
<path d="M308.95 178.919C309.315 180.075 310.488 180.696 311.569 180.305C312.651 179.915 313.231 178.662 312.866 177.506C312.501 176.35 311.328 175.729 310.246 176.12C309.167 176.511 308.586 177.763 308.95 178.919Z" fill="#063137"/>
<path d="M306.583 294.811C289.346 297.031 281.277 295.864 277.445 294.215C271.707 291.747 271.99 286.481 272.785 282.188C273.58 277.895 267.775 262.433 266.543 248.567C265.251 234.009 275.691 211.299 275.691 211.299L286.235 209.133C286.235 209.133 281.563 218.721 291.61 218.846C305.021 219.013 312.286 205.936 312.286 205.936C312.286 205.936 321.998 206.59 328.298 208.679C336.311 211.336 337.119 225.427 336.861 239.513C336.604 253.598 335.456 269.428 337.795 273.811C340.135 278.195 341.797 283.17 337.095 286.482C332.392 289.795 323.819 292.591 306.583 294.811Z" fill="white" stroke="#1B1B1B" stroke-width="1.5" stroke-miterlimit="10" stroke-linecap="round" stroke-linejoin="round"/>
<path d="M263.35 323.024C244.141 342.064 232.24 358.867 227.244 368.78C222.248 378.691 217.527 398.279 236.402 410.057C251.961 419.766 296.829 427.556 313.891 430.713C341.854 435.887 355.495 439.753 355.495 439.753C355.495 439.753 361.427 427.531 356.817 413.942C344.718 408.973 305.173 382.992 289.289 379.582L320.727 367.379V323.023H263.35V323.024Z" fill="#D48983"/>
<path d="M330.643 417.915C327.936 427.294 328.38 435.198 330.97 435.844C335.272 436.919 339.465 437.96 342.342 438.768C344.219 439.295 345.33 440.006 349.564 441.473C353.797 442.939 366.417 448.793 371.127 452.919C375.837 457.045 377.24 461.7 380.523 464.893C383.808 468.086 386.547 469.428 389.037 467.826C391.528 466.224 396.834 450.125 394.459 443.606C392.084 437.089 391.029 432.643 385.675 428.544C380.321 424.445 375.962 422.716 373.348 417.925C370.733 413.135 369.488 409.808 365.378 409.01C361.269 408.212 351.482 409.595 351.482 409.595L347.949 407.65C347.949 407.65 343.249 404.992 341.491 404.193C337.746 402.492 333.421 408.292 330.643 417.915Z" fill="#1B1B1B" stroke="#1B1B1B" stroke-width="1.5" stroke-miterlimit="10" stroke-linecap="round" stroke-linejoin="round"/>
<path d="M347.03 442.449C352.147 443.945 366.251 451.23 369.974 453.944C378.57 460.21 377.34 467.49 383.955 470.141C387.656 471.623 390.506 470.738 390.506 470.738C393.606 465.993 397.973 452.995 396.289 443.762C393.635 429.204 383.754 425.215 378.503 420.537C373.253 415.858 373.528 408.868 367.998 404.548C361.64 402.836 356.731 405.048 353.194 404.853C349.812 404.665 348.506 404.949 347.951 407.653L351.484 409.598C353.756 412.379 354.968 417.447 352.2 419.787C343.87 419.552 341.911 440.951 347.03 442.449Z" fill="#569673"/>
<path d="M401.381 440.807C398.877 426.19 388.288 425.724 383.038 421.046C378.399 416.912 379.795 411.603 376.213 407.082C375.362 406.007 374.235 405.376 373.038 405.18L367.997 404.548C373.526 408.868 373.252 415.858 378.502 420.537C383.753 425.216 393.784 429.147 396.288 443.762C397.9 453.174 390.94 470.021 390.94 470.021C390.94 470.021 393.394 470.22 394.865 469.371C397.792 467.681 399.697 461.762 400.646 458.143C402.389 451.506 402.283 446.076 401.381 440.807Z" fill="white" stroke="#1B1B1B" stroke-width="1.5" stroke-miterlimit="10" stroke-linecap="round" stroke-linejoin="round"/>
<path d="M394.462 437.294C391.472 437.258 388.051 436.497 385.629 433.109C383.434 430.04 378.941 425.919 375.724 424.159C371.13 421.646 367.667 419.742 365.858 416.857C362.602 411.669 363.573 408.091 359.061 404.193" stroke="#1B1B1B" stroke-width="1.5" stroke-miterlimit="10" stroke-linecap="round" stroke-linejoin="round"/>
<path d="M380.526 438.105C378.832 440.807 373.733 451.406 374.936 458.213" stroke="#1B1B1B" stroke-width="1.5" stroke-miterlimit="10" stroke-linecap="round" stroke-linejoin="round"/>
<path d="M371.237 433.11C370.624 440.13 370.104 447.237 370.365 454.212" stroke="#1B1B1B" stroke-width="1.5" stroke-miterlimit="10" stroke-linecap="round" stroke-linejoin="round"/>
<path d="M375.723 435.844C372.442 440.362 369.616 446.609 366.534 451.368" stroke="#1B1B1B" stroke-width="1.5" stroke-miterlimit="10" stroke-linecap="round" stroke-linejoin="round"/>
<path d="M369.173 430.131C364.054 436.568 361.511 442.438 359.06 447.403" stroke="#1B1B1B" stroke-width="1.5" stroke-miterlimit="10" stroke-linecap="round" stroke-linejoin="round"/>
<path d="M363.887 429.266C362.77 435.635 363.38 444.333 363.879 450.685" stroke="#1B1B1B" stroke-width="1.5" stroke-miterlimit="10" stroke-linecap="round" stroke-linejoin="round"/>
<path d="M356.818 423.461C355.213 429.447 355.33 441.366 355.742 446.942" stroke="#1B1B1B" stroke-width="1.5" stroke-miterlimit="10" stroke-linecap="round" stroke-linejoin="round"/>
<path d="M361.577 426.916C359.375 429.002 353.072 441.197 351.349 444.235" stroke="#1B1B1B" stroke-width="1.5" stroke-miterlimit="10" stroke-linecap="round" stroke-linejoin="round"/>
<path d="M290.672 379.803C283.04 378.033 272.724 376.718 264.366 379.893" stroke="#1B1B1B" stroke-width="1.5" stroke-miterlimit="10" stroke-linecap="round" stroke-linejoin="round"/>
<path d="M240.177 349.053C251.136 348.382 264.623 349.041 278.854 357.545C293.085 366.048 297.09 376.671 297.09 376.671L324.692 366.162V320.478H262.718C262.718 320.478 251.696 331.098 245.72 338.343C239.742 345.587 235.622 350.269 237.496 352.618L240.177 349.053Z" fill="#1B1B1B"/>
<path d="M329.826 377.442C318.359 377.442 307.679 371.346 296.22 359.047C285.706 347.763 283.189 343.524 283.189 343.524C283.189 343.524 280.685 358.864 276.864 373.218C273.041 387.573 267.234 403.322 265.747 417.632C264.261 431.942 269.039 451.829 254.068 453.968C239.097 456.106 231.02 456.192 232.379 444.838C233.738 433.484 240.343 424.64 243.064 405.828C245.786 387.017 246.605 348.024 247.686 325.49C248.605 306.297 248.842 292.945 261.274 284.749C272.666 277.238 294.839 290.473 301.21 293.479L311.528 296.93L338.16 288.112C338.16 288.112 349.627 304.322 354.723 318.952C358.976 331.162 368.667 371.304 343.986 376.855C338.77 378.028 335.466 377.442 329.826 377.442Z" fill="#D48983"/>
<path d="M266.265 417.373C266.615 414.225 268.113 408.504 268.976 405.828C269.839 403.153 273.08 397.412 270.041 396.463L269.222 399.729C269.222 399.729 261.458 401.968 253.201 399.992C244.943 398.017 244.243 395.28 244.243 395.28L244.522 391.955C244.522 391.955 241.493 392.759 241.247 398.087C241.001 403.416 238.95 417.478 237.613 424.183C236.275 430.887 232.557 442.139 231.448 446.222C230.339 450.304 229.486 454.108 241.837 455.426C254.187 456.745 262.718 453.864 264.368 447.405C266.018 440.945 265.895 436.806 266.018 431.172C266.141 425.537 265.648 422.904 266.265 417.373Z" fill="#1B1B1B" stroke="#1B1B1B" stroke-width="1.5" stroke-miterlimit="10" stroke-linecap="round" stroke-linejoin="round"/>
<path d="M232.379 444.839C233.738 433.486 240.343 424.641 243.064 405.83C245.786 387.019 246.605 348.025 247.685 325.492" stroke="#1B1B1B" stroke-width="1.5" stroke-miterlimit="10" stroke-linecap="round" stroke-linejoin="round"/>
<path d="M281.769 307.872C284.345 316.387 284.656 336.75 282.681 348.583C280.965 358.859 277.463 372.551 272.012 389.966C264.669 413.426 263.8 423.705 263.8 423.705" stroke="#1B1B1B" stroke-width="1.5" stroke-miterlimit="10" stroke-linecap="round" stroke-linejoin="round"/>
<path d="M232.217 437.572C230.854 441.271 228.247 445.344 227.63 449.181C227.013 453.018 226.942 454.336 230.544 456.765C232.454 458.054 234.88 458.677 237.284 459.086C244.351 460.29 251.924 460.257 258.731 458.264C261.111 457.566 263.362 456.251 265.062 454.691C267.91 452.081 267.815 450.651 267.983 447.118C268.135 443.923 267.635 439.868 267.584 436.67C267.478 430.099 268.717 430.458 267.375 417.503C267.303 418.133 266.181 422.015 263.915 422.961C262.657 423.485 262.12 419.768 259.853 417.688C257.912 415.908 254.477 414.408 251.614 414.13C246.614 413.644 242.817 414.015 239.307 416.303C236.047 418.426 236.215 421.372 235.813 424.466C235.031 430.502 234.257 432.05 232.217 437.572Z" fill="#569673"/>
<path d="M236.481 441.874C243.707 440.117 251.574 440.266 258.698 442.291" stroke="#1B1B1B" stroke-width="1.5" stroke-miterlimit="10" stroke-linecap="round" stroke-linejoin="round"/>
<path d="M236.481 439.172C241.485 437.013 248.712 435.393 258.998 435.323" stroke="#1B1B1B" stroke-width="1.5" stroke-miterlimit="10" stroke-linecap="round" stroke-linejoin="round"/>
<path d="M237.613 434.677C241.808 435.323 251.379 436.202 258.698 439.172" stroke="#1B1B1B" stroke-width="1.5" stroke-miterlimit="10" stroke-linecap="round" stroke-linejoin="round"/>
<path d="M238.019 432.476C242.655 430.298 249.342 428.654 258.847 428.545" stroke="#1B1B1B" stroke-width="1.5" stroke-miterlimit="10" stroke-linecap="round" stroke-linejoin="round"/>
<path d="M239.089 427.977C242.962 428.607 251.803 429.451 258.551 432.394" stroke="#1B1B1B" stroke-width="1.5" stroke-miterlimit="10" stroke-linecap="round" stroke-linejoin="round"/>
<path d="M239.368 425.857C243.71 423.667 249.965 422 258.847 421.862" stroke="#1B1B1B" stroke-width="1.5" stroke-miterlimit="10" stroke-linecap="round" stroke-linejoin="round"/>
<path d="M240.388 421.357C244.004 421.975 252.262 422.791 258.554 425.712" stroke="#1B1B1B" stroke-width="1.5" stroke-miterlimit="10" stroke-linecap="round" stroke-linejoin="round"/>
<path d="M266.511 425.033C266.511 425.033 265.584 426.445 264.887 427.461C263.466 429.529 263.784 431.961 263.851 434.346C263.917 436.731 264.186 439.154 263.533 441.476C263.158 442.807 262.57 444.096 262.293 445.437C261.68 448.397 264.888 454.553 264.888 454.553" stroke="#1B1B1B" stroke-width="1.5" stroke-miterlimit="10" stroke-linecap="round" stroke-linejoin="round"/>
<path d="M233.726 434.171C233.648 436.189 233.568 438.207 233.489 440.225C233.448 441.278 233.407 442.336 233.181 443.372C232.865 444.837 232.192 446.227 231.56 447.617C230.097 450.834 228.814 454.24 229.257 457.664" stroke="#1B1B1B" stroke-width="1.5" stroke-miterlimit="10" stroke-linecap="round" stroke-linejoin="round"/>
<path d="M268.121 458.736C267.934 460.678 265.515 465.872 252.793 467.421C242.684 468.652 234.231 466.959 229.904 463.953C226.922 461.87 226.64 456.761 227.301 451.307L227.377 451.285C226.922 456.508 232.693 458.304 237.288 459.088C244.35 460.294 251.976 460.469 258.728 458.267C266.51 455.729 267.75 451.175 267.977 447.121C267.999 446.73 268.008 446.328 268.005 445.917C268.382 451.702 268.525 454.54 268.121 458.736Z" fill="white" stroke="#1B1B1B" stroke-width="1.5" stroke-miterlimit="10" stroke-linecap="round" stroke-linejoin="round"/>
<path d="M293.013 289.368C299.488 295.037 306.785 314.94 304.097 331.356C301.409 347.771 290.496 352.678 290.496 352.678L286.76 348.203C286.76 348.203 284.531 349.97 289.762 355.559C296.909 363.195 302.521 371.89 314.468 377.442C319.542 379.799 347.115 381.423 354.99 374.857C362.863 368.291 369.477 352.703 363.889 332.128C357.133 307.259 338.859 284.75 338.859 284.75C332.17 292.217 306.584 294.811 306.584 294.811L293.013 289.368Z" fill="#063137"/>
<path d="M337.795 273.81C340.136 278.193 341.797 283.168 337.095 286.481C332.392 289.793 323.819 292.591 306.583 294.811" stroke="#1B1B1B" stroke-width="1.5" stroke-miterlimit="10" stroke-linecap="round" stroke-linejoin="round"/>
<path d="M293.013 289.368C308.439 296.107 322.374 299.923 335.012 311.54C342.689 318.597 347.199 327.603 348.438 338.342" stroke="#1B1B1B" stroke-width="1.5" stroke-miterlimit="10" stroke-linecap="round" stroke-linejoin="round"/>
<path d="M344.278 311.686C336.377 306.318 327.517 303.095 313.89 297.999" stroke="#1B1B1B" stroke-width="1.5" stroke-miterlimit="10" stroke-linecap="round" stroke-linejoin="round"/>
<path d="M306.664 312.426C306.775 311.119 307.683 309.945 308.565 309.108C310.368 307.396 312.454 306.068 314.598 304.907C315.677 304.322 316.784 303.797 317.876 303.24C318.611 302.864 319.437 302.136 318.44 301.469C316.56 300.211 314.295 299.685 312.115 299.248C310.408 298.905 308.551 298.657 307.218 297.405C305.688 295.968 306.444 294.273 308.043 293.963C313.407 292.927 319.501 294.607 324.804 295.953C330.568 297.416 337.016 299.043 342.187 294.915C350.748 288.08 355.851 273.512 355.842 273.501C352.13 268.486 340.697 256.576 336.023 253.407C329.986 249.315 327.509 243.839 325.308 236.511C322.43 226.933 322.24 218.27 326.177 209.744C340.847 208.645 347.649 218.424 362.741 236.071C367.352 241.461 373.761 249.871 378.358 256.374C384.731 265.389 388.739 271.458 382.09 282.255C376.974 290.563 363.265 304.969 354.249 311.752C351.216 314.034 347.795 315.829 344.16 316.695C339.538 317.796 334.805 316.032 330.221 317.206C328.456 317.658 327.044 317.923 325.317 318.525C321.965 319.694 319.986 321.027 317.937 320.243C317.061 319.907 315.773 318.769 316.627 316.702C315.402 317.679 313.924 318.253 312.445 317.627C311.37 317.173 310.073 316.017 311.392 313.943C310.675 314.521 309.8 314.921 308.903 314.896C307.542 314.858 306.539 313.895 306.664 312.426Z" fill="#D48983"/>
<path d="M336.521 253.97C330.484 249.878 327.503 243.839 325.302 236.513C322.424 226.934 322.729 217.785 326.667 209.261" stroke="#1B1B1B" stroke-width="1.5" stroke-miterlimit="10" stroke-linecap="round" stroke-linejoin="round"/>
<path d="M323.075 307.14C318.133 308.304 314.831 309.983 311.385 313.943" stroke="#1B1B1B" stroke-width="1.5" stroke-miterlimit="10" stroke-linecap="round" stroke-linejoin="round"/>
<path d="M326.113 311.955C321.284 312.869 318.703 314.153 316.62 316.702" stroke="#1B1B1B" stroke-width="1.5" stroke-miterlimit="10" stroke-linecap="round" stroke-linejoin="round"/>
<path d="M363.253 267.643C360.515 267.967 357.16 271.305 355.837 273.502" stroke="#1B1B1B" stroke-width="1.5" stroke-miterlimit="10" stroke-linecap="round" stroke-linejoin="round"/>
<path d="M409.94 326.372C409.567 325.204 409.184 323.992 409.043 322.76C408.938 321.83 408.986 320.858 409.397 320.122C410.356 318.403 413.243 318.236 415.08 317.928C417.943 317.447 420.831 317.122 423.726 316.986C425.92 316.882 428.644 316.511 430.67 317.624C430.732 317.658 430.787 317.707 430.848 317.742C431.055 317.868 430.513 317.375 430.821 317.715C430.942 317.848 431.07 317.976 431.193 318.108C431.504 318.447 431.146 317.961 431.314 318.279C431.434 318.509 431.571 318.725 431.686 318.959C431.757 319.105 431.935 319.515 431.932 319.508C431.942 319.534 432.102 320.003 432.163 320.192C432.414 320.978 432.613 321.78 432.8 322.585C433.445 325.376 437.479 324.194 436.833 321.398C436.27 318.964 435.537 316.14 433.668 314.455C431.325 312.342 427.97 312.39 425.072 312.466C421.519 312.558 417.981 312.964 414.468 313.535C411.452 314.025 408.109 314.503 406.152 317.305C404.048 320.315 404.862 324.286 405.907 327.559C406.271 328.701 407.344 329.452 408.479 329.119C409.52 328.815 410.305 327.52 409.94 326.372Z" fill="#1B1B1B"/>
<path d="M477.271 391.82C475.618 382.601 474.079 376.426 471.653 347.231C470.397 332.128 469.073 319.734 435.232 322.576C399.938 325.54 384.748 332.583 382.728 338.272C380.709 343.96 382.728 359.782 383.829 374.527C384.931 389.271 390.217 434.161 395.009 440.747L483.676 420.547C483.677 413.396 478.923 401.039 477.271 391.82Z" fill="white" stroke="#1B1B1B" stroke-width="1.5" stroke-miterlimit="10" stroke-linecap="round" stroke-linejoin="round"/>
<path d="M389.178 345.03C389.641 361.563 393.324 403.26 398.971 422.943" stroke="#1B1B1B" stroke-width="1.5" stroke-miterlimit="10" stroke-linecap="round" stroke-linejoin="round"/>
<path d="M481.264 417.233C476.912 417.233 407.296 417.233 401.431 417.233C395.568 417.233 393.335 420.515 393.335 426.352C393.335 432.188 392.498 436.923 395.011 440.746C397.524 444.57 398.501 447.344 402.37 447.344L480.785 431.277C483.222 424.346 485.616 417.233 481.264 417.233Z" fill="#063137" stroke="#063137" stroke-width="1.5" stroke-miterlimit="10" stroke-linecap="round" stroke-linejoin="round"/>
<path d="M477.862 425.629H402.369C400.492 425.629 398.971 427.254 398.971 429.259V443.712C398.971 445.717 400.492 447.343 402.369 447.343H472.777C474.193 447.343 475.46 446.405 475.957 444.989L481.042 430.537C481.878 428.163 480.236 425.629 477.862 425.629Z" fill="#1B1B1B" stroke="#1B1B1B" stroke-width="1.5" stroke-miterlimit="10" stroke-linecap="round" stroke-linejoin="round"/>
<path d="M388.389 332.879C396.69 336.17 397.097 346.089 400.379 351.533C404.414 358.229 411.064 359.986 433.906 356.668C453.575 353.811 462.287 351.184 464.033 344.011C465.622 337.474 462.482 332.651 459.272 324.292C436.902 317.646 400.176 325.511 388.389 332.879Z" fill="#063137" stroke="#1B1B1B" stroke-width="1.5" stroke-miterlimit="10" stroke-linecap="round" stroke-linejoin="round"/>
<path d="M408.656 381.823L460.55 376.518C463.944 376.171 466.984 378.755 467.419 382.367C468.14 388.353 469.389 394.626 471.332 401.049C472.652 405.409 469.738 409.905 465.449 409.983L411.626 410.968C408.596 411.023 405.942 408.783 405.319 405.615C404.268 400.278 403.478 394.839 402.95 389.183C402.605 385.474 405.183 382.178 408.656 381.823Z" fill="#1B1B1B" stroke="#1B1B1B" stroke-width="1.5" stroke-miterlimit="10" stroke-linecap="round" stroke-linejoin="round"/>
<path d="M409.808 377.677L461.703 372.372C465.096 372.025 468.136 374.608 468.571 378.221C469.293 384.207 470.541 390.48 472.484 396.902C473.805 401.262 470.89 405.758 466.601 405.837L412.778 406.822C409.749 406.877 407.094 404.637 406.471 401.47C405.42 396.132 404.63 390.694 404.103 385.038C403.757 381.328 406.336 378.031 409.808 377.677Z" fill="white" stroke="#1B1B1B" stroke-width="1.5" stroke-miterlimit="10" stroke-linecap="round" stroke-linejoin="round"/>
<path d="M462.627 372.357L408.247 377.599C409.504 384.766 408.247 389.582 419.996 388.677C434.844 387.533 444.356 386.942 454.302 385.857C464.249 384.773 465.067 382.714 462.627 372.357Z" fill="#063137" stroke="#1B1B1B" stroke-width="1.5" stroke-miterlimit="10" stroke-linecap="round" stroke-linejoin="round"/>
<path d="M436.954 391.367C438.534 391.243 443.681 391.179 445.137 389.706C445.316 389.526 445.438 389.324 445.492 389.098C445.593 388.677 445.555 388.234 445.518 387.8C445.443 386.951 445.361 386.074 444.971 385.33C444.081 383.636 442.21 383.991 440.694 383.969C438.259 383.933 435.902 384.078 433.505 384.651C432.566 384.876 431.568 385.199 430.986 386.018C430.161 387.177 430.491 388.834 430.991 390.188C431.669 392.033 435.523 391.48 436.954 391.367Z" fill="#1B1B1B" stroke="#1B1B1B" stroke-width="1.5" stroke-miterlimit="10" stroke-linecap="round" stroke-linejoin="round"/>
<path d="M427.288 344.98L430.73 364.087L439.643 363.461L435.814 343.62L427.288 344.98Z" fill="#063137" stroke="#1B1B1B" stroke-width="1.5" stroke-miterlimit="10" stroke-linecap="round" stroke-linejoin="round"/>
<path d="M427.288 344.98C427.288 344.98 428.639 356.829 433.335 358.973C438.032 361.119 442.57 359.262 442.57 359.262C442.57 359.262 437.447 353.807 435.814 343.62L427.288 344.98Z" fill="#063137" stroke="#1B1B1B" stroke-width="1.5" stroke-miterlimit="10" stroke-linecap="round" stroke-linejoin="round"/>
<path d="M434.671 370.632C436.148 370.431 440.977 370.094 442.272 368.634C442.432 368.455 442.538 368.258 442.578 368.044C442.652 367.643 442.596 367.229 442.54 366.826C442.431 366.033 442.312 365.214 441.91 364.537C440.995 362.994 439.257 363.429 437.834 363.49C435.546 363.586 433.34 363.849 431.118 364.516C430.248 364.778 429.325 365.134 428.818 365.934C428.099 367.065 428.487 368.604 429.019 369.848C429.743 371.539 433.334 370.814 434.671 370.632Z" fill="#1B1B1B" stroke="#1B1B1B" stroke-width="1.5" stroke-miterlimit="10" stroke-linecap="round" stroke-linejoin="round"/>
<path d="M510.22 289.197V284.121H451.544C447.79 284.121 444.746 287.373 444.746 291.384V298.238C444.746 302.249 447.79 305.501 451.544 305.501H510.22V300.424V289.197Z" fill="#1B1B1B" stroke="#1B1B1B" stroke-width="1.5" stroke-miterlimit="10" stroke-linecap="round" stroke-linejoin="round"/>
<path d="M525.641 289.053H469.034V300.424H525.641C520.691 300.423 520.691 289.053 525.641 289.053Z" fill="white" stroke="#1B1B1B" stroke-width="1.5" stroke-miterlimit="10" stroke-linecap="round" stroke-linejoin="round"/>
<path d="M529.423 289.197V284.121H470.747C466.992 284.121 463.949 287.373 463.949 291.384V298.238C463.949 302.249 466.992 305.501 470.747 305.501H529.423V300.424H469.034C467.849 296.713 467.866 292.971 469.034 289.197H529.423Z" fill="#569673" stroke="#1B1B1B" stroke-width="1.5" stroke-miterlimit="10" stroke-linecap="round" stroke-linejoin="round"/>
<path d="M503.604 293.125H522.075" stroke="#1B1B1B" stroke-width="1.5" stroke-miterlimit="10" stroke-linecap="round" stroke-linejoin="round"/>
<path d="M503.604 296.845H522.075" stroke="#1B1B1B" stroke-width="1.5" stroke-miterlimit="10" stroke-linecap="round" stroke-linejoin="round"/>
<path d="M521.706 267.21V262.133H463.03C459.276 262.133 456.232 265.385 456.232 269.397V276.25C456.232 280.262 459.276 283.514 463.03 283.514H521.706V278.437V267.21Z" fill="#1B1B1B" stroke="#1B1B1B" stroke-width="1.5" stroke-miterlimit="10" stroke-linecap="round" stroke-linejoin="round"/>
<path d="M537.127 267.065H480.52V278.437H537.127C532.178 278.437 532.178 267.065 537.127 267.065Z" fill="white" stroke="#1B1B1B" stroke-width="1.5" stroke-miterlimit="10" stroke-linecap="round" stroke-linejoin="round"/>
<path d="M540.909 267.21V262.133H482.233C478.479 262.133 475.435 265.385 475.435 269.397V276.25C475.435 280.262 478.479 283.514 482.233 283.514H540.909V278.437H480.52C479.335 274.725 479.352 270.983 480.52 267.21H540.909Z" fill="#063137" stroke="#1B1B1B" stroke-width="1.5" stroke-miterlimit="10" stroke-linecap="round" stroke-linejoin="round"/>
<path d="M515.089 271.138H533.56" stroke="#1B1B1B" stroke-width="1.5" stroke-miterlimit="10" stroke-linecap="round" stroke-linejoin="round"/>
<path d="M515.089 274.857H533.56" stroke="#1B1B1B" stroke-width="1.5" stroke-miterlimit="10" stroke-linecap="round" stroke-linejoin="round"/>
<path d="M251.221 150.491C247.973 149.598 242.571 146.132 241.878 141.775L241.875 141.777C241.88 141.751 241.883 141.729 241.888 141.702C247.223 135.445 250.502 127.152 250.502 118.02C250.502 98.5671 235.743 82.7987 217.537 82.7987C199.332 82.7987 184.574 98.5685 184.574 118.02C184.574 137.472 199.332 153.242 217.537 153.242C222.968 153.242 228.077 151.813 232.594 149.328C236.649 152.006 240.885 153.157 245.671 153.049C251.225 152.927 252.872 150.945 251.221 150.491Z" fill="white" stroke="#1B1B1B" stroke-width="1.5" stroke-miterlimit="10" stroke-linecap="round" stroke-linejoin="round"/>
<path d="M215.289 125.735L202.312 119.346C202.312 123.136 202.312 128.242 202.312 128.242C202.312 136.623 234.095 136.623 234.095 128.242C234.095 128.242 234.095 123.136 234.095 119.346L221.118 125.735C219.511 126.535 216.896 126.535 215.289 125.735ZM241.552 109.871L221.637 100.062C219.741 99.1286 216.667 99.1286 214.771 100.062L194.855 109.871C192.959 110.806 192.959 112.319 194.855 113.252L196.805 114.213V123.383C196.166 123.619 195.701 124.25 195.701 125.012V127.795C195.701 128.757 196.431 129.537 197.331 129.537C198.233 129.537 198.962 128.757 198.962 127.795V125.012C198.962 124.25 198.497 123.619 197.858 123.383V114.733L214.77 123.062C216.665 123.995 219.739 123.995 221.635 123.062L241.551 113.252C243.447 112.319 243.447 110.806 241.552 109.871Z" fill="#04C45C"/>
</svg>
