<svg width="1512" height="982" viewBox="0 0 1512 982" fill="none" xmlns="http://www.w3.org/2000/svg">
<rect width="1512" height="982" fill="url(#paint0_linear_81_406)"/>
<path d="M846.5 631C940.5 350 244.667 385 0 396V982H1514.5V762C882 903.5 735.978 961.391 846.5 631Z" fill="url(#paint1_linear_81_406)"/>
<path d="M133.644 781.941C274.397 857.14 502.605 857.142 643.358 781.942C784.113 706.739 784.113 584.818 643.358 509.616C502.603 434.415 274.397 434.415 133.642 509.615C-7.11138 584.816 -7.11138 706.741 133.644 781.941Z" fill="#F1F1F1"/>
<path d="M311.417 716.626C349.342 735.114 410.828 735.114 448.752 716.626C486.677 698.143 486.677 668.171 448.752 649.684C410.828 631.201 349.342 631.201 311.417 649.684C273.493 668.171 273.493 698.143 311.417 716.626Z" fill="#B4D0D4"/>
<path d="M639.874 670.863L504.329 750.899C502.327 752.08 499.083 752.08 497.081 750.899L327.529 650.788C325.527 649.607 325.527 647.689 327.529 646.508L463.08 566.472C465.082 565.291 468.326 565.291 470.328 566.472L639.874 666.583C641.875 667.766 641.875 669.681 639.874 670.863Z" fill="#B4D0D4"/>
<path d="M677.601 230.901V267.656C677.601 267.656 662.828 274.723 635.695 274.723C608.574 274.723 593.828 267.644 593.828 267.644V231.606L622.087 149.822C621.715 152.385 623.188 155.017 626.503 156.97C631.781 160.089 636.866 160.442 642.794 158.014C643.551 157.716 644.252 157.364 644.917 156.97C648.43 154.895 649.877 152.06 649.241 149.362L677.601 230.901Z" fill="#F5F5F5"/>
<path opacity="0.5" d="M677.601 230.901V267.656C677.601 267.656 662.828 274.723 635.695 274.723C608.574 274.723 593.828 267.644 593.828 267.644V231.606L622.087 149.822C621.715 152.385 623.188 155.017 626.503 156.97C631.781 160.089 636.866 160.442 642.794 158.014C643.551 157.716 644.252 157.364 644.917 156.97C648.43 154.895 649.877 152.06 649.241 149.362L677.601 230.901Z" fill="#EEEEEE"/>
<path d="M674.356 488.547C672.312 491.437 669.305 494.147 665.323 496.499C648.959 506.161 622.428 506.161 606.065 496.499C602.081 494.147 599.076 491.437 597.032 488.547C595.033 485.72 593.965 482.721 593.821 479.708V497.386V498.793C594.113 504.888 598.187 510.931 606.065 515.584C622.428 525.247 648.959 525.247 665.323 515.584C673.505 510.753 677.595 504.422 677.595 498.089V479.004C677.595 482.253 676.51 485.501 674.356 488.547Z" fill="#EEEEEE"/>
<path d="M674.356 469.461C672.312 472.351 669.305 475.061 665.323 477.414C664.365 477.979 663.366 478.504 662.343 479.004C646.905 486.537 624.484 486.537 609.046 479.004C608.023 478.504 607.024 477.979 606.066 477.414C602.082 475.061 599.077 472.353 597.033 469.461C595.035 466.635 593.967 463.635 593.823 460.622V478.3V479.708C593.967 482.721 595.035 485.72 597.033 488.547C599.077 491.437 602.084 494.147 606.066 496.499C622.43 506.161 648.961 506.161 665.324 496.499C669.308 494.147 672.313 491.438 674.357 488.547C676.512 485.501 677.596 482.253 677.596 479.004V459.919C677.595 463.168 676.51 466.416 674.356 469.461Z" fill="#455A64"/>
<path d="M674.356 450.378C672.312 453.268 669.305 455.978 665.323 458.33C664.365 458.895 663.366 459.42 662.343 459.92C646.905 467.453 624.484 467.453 609.046 459.92C608.023 459.42 607.024 458.895 606.066 458.33C602.082 455.978 599.077 453.268 597.033 450.378C595.035 447.551 593.967 444.552 593.823 441.539V459.217V460.624C593.967 463.637 595.035 466.637 597.033 469.463C599.077 472.353 602.084 475.063 606.066 477.415C607.024 477.98 608.023 478.506 609.046 479.006C624.484 486.539 646.907 486.539 662.343 479.006C663.366 478.506 664.365 477.98 665.323 477.415C669.307 475.063 672.312 472.355 674.356 469.463C676.51 466.417 677.595 463.17 677.595 459.92V440.835C677.595 444.084 676.51 447.33 674.356 450.378Z" fill="#EEEEEE"/>
<path d="M593.821 231.606V440.13V441.537C593.965 444.55 595.033 447.549 597.032 450.376C599.076 453.266 602.082 455.976 606.065 458.328C607.022 458.893 608.022 459.419 609.045 459.919C612.91 461.805 617.212 463.218 621.734 464.159L614.159 242.921L593.821 231.606Z" fill="#F5F5F5"/>
<path d="M657.241 242.919L649.666 464.158C654.182 463.216 658.481 461.804 662.343 459.919C663.366 459.419 664.365 458.893 665.323 458.328C669.307 455.976 672.312 453.267 674.356 450.376C676.51 447.33 677.595 444.083 677.595 440.833V230.903L657.241 242.919Z" fill="#F5F5F5"/>
<path d="M593.821 231.606V440.13V441.537C593.965 444.55 595.033 447.549 597.032 450.376C599.076 453.266 602.082 455.976 606.065 458.328C607.022 458.893 608.022 459.419 609.045 459.919C612.91 461.805 617.212 463.218 621.734 464.159L614.159 242.921L593.821 231.606Z" fill="#37474F"/>
<path d="M657.241 242.919L649.666 464.158C654.182 463.216 658.481 461.804 662.343 459.919C663.366 459.419 664.365 458.893 665.323 458.328C669.307 455.976 672.312 453.267 674.356 450.376C676.51 447.33 677.595 444.083 677.595 440.833V230.903L657.241 242.919Z" fill="#37474F"/>
<path d="M614.16 242.921V462.031C616.589 462.892 619.119 463.615 621.735 464.159C626.245 465.097 630.972 465.568 635.7 465.568C640.427 465.568 645.154 465.097 649.664 464.158C652.282 463.611 654.812 462.889 657.239 462.028V242.919L614.16 242.921Z" fill="#455A64"/>
<path d="M644.913 156.97C644.25 157.364 643.547 157.716 642.791 158.014C636.863 160.442 631.777 160.089 626.499 156.97C623.185 155.017 621.712 152.385 622.083 149.822L631.727 122.208C632.47 120.391 634.076 119.496 635.693 119.496H635.706C637.325 119.496 638.942 120.391 639.685 122.194L649.224 149.321C649.224 149.334 649.237 149.348 649.237 149.362C649.873 152.06 648.427 154.895 644.913 156.97Z" fill="#37474F"/>
<path d="M665.323 515.583C651.261 523.886 629.71 525.033 613.536 519.067C612.629 518.733 611.745 518.366 610.876 517.988C610.471 517.812 610.057 517.647 609.662 517.461C608.422 516.879 607.215 516.261 606.066 515.584C598.189 510.933 594.114 504.888 593.823 498.793V550.754C593.508 557.318 597.583 563.941 606.066 568.952C607.078 569.55 608.129 570.108 609.212 570.632C609.617 570.827 610.047 570.992 610.459 571.176C611.152 571.486 611.838 571.806 612.557 572.087C613.111 572.305 613.688 572.486 614.254 572.686C614.858 572.899 615.449 573.126 616.067 573.318C616.74 573.529 617.433 573.703 618.121 573.892C618.652 574.037 619.174 574.196 619.715 574.328C620.501 574.52 621.305 574.674 622.105 574.837C622.559 574.927 623.006 575.035 623.464 575.117C624.368 575.28 625.286 575.405 626.203 575.532C626.566 575.581 626.925 575.645 627.289 575.688C628.309 575.811 629.337 575.896 630.366 575.973C630.632 575.994 630.895 576.025 631.161 576.042C632.283 576.114 633.406 576.148 634.533 576.167C634.709 576.17 634.883 576.181 635.058 576.182C636.267 576.193 637.472 576.167 638.679 576.116C638.771 576.112 638.862 576.112 638.954 576.107C640.228 576.049 641.493 575.953 642.756 575.826C642.779 575.824 642.801 575.823 642.822 575.821C650.595 575.032 658.044 572.936 664.206 569.548C664.574 569.346 664.964 569.165 665.323 568.952C673.505 564.121 677.596 557.79 677.596 551.458V498.089C677.596 504.42 673.505 510.753 665.323 515.583Z" fill="#37474F"/>
<path d="M159.97 545.919C155.129 544.67 129.298 529.631 126.676 527.806C124.053 525.98 118.849 522.198 118.849 515.677C118.849 509.894 119.441 455.497 124.055 429.209C126.325 416.278 134.526 399.336 150.596 389.151C166.666 378.965 182.809 371.593 196.428 377.369C210.05 383.146 222.461 393.791 227.814 406.631C233.168 419.471 236.841 445.183 237.221 455.13C237.601 465.075 237.221 499.188 237.221 502.214C237.221 505.239 236.685 509.187 220.737 519.286C204.788 529.386 182.747 541.535 175.934 544.671C170.749 547.058 164.36 547.051 159.97 545.919Z" fill="#37474F"/>
<path d="M155.981 396.219C154.513 397.085 150.256 394.938 149.617 393.863C148.977 392.788 148.815 383.454 151.989 378.296C155.164 373.137 175.02 363.649 179.925 364.35C184.828 365.048 188.425 368.972 189.036 370.301C189.647 371.629 190.315 380.311 189.036 382.083C187.757 383.855 183.226 381.131 182.829 380.367C182.43 379.604 184.324 373.274 181.12 371.951C178.212 370.751 164.402 376.755 158.757 381.595C156.314 383.688 156.437 388.92 156.542 391.509C156.649 394.094 156.726 395.779 155.981 396.219Z" fill="#455A64"/>
<path d="M151.989 457.484C154.843 429.209 159.97 412.714 187.009 400.401C214.046 388.088 224.525 398.574 228.36 408.001C233.415 421.221 236.854 445.522 237.22 455.127C237.6 465.072 237.22 499.185 237.22 502.21C237.22 505.235 236.685 509.183 220.737 519.282C204.788 529.383 182.747 541.531 175.934 544.668C170.749 547.056 164.36 547.049 159.97 545.918C159.299 545.745 158.211 545.298 156.848 544.666C148.43 533.656 149.384 483.293 151.989 457.484Z" fill="#455A64"/>
<path d="M215.017 389.359C207.967 385.132 196.373 382.346 179.375 390.093C148.972 403.947 141.257 421.289 138.19 451.667C137.628 457.238 136.812 463.877 136.461 471.021L133.951 469.472C134.306 461.764 135.033 455.166 135.671 449.215C138.96 418.545 148.016 401.591 177.062 388.364C193.136 381.043 203.712 382.006 210.701 385.604C212.033 386.652 213.284 387.681 215.017 389.359Z" fill="#263238"/>
<path d="M216.073 390.146C209.024 385.921 197.43 383.134 180.432 390.879C150.03 404.734 142.313 422.075 139.246 452.453C138.684 458.023 137.869 464.663 137.517 471.807L135.008 470.257C135.363 462.55 136.089 455.952 136.727 450.003C140.016 419.332 149.073 402.378 178.118 389.151C194.192 381.831 205.053 383.046 212.044 386.645C213.376 387.691 214.342 388.468 216.073 390.146Z" fill="#455A64"/>
<path d="M206.236 417.016L197.049 411.656C196.107 411.106 194.903 411.44 194.363 412.402L184.933 429.163C184.392 430.125 184.712 431.357 185.651 431.917L194.726 437.329C195.663 437.887 196.864 437.563 197.408 436.603L206.958 419.752C207.502 418.791 207.179 417.565 206.236 417.016Z" fill="#263238"/>
<path d="M196.38 435.408L205.431 419.438C205.704 418.957 205.542 418.346 205.071 418.071L196.741 413.21C196.269 412.934 195.668 413.102 195.397 413.583L186.451 429.484C186.18 429.965 186.341 430.582 186.81 430.861L195.039 435.769C195.508 436.052 196.109 435.889 196.38 435.408Z" fill="#455A64"/>
<path d="M198.32 427.772C198.802 427.488 199.192 426.858 199.192 426.365V418.723C199.192 418.23 198.802 418.062 198.32 418.346C197.838 418.63 197.448 419.26 197.448 419.753V427.394C197.448 427.889 197.838 428.057 198.32 427.772Z" fill="#37474F"/>
<path d="M193.457 430.643C193.939 430.359 194.329 429.729 194.329 429.236V421.596C194.329 421.102 193.939 420.935 193.457 421.219C192.975 421.503 192.585 422.133 192.585 422.626V430.267C192.585 430.76 192.975 430.929 193.457 430.643Z" fill="#37474F"/>
<path d="M164.517 481.377C164.517 481.377 169.077 485.217 172.345 499.663C175.611 514.107 177.603 532.317 173.99 534.497C170.378 536.678 165.242 532.109 163.961 530.532C161.333 527.296 161.988 492.953 164.517 481.377Z" fill="#263238"/>
<path d="M164.517 481.377C164.517 481.377 169.077 485.217 172.345 499.663C175.611 514.107 177.603 532.317 173.99 534.497L229.303 501.18C232.915 498.998 233.804 479.874 230.538 465.43C228.387 455.913 224.423 451.396 221.969 449.422C220.829 448.505 219.257 448.405 218.006 449.159L164.517 481.377Z" fill="#37474F"/>
<path d="M220.795 451.603C223.445 452.949 227.928 456.621 229.955 466.405C230.595 469.494 229.532 472.504 227.692 473.834C225.851 475.164 186.323 498.161 181.081 501.356C176.561 504.111 174.208 500.449 173.215 498.161H173.212C171.563 494.083 170.093 490.914 168.853 488.483C166.538 483.082 164.515 481.375 164.515 481.375L217.2 451.768C218.299 451.107 219.654 451.025 220.795 451.603Z" fill="#263238"/>
<path d="M138.212 473.461C138.212 473.461 139.799 479.766 139.705 482.457C139.683 483.079 138.893 483.399 138.652 483.406C137.244 483.44 133.823 481.26 133.535 480.675C133.245 480.089 134.904 473.005 134.904 473.005L138.212 473.461Z" fill="#263238"/>
<path d="M139.919 471.062C139.919 469.259 138.49 467.797 136.727 467.797C134.964 467.797 133.535 469.259 133.535 471.062C133.535 472.865 134.964 474.327 136.727 474.327C138.491 474.327 139.919 472.865 139.919 471.062Z" fill="#263238"/>
<path d="M179.925 371.8C183.425 371.456 186.716 371.769 187.56 375.372C188.402 378.972 188.095 382.208 187.56 382.665C185.728 382.596 183.127 380.936 182.829 380.365C182.431 379.602 184.324 373.273 181.12 371.949C180.827 371.829 180.418 371.785 179.925 371.8Z" fill="#263238"/>
<path d="M218.311 448.974C219.409 448.313 220.764 448.229 221.905 448.809C224.555 450.155 229.04 453.827 231.065 463.611C231.705 466.7 230.642 469.71 228.802 471.04C226.961 472.37 187.433 495.367 182.191 498.562C177.671 501.317 175.318 497.655 174.325 495.367C168.863 483.657 164.519 481.377 164.519 481.377L218.311 448.974Z" fill="#37474F"/>
<path d="M208.828 648.15L164.504 621.978C162.306 620.681 160.523 617.522 160.523 614.927L160.501 615.449C160.501 612.852 162.284 609.695 164.482 608.397L253.624 555.763C255.822 554.466 259.388 554.466 261.587 555.763L305.912 581.935C308.111 583.232 309.892 586.391 309.892 588.986L309.914 588.464C309.914 591.061 308.131 594.218 305.933 595.516L216.791 648.15C214.591 649.449 211.026 649.449 208.828 648.15Z" fill="#04C45C"/>
<path opacity="0.7" d="M208.828 648.15L164.504 621.978C162.306 620.681 160.523 617.522 160.523 614.927L160.501 615.449C160.501 612.852 162.284 609.695 164.482 608.397L253.624 555.763C255.822 554.466 259.388 554.466 261.587 555.763L305.912 581.935C308.111 583.232 309.892 586.391 309.892 588.986L309.914 588.464C309.914 591.061 308.131 594.218 305.933 595.516L216.791 648.15C214.591 649.449 211.026 649.449 208.828 648.15Z" fill="black"/>
<path d="M212.787 579.873L164.482 608.395C162.282 609.693 160.501 612.852 160.501 615.447L160.523 614.925C160.523 617.522 162.306 620.679 164.504 621.977L208.828 648.148C209.928 648.797 211.369 649.122 212.809 649.122L212.787 579.873Z" fill="#04C45C"/>
<path opacity="0.7" d="M212.787 579.873L164.482 608.395C162.282 609.693 160.501 612.852 160.501 615.447L160.523 614.925C160.523 617.522 162.306 620.679 164.504 621.977L208.828 648.148C209.928 648.797 211.369 649.122 212.809 649.122L212.787 579.873Z" fill="black"/>
<path d="M164.48 613.098L208.804 639.269C211.004 640.567 214.568 640.567 216.768 639.269L305.91 586.636C308.109 585.338 308.109 583.232 305.91 581.935L261.586 555.763C259.386 554.466 255.822 554.466 253.622 555.763L164.48 608.397C162.282 609.695 162.282 611.799 164.48 613.098Z" fill="#04C45C"/>
<path opacity="0.5" d="M164.48 613.098L208.804 639.269C211.004 640.567 214.568 640.567 216.768 639.269L305.91 586.636C308.109 585.338 308.109 583.232 305.91 581.935L261.586 555.763C259.386 554.466 255.822 554.466 253.622 555.763L164.48 608.397C162.282 609.695 162.282 611.799 164.48 613.098Z" fill="black"/>
<path d="M164.48 604.494V608.832L210.488 635.998C211.91 636.837 213.661 636.837 215.082 635.998L305.908 582.369V577.886L212.787 624.052L164.48 604.494Z" fill="#04C45C"/>
<path d="M208.806 630.665L164.482 604.494C162.284 603.196 160.501 600.037 160.501 597.442V589.058C160.501 586.461 162.284 583.304 164.482 582.006L253.624 529.373C255.822 528.075 259.388 528.075 261.587 529.373L305.912 555.544C308.111 556.842 309.892 560 309.892 562.596V570.979C309.892 573.577 308.11 576.588 305.912 577.886L216.769 630.665C214.57 631.964 211.004 631.964 208.806 630.665Z" fill="#04C45C"/>
<path opacity="0.6" d="M208.806 630.665L164.482 604.494C162.284 603.196 160.501 600.037 160.501 597.442V589.058C160.501 586.461 162.284 583.304 164.482 582.006L253.624 529.373C255.822 528.075 259.388 528.075 261.587 529.373L305.912 555.544C308.111 556.842 309.892 560 309.892 562.596V570.979C309.892 573.577 308.11 576.588 305.912 577.886L216.769 630.665C214.57 631.964 211.004 631.964 208.806 630.665Z" fill="black"/>
<path d="M212.787 553.483L164.482 582.005C162.282 583.303 160.501 586.461 160.501 589.057V597.44C160.501 600.037 162.284 603.194 164.482 604.492L208.806 630.663C209.906 631.312 211.346 631.637 212.787 631.637V553.483Z" fill="#04C45C"/>
<path opacity="0.7" d="M212.787 553.483L164.482 582.005C162.282 583.303 160.501 586.461 160.501 589.057V597.44C160.501 600.037 162.284 603.194 164.482 604.492L208.806 630.663C209.906 631.312 211.346 631.637 212.787 631.637V553.483Z" fill="black"/>
<path d="M164.48 586.708L208.804 612.879C211.004 614.177 214.568 614.177 216.768 612.879L305.91 560.245C308.109 558.948 308.109 556.842 305.91 555.544L261.586 529.373C259.386 528.075 255.822 528.075 253.622 529.373L164.48 582.006C162.282 583.304 162.282 585.408 164.48 586.708Z" fill="#04C45C"/>
<path opacity="0.5" d="M164.48 586.708L208.804 612.879C211.004 614.177 214.568 614.177 216.768 612.879L305.91 560.245C308.109 558.948 308.109 556.842 305.91 555.544L261.586 529.373C259.386 528.075 255.822 528.075 253.622 529.373L164.48 582.006C162.282 583.304 162.282 585.408 164.48 586.708Z" fill="black"/>
<path d="M226.306 565.907C221.396 568.805 221.396 573.486 226.306 576.362C231.216 579.236 239.176 579.236 244.086 576.362C248.996 573.488 248.996 568.807 244.086 565.907C239.176 563.007 231.216 563.007 226.306 565.907Z" fill="#04C45C"/>
<path d="M298.686 568.964C297.828 569.463 297.131 570.702 297.131 571.733C297.131 572.763 297.828 573.195 298.686 572.697C299.545 572.198 300.242 570.959 300.242 569.928C300.242 568.898 299.545 568.466 298.686 568.964Z" fill="#04C45C"/>
<path d="M298.686 575.114C297.828 575.612 297.131 576.852 297.131 577.882C297.131 578.913 297.828 579.344 298.686 578.846C299.545 578.348 300.242 577.109 300.242 576.078C300.242 575.046 299.545 574.616 298.686 575.114Z" fill="#04C45C"/>
<path d="M190.245 682.662C190.046 682.662 189.843 682.61 189.657 682.499L146.711 657.013C144.421 655.653 143.055 653.226 143.058 650.519C143.061 647.811 144.432 645.386 146.724 644.032L178.21 625.442C178.768 625.111 179.488 625.306 179.809 625.88C180.132 626.452 179.941 627.184 179.381 627.515L147.894 646.105C146.334 647.027 145.402 648.679 145.398 650.521C145.397 652.365 146.326 654.017 147.884 654.943L190.831 680.429C191.39 680.762 191.581 681.494 191.256 682.064C191.042 682.448 190.648 682.662 190.245 682.662Z" fill="#04C45C"/>
<path d="M244.049 658.1L234.74 619.873C234.607 619.326 234.43 618.823 234.233 618.342L236.941 617.94L231.035 614.447C228.79 613.108 225.889 613.126 223.049 614.81L184.225 637.83C179.178 640.822 175.088 648.086 175.09 654.053L175.1 700.008C175.102 703.66 175.977 706.181 177.76 707.054L177.748 707.058L183.309 710.338L181.965 706.715C182.064 706.671 182.156 706.638 182.256 706.589C188.641 703.471 190.955 697.794 192.861 692.157L200.242 670.341C202.149 664.701 206.901 658.24 210.855 655.908C214.809 653.577 220.357 655.888 223.248 661.07L226.954 667.714C228.208 669.962 229.965 671.664 231.877 672.681L237.545 676.045L236.104 673.759C237.257 673.735 238.379 673.443 239.395 672.842C243.376 670.488 245.46 663.89 244.049 658.1Z" fill="#04C45C"/>
<path opacity="0.7" d="M244.049 658.1L234.74 619.873C234.607 619.326 234.43 618.823 234.233 618.342L236.941 617.94L231.035 614.447C228.79 613.108 225.889 613.126 223.049 614.81L184.225 637.83C179.178 640.822 175.088 648.086 175.09 654.053L175.1 700.008C175.102 703.66 175.977 706.181 177.76 707.054L177.748 707.058L183.309 710.338L181.965 706.715C182.064 706.671 182.156 706.638 182.256 706.589C188.641 703.471 190.955 697.794 192.861 692.157L200.242 670.341C202.149 664.701 206.901 658.24 210.855 655.908C214.809 653.577 220.357 655.888 223.248 661.07L226.954 667.714C228.208 669.962 229.965 671.664 231.877 672.681L237.545 676.045L236.104 673.759C237.257 673.735 238.379 673.443 239.395 672.842C243.376 670.488 245.46 663.89 244.049 658.1Z" fill="black"/>
<path d="M234.233 618.342L236.941 617.94L231.035 614.447C228.79 613.108 225.889 613.126 223.049 614.81L184.225 637.83C182.183 639.042 180.316 640.968 178.795 643.209L188.027 648.965L235.188 621.718L234.74 619.874C234.608 619.326 234.43 618.823 234.233 618.342Z" fill="#04C45C"/>
<path opacity="0.5" d="M234.233 618.342L236.941 617.94L231.035 614.447C228.79 613.108 225.889 613.126 223.049 614.81L184.225 637.83C182.183 639.042 180.316 640.968 178.795 643.209L188.027 648.965L235.188 621.718L234.74 619.874C234.608 619.326 234.43 618.823 234.233 618.342Z" fill="black"/>
<path d="M245.43 676.408C241.449 678.758 235.878 676.463 232.987 671.28L229.281 664.636C226.39 659.454 220.841 657.143 216.887 659.474C212.933 661.806 208.18 668.267 206.273 673.907L198.893 695.723C196.986 701.362 194.671 707.037 188.288 710.155C183.459 712.514 181.135 709.54 181.133 703.574L181.123 657.617C181.122 651.651 185.213 644.388 190.26 641.396L229.082 618.376C234.129 615.384 239.363 617.65 240.773 623.44L250.082 661.668C251.495 667.458 249.411 674.057 245.43 676.408Z" fill="#04C45C"/>
<path opacity="0.6" d="M245.43 676.408C241.449 678.758 235.878 676.463 232.987 671.28L229.281 664.636C226.39 659.454 220.841 657.143 216.887 659.474C212.933 661.806 208.18 668.267 206.273 673.907L198.893 695.723C196.986 701.362 194.671 707.037 188.288 710.155C183.459 712.514 181.135 709.54 181.133 703.574L181.123 657.617C181.122 651.651 185.213 644.388 190.26 641.396L229.082 618.376C234.129 615.384 239.363 617.65 240.773 623.44L250.082 661.668C251.495 667.458 249.411 674.057 245.43 676.408Z" fill="black"/>
<path d="M230.377 631.612L231.348 637.246L235.639 634.428L236.61 640.062L232.319 642.884L233.293 648.518L229.008 651.331L228.034 645.7L223.748 648.514L222.777 642.88L227.063 640.066L226.092 634.431L230.377 631.612Z" fill="#263238"/>
<path d="M231.614 632.278L232.585 637.912L236.876 635.096L237.848 640.73L233.556 643.549L234.53 649.184L230.247 651.998L229.272 646.366L224.987 649.18L224.016 643.546L228.302 640.733L227.331 635.099L231.614 632.278Z" fill="#04C45C"/>
<path d="M197.893 651.545C198.161 653.101 197.42 654.992 196.236 655.771C195.053 656.55 193.876 655.92 193.608 654.364C193.34 652.808 194.082 650.916 195.265 650.137C196.449 649.358 197.626 649.988 197.893 651.545Z" fill="#263238"/>
<path d="M199.837 662.813C200.105 664.369 199.363 666.261 198.18 667.04C196.996 667.819 195.819 667.189 195.552 665.633C195.284 664.076 196.025 662.185 197.209 661.406C198.392 660.628 199.569 661.257 199.837 662.813Z" fill="#263238"/>
<path d="M203.153 654.362C203.421 655.919 202.679 657.81 201.496 658.589C200.312 659.368 199.136 658.738 198.868 657.182C198.6 655.626 199.341 653.734 200.525 652.955C201.708 652.176 202.885 652.806 203.153 654.362Z" fill="#263238"/>
<path d="M194.586 659.997C194.853 661.553 194.112 663.445 192.928 664.224C191.745 665.003 190.568 664.373 190.3 662.816C190.032 661.26 190.774 659.368 191.957 658.589C193.141 657.81 194.318 658.441 194.586 659.997Z" fill="#263238"/>
<path d="M197.982 651.603C198.25 653.159 197.508 655.051 196.325 655.829C195.141 656.608 193.964 655.978 193.697 654.422C193.429 652.866 194.17 650.974 195.354 650.195C196.537 649.416 197.714 650.046 197.982 651.603Z" fill="#263238"/>
<path d="M199.926 662.871C200.193 664.427 199.452 666.319 198.268 667.098C197.085 667.877 195.908 667.247 195.64 665.691C195.372 664.135 196.114 662.243 197.297 661.464C198.481 660.685 199.658 661.315 199.926 662.871Z" fill="#263238"/>
<path d="M203.242 654.419C203.51 655.975 202.768 657.867 201.584 658.646C200.401 659.425 199.224 658.795 198.956 657.239C198.688 655.682 199.43 653.791 200.614 653.012C201.797 652.233 202.974 652.864 203.242 654.419Z" fill="#263238"/>
<path d="M194.674 660.053C194.942 661.609 194.201 663.501 193.017 664.28C191.834 665.059 190.657 664.429 190.389 662.873C190.121 661.317 190.863 659.425 192.046 658.646C193.23 657.869 194.407 658.499 194.674 660.053Z" fill="#263238"/>
<path d="M198.071 651.659C198.339 653.215 197.597 655.107 196.414 655.886C195.23 656.665 194.053 656.035 193.785 654.479C193.518 652.923 194.259 651.031 195.443 650.252C196.626 649.475 197.803 650.105 198.071 651.659Z" fill="#263238"/>
<path d="M200.014 662.928C200.282 664.484 199.54 666.376 198.357 667.155C197.173 667.934 195.997 667.303 195.729 665.747C195.461 664.191 196.203 662.299 197.386 661.52C198.57 660.743 199.746 661.373 200.014 662.928Z" fill="#263238"/>
<path d="M203.331 654.477C203.598 656.033 202.857 657.925 201.673 658.704C200.49 659.483 199.313 658.853 199.045 657.297C198.777 655.741 199.519 653.849 200.702 653.07C201.886 652.291 203.063 652.921 203.331 654.477Z" fill="#263238"/>
<path d="M194.763 660.111C195.031 661.668 194.289 663.559 193.106 664.338C191.922 665.117 190.745 664.487 190.478 662.931C190.21 661.375 190.951 659.483 192.135 658.704C193.318 657.925 194.493 658.555 194.763 660.111Z" fill="#263238"/>
<path d="M198.16 651.717C198.427 653.274 197.686 655.165 196.502 655.944C195.319 656.723 194.142 656.093 193.874 654.537C193.606 652.981 194.348 651.089 195.531 650.31C196.715 649.531 197.892 650.161 198.16 651.717Z" fill="#263238"/>
<path d="M200.103 662.986C200.371 664.542 199.629 666.434 198.446 667.213C197.262 667.992 196.085 667.362 195.818 665.805C195.55 664.249 196.291 662.358 197.475 661.579C198.658 660.8 199.835 661.43 200.103 662.986Z" fill="#263238"/>
<path d="M203.419 654.535C203.687 656.092 202.945 657.983 201.762 658.762C200.578 659.541 199.402 658.911 199.134 657.355C198.866 655.799 199.608 653.907 200.791 653.128C201.975 652.349 203.151 652.979 203.419 654.535Z" fill="#263238"/>
<path d="M194.852 660.17C195.119 661.726 194.378 663.617 193.194 664.396C192.011 665.175 190.834 664.545 190.566 662.989C190.298 661.433 191.04 659.541 192.223 658.762C193.407 657.983 194.584 658.613 194.852 660.17Z" fill="#263238"/>
<path d="M198.248 651.776C198.516 653.332 197.775 655.224 196.591 656.003C195.408 656.782 194.231 656.152 193.963 654.595C193.695 653.039 194.437 651.147 195.62 650.368C196.804 649.589 197.981 650.219 198.248 651.776Z" fill="#263238"/>
<path d="M200.192 663.044C200.46 664.6 199.718 666.492 198.534 667.271C197.351 668.05 196.174 667.42 195.906 665.864C195.638 664.308 196.38 662.416 197.564 661.637C198.747 660.858 199.924 661.488 200.192 663.044Z" fill="#263238"/>
<path d="M203.508 654.592C203.776 656.148 203.034 658.04 201.851 658.819C200.667 659.598 199.491 658.968 199.223 657.412C198.955 655.855 199.696 653.964 200.88 653.185C202.063 652.406 203.24 653.036 203.508 654.592Z" fill="#263238"/>
<path d="M194.94 660.226C195.208 661.782 194.467 663.674 193.283 664.453C192.1 665.232 190.923 664.602 190.655 663.046C190.387 661.49 191.129 659.598 192.312 658.819C193.496 658.042 194.671 658.672 194.94 660.226Z" fill="#263238"/>
<path d="M198.337 651.832C198.605 653.388 197.863 655.28 196.68 656.059C195.496 656.838 194.319 656.208 194.052 654.652C193.784 653.096 194.525 651.204 195.709 650.425C196.892 649.648 198.069 650.278 198.337 651.832Z" fill="#263238"/>
<path d="M200.281 663.101C200.548 664.657 199.807 666.548 198.623 667.327C197.44 668.106 196.263 667.476 195.995 665.92C195.727 664.364 196.469 662.472 197.652 661.693C198.836 660.916 200.013 661.546 200.281 663.101Z" fill="#263238"/>
<path d="M203.597 654.65C203.865 656.206 203.123 658.098 201.939 658.877C200.756 659.656 199.579 659.026 199.311 657.47C199.043 655.914 199.785 654.022 200.969 653.243C202.152 652.464 203.329 653.094 203.597 654.65Z" fill="#263238"/>
<path d="M195.029 660.284C195.297 661.841 194.555 663.732 193.372 664.511C192.188 665.29 191.012 664.66 190.744 663.104C190.476 661.548 191.217 659.656 192.401 658.877C193.584 658.098 194.76 658.728 195.029 660.284Z" fill="#263238"/>
<path d="M198.426 651.89C198.693 653.447 197.952 655.338 196.768 656.117C195.585 656.896 194.408 656.266 194.14 654.71C193.872 653.154 194.614 651.262 195.797 650.483C196.981 649.704 198.158 650.334 198.426 651.89Z" fill="#263238"/>
<path d="M200.369 663.159C200.637 664.715 199.895 666.607 198.712 667.386C197.528 668.165 196.351 667.535 196.084 665.978C195.816 664.422 196.557 662.53 197.741 661.751C198.924 660.973 200.101 661.603 200.369 663.159Z" fill="#263238"/>
<path d="M203.685 654.707C203.953 656.263 203.212 658.155 202.028 658.934C200.845 659.712 199.668 659.082 199.4 657.526C199.132 655.97 199.874 654.078 201.057 653.299C202.241 652.52 203.418 653.152 203.685 654.707Z" fill="#263238"/>
<path d="M195.118 660.341C195.386 661.897 194.644 663.789 193.46 664.568C192.277 665.347 191.1 664.717 190.832 663.16C190.564 661.604 191.306 659.713 192.49 658.934C193.671 658.156 194.848 658.786 195.118 660.341Z" fill="#263238"/>
<path d="M198.514 651.949C198.782 653.505 198.041 655.396 196.857 656.175C195.674 656.954 194.497 656.324 194.229 654.768C193.961 653.212 194.703 651.32 195.886 650.541C197.07 649.762 198.247 650.392 198.514 651.949Z" fill="#263238"/>
<path d="M200.458 663.217C200.726 664.773 199.984 666.665 198.801 667.444C197.617 668.223 196.44 667.593 196.172 666.037C195.905 664.48 196.646 662.589 197.83 661.81C199.013 661.031 200.188 661.661 200.458 663.217Z" fill="#263238"/>
<path d="M203.774 654.765C204.042 656.321 203.3 658.213 202.117 658.992C200.933 659.771 199.756 659.141 199.489 657.584C199.221 656.028 199.962 654.137 201.146 653.358C202.329 652.579 203.506 653.209 203.774 654.765Z" fill="#263238"/>
<path d="M195.205 660.399C195.473 661.955 194.731 663.847 193.548 664.626C192.364 665.405 191.187 664.775 190.919 663.219C190.652 661.662 191.393 659.771 192.577 658.992C193.76 658.213 194.937 658.843 195.205 660.399Z" fill="#263238"/>
<path d="M198.603 652.005C198.871 653.561 198.129 655.453 196.946 656.232C195.762 657.011 194.585 656.381 194.318 654.825C194.05 653.269 194.791 651.377 195.975 650.598C197.158 649.819 198.335 650.449 198.603 652.005Z" fill="#263238"/>
<path d="M200.546 663.274C200.814 664.83 200.073 666.721 198.889 667.5C197.706 668.279 196.529 667.649 196.261 666.093C195.993 664.537 196.735 662.645 197.918 661.866C199.102 661.087 200.277 661.717 200.546 663.274Z" fill="#263238"/>
<path d="M203.863 654.823C204.13 656.379 203.389 658.271 202.205 659.05C201.022 659.829 199.845 659.199 199.577 657.643C199.309 656.087 200.051 654.195 201.234 653.416C202.418 652.637 203.595 653.267 203.863 654.823Z" fill="#263238"/>
<path d="M195.294 660.457C195.561 662.013 194.82 663.905 193.636 664.684C192.453 665.463 191.276 664.833 191.008 663.277C190.74 661.721 191.482 659.829 192.665 659.05C193.849 658.271 195.026 658.901 195.294 660.457Z" fill="#263238"/>
<path d="M198.692 652.063C198.96 653.62 198.218 655.511 197.035 656.29C195.851 657.069 194.674 656.439 194.407 654.883C194.139 653.327 194.88 651.435 196.064 650.656C197.247 649.877 198.424 650.507 198.692 652.063Z" fill="#263238"/>
<path d="M200.635 663.332C200.903 664.888 200.162 666.78 198.978 667.559C197.795 668.338 196.618 667.708 196.35 666.151C196.082 664.595 196.824 662.703 198.007 661.924C199.191 661.145 200.366 661.775 200.635 663.332Z" fill="#263238"/>
<path d="M203.951 654.88C204.219 656.436 203.478 658.327 202.294 659.106C201.111 659.885 199.934 659.255 199.666 657.699C199.398 656.143 200.14 654.251 201.323 653.472C202.507 652.695 203.684 653.325 203.951 654.88Z" fill="#263238"/>
<path d="M195.382 660.514C195.65 662.07 194.909 663.962 193.725 664.741C192.542 665.52 191.365 664.89 191.097 663.333C190.829 661.777 191.571 659.885 192.754 659.106C193.938 658.329 195.115 658.959 195.382 660.514Z" fill="#263238"/>
<path d="M198.781 652.12C199.048 653.676 198.307 655.568 197.123 656.347C195.94 657.126 194.763 656.496 194.495 654.939C194.227 653.383 194.969 651.492 196.152 650.713C197.336 649.935 198.513 650.565 198.781 652.12Z" fill="#263238"/>
<path d="M200.724 663.388C200.992 664.944 200.25 666.836 199.067 667.615C197.883 668.394 196.706 667.764 196.438 666.208C196.171 664.652 196.912 662.76 198.096 661.981C199.279 661.204 200.454 661.834 200.724 663.388Z" fill="#263238"/>
<path d="M204.04 654.938C204.308 656.494 203.566 658.386 202.383 659.165C201.199 659.944 200.022 659.314 199.755 657.757C199.487 656.201 200.228 654.309 201.412 653.53C202.595 652.752 203.772 653.382 204.04 654.938Z" fill="#263238"/>
<path d="M195.471 660.572C195.739 662.128 194.997 664.02 193.814 664.799C192.63 665.578 191.453 664.948 191.186 663.392C190.918 661.835 191.659 659.944 192.843 659.165C194.026 658.386 195.203 659.016 195.471 660.572Z" fill="#263238"/>
<path d="M198.869 652.178C199.137 653.734 198.396 655.626 197.212 656.405C196.029 657.184 194.852 656.554 194.584 654.998C194.316 653.441 195.058 651.55 196.241 650.771C197.425 649.992 198.602 650.622 198.869 652.178Z" fill="#263238"/>
<path d="M200.813 663.446C201.081 665.003 200.339 666.894 199.156 667.673C197.972 668.452 196.795 667.822 196.527 666.266C196.26 664.71 197.001 662.818 198.185 662.039C199.368 661.26 200.543 661.89 200.813 663.446Z" fill="#263238"/>
<path d="M204.129 654.996C204.397 656.552 203.655 658.444 202.472 659.223C201.288 660.002 200.111 659.372 199.844 657.816C199.576 656.259 200.317 654.368 201.501 653.589C202.684 652.81 203.861 653.44 204.129 654.996Z" fill="#263238"/>
<path d="M195.56 660.628C195.828 662.185 195.086 664.076 193.903 664.855C192.719 665.634 191.542 665.004 191.274 663.448C191.007 661.892 191.748 660 192.932 659.221C194.115 658.444 195.292 659.074 195.56 660.628Z" fill="#263238"/>
<path d="M230.378 631.612L231.615 632.278L227.331 635.099L226.092 634.431L230.378 631.612Z" fill="#263238"/>
<path d="M227.063 640.066L228.302 640.733L224.016 643.546L222.777 642.88L227.063 640.066Z" fill="#263238"/>
<path d="M232.585 637.912L232.356 636.585L235.639 634.428L236.876 635.096L232.585 637.912Z" fill="#263238"/>
<path d="M222.777 642.88L224.016 643.546L224.987 649.18L223.748 648.514L222.777 642.88Z" fill="#263238"/>
<path d="M229.008 651.331L230.247 651.998L229.273 646.366L228.265 647.028L229.008 651.331Z" fill="#263238"/>
<path d="M198.869 652.178C199.137 653.734 198.396 655.626 197.212 656.405C196.029 657.184 194.852 656.554 194.584 654.998C194.316 653.441 195.058 651.55 196.241 650.771C197.425 649.992 198.602 650.622 198.869 652.178Z" fill="#04C45C"/>
<path d="M200.813 663.446C201.081 665.003 200.339 666.894 199.156 667.673C197.972 668.452 196.795 667.822 196.527 666.266C196.26 664.71 197.001 662.818 198.185 662.039C199.368 661.26 200.543 661.89 200.813 663.446Z" fill="#04C45C"/>
<path d="M204.129 654.996C204.397 656.552 203.655 658.444 202.472 659.223C201.288 660.002 200.111 659.372 199.844 657.816C199.576 656.259 200.317 654.368 201.501 653.589C202.684 652.81 203.861 653.44 204.129 654.996Z" fill="#04C45C"/>
<path d="M195.56 660.628C195.828 662.185 195.086 664.076 193.903 664.855C192.719 665.634 191.542 665.004 191.274 663.448C191.007 661.892 191.748 660 192.932 659.221C194.115 658.444 195.292 659.074 195.56 660.628Z" fill="#04C45C"/>
<path d="M240.05 173.748L222.059 184.371C222.148 183.549 222.21 182.734 222.21 181.934V176.605C222.21 167.12 215.698 163.275 207.666 168.018C204.413 169.938 201.42 172.982 198.998 176.542C197.682 164.614 188.532 160.171 177.419 166.734C165.403 173.828 155.66 191.085 155.66 205.276V213.25C155.66 216.926 156.324 220.021 157.501 222.488L142.557 231.312C138.101 233.943 134.49 240.341 134.49 245.602C134.49 250.863 138.103 252.996 142.557 250.365L240.046 192.802C244.502 190.171 248.113 183.773 248.113 178.512C248.117 173.249 244.504 171.116 240.05 173.748Z" fill="#F0F0F0"/>
<path d="M613.933 652.113L610.656 650.189L613.032 649.093C613.032 649.093 614.9 649.596 614.944 649.685C614.987 649.774 614.813 651.003 614.813 651.003L613.933 652.113Z" fill="#E0E0E0"/>
<path d="M613.933 652.113L610.656 650.189L613.032 649.093C613.032 649.093 614.9 649.596 614.944 649.685C614.987 649.774 614.813 651.003 614.813 651.003L613.933 652.113Z" fill="#04C45C"/>
<path opacity="0.1" d="M613.933 652.113L610.656 650.189L613.032 649.093C613.032 649.093 614.9 649.596 614.944 649.685C614.987 649.774 614.813 651.003 614.813 651.003L613.933 652.113Z" fill="white"/>
<path d="M489.365 716.296C492.007 717.855 496.289 717.855 498.929 716.296L606.301 652.894L445.57 557.979L441.815 555.756L334.447 619.159C331.815 620.722 331.815 623.262 334.447 624.806L489.365 716.296Z" fill="#04C45C"/>
<path opacity="0.8" d="M489.365 716.296C492.007 717.855 496.289 717.855 498.929 716.296L606.301 652.894L445.57 557.979L441.815 555.756L334.447 619.159C331.815 620.722 331.815 623.262 334.447 624.806L489.365 716.296Z" fill="white"/>
<path d="M529.682 596.528L567.124 618.568L591.364 604.256L619.562 620.915C619.562 620.915 619.562 639.18 619.562 641.699C619.562 644.219 616.798 647.807 615.794 647.217C615.794 647.217 613.586 647.679 610.404 649.173C607.222 650.67 602.623 655.061 602.623 655.061L516.586 604.261L529.682 596.528Z" fill="#E0E0E0"/>
<path d="M529.682 596.528L567.124 618.568L591.364 604.256L619.562 620.915C619.562 620.915 619.562 639.18 619.562 641.699C619.562 644.219 616.798 647.807 615.794 647.217C615.794 647.217 613.586 647.679 610.404 649.173C607.222 650.67 602.623 655.061 602.623 655.061L516.586 604.261L529.682 596.528Z" fill="#04C45C"/>
<path opacity="0.1" d="M529.682 596.528L567.124 618.568L591.364 604.256L619.562 620.915C619.562 620.915 619.562 639.18 619.562 641.699C619.562 644.219 616.798 647.807 615.794 647.217C615.794 647.217 613.586 647.679 610.404 649.173C607.222 650.67 602.623 655.061 602.623 655.061L516.586 604.261L529.682 596.528Z" fill="white"/>
<path d="M498.932 716.291L505.412 712.451L602.62 655.054C602.656 653.811 603.154 652.589 603.945 651.497C605.05 649.915 606.706 648.56 608.197 647.675C609.339 646.997 611.05 646.206 612.781 646.206C613.959 646.206 614.989 646.583 615.799 647.223C616.425 646.357 617.585 643.026 617.585 638.997H621.266C621.266 644.193 619.591 649.408 617.53 650.613L615.67 651.724C614.62 652.346 613.792 652.383 613.792 651.8V650.783C613.792 649.653 612.116 649.709 610.037 650.933C607.975 652.157 606.301 654.058 606.301 655.188V656.205C606.301 656.788 604.864 658.086 603.117 659.122L509.112 714.637L498.932 720.643C498.932 720.643 498.914 720.643 498.914 720.661C497.588 721.415 495.877 721.81 494.146 721.81V717.462C495.877 717.457 497.608 717.082 498.932 716.291Z" fill="#04C45C"/>
<path opacity="0.6" d="M498.932 716.291L505.412 712.451L602.62 655.054C602.656 653.811 603.154 652.589 603.945 651.497C605.05 649.915 606.706 648.56 608.197 647.675C609.339 646.997 611.05 646.206 612.781 646.206C613.959 646.206 614.989 646.583 615.799 647.223C616.425 646.357 617.585 643.026 617.585 638.997H621.266C621.266 644.193 619.591 649.408 617.53 650.613L615.67 651.724C614.62 652.346 613.792 652.383 613.792 651.8V650.783C613.792 649.653 612.116 649.709 610.037 650.933C607.975 652.157 606.301 654.058 606.301 655.188V656.205C606.301 656.788 604.864 658.086 603.117 659.122L509.112 714.637L498.932 720.643C498.932 720.643 498.914 720.643 498.914 720.661C497.588 721.415 495.877 721.81 494.146 721.81V717.462C495.877 717.457 497.608 717.082 498.932 716.291Z" fill="white"/>
<path d="M332.478 621.92V626.344C332.478 627.361 333.104 628.359 334.375 629.129L334.448 629.167L479.201 714.632L489.362 720.637V720.656C489.362 720.656 489.38 720.637 489.38 720.656C490.706 721.41 492.417 721.805 494.148 721.805V717.457C492.417 717.457 490.688 717.08 489.362 716.289L482.9 712.468H482.882L334.447 624.8C333.041 623.966 332.483 622.988 332.478 621.92Z" fill="#04C45C"/>
<path opacity="0.1" d="M332.478 621.92V626.344C332.478 627.361 333.104 628.359 334.375 629.129L334.448 629.167L479.201 714.632L489.362 720.637V720.656C489.362 720.656 489.38 720.637 489.38 720.656C490.706 721.41 492.417 721.805 494.148 721.805V717.457C492.417 717.457 490.688 717.08 489.362 716.289L482.9 712.468H482.882L334.447 624.8C333.041 623.966 332.483 622.988 332.478 621.92Z" fill="white"/>
<path d="M494.148 688.147V713.522C495.308 713.522 496.466 713.278 497.332 712.75L509.112 705.805L598.828 652.832L598.846 626.327L494.148 688.147Z" fill="white"/>
<path d="M337.135 598.615V618.155C337.135 620.227 338.571 622.767 340.319 623.803L479.201 705.805L490.962 712.75C491.828 713.278 492.988 713.522 494.146 713.522V690.838L337.135 598.615Z" fill="#F0F0F0"/>
<path d="M598.828 652.832C598.865 651.589 599.381 650.368 600.172 649.276C601.277 647.694 602.933 646.34 604.424 645.455C605.566 644.777 607.277 643.986 609.008 643.986C610.186 643.986 611.217 644.363 612.026 645.003V618.544L598.847 626.325L598.828 652.832Z" fill="#455A64"/>
<path d="M604.093 645.671C602.692 646.554 601.197 647.809 600.172 649.274C599.381 650.367 598.865 651.589 598.828 652.83L598.845 627.566H604.091V645.671H604.093Z" fill="#F5F5F5"/>
<path d="M445.57 527.005L606.301 621.92C606.301 621.92 606.301 622.899 606.301 624.122C606.301 625.346 607.977 625.798 610.037 624.574C612.116 623.35 613.792 621.826 613.792 619.717L613.995 617.626L450.227 520.941L449.564 520.546C449.398 520.866 449.288 521.224 449.288 521.563V522.58C449.29 523.805 447.632 525.762 445.57 527.005Z" fill="#04C45C"/>
<path opacity="0.6" d="M445.57 527.005L606.301 621.92C606.301 621.92 606.301 622.899 606.301 624.122C606.301 625.346 607.977 625.798 610.037 624.574C612.116 623.35 613.792 621.826 613.792 619.717L613.995 617.626L450.227 520.941L449.564 520.546C449.398 520.866 449.288 521.224 449.288 521.563V522.58C449.29 523.805 447.632 525.762 445.57 527.005Z" fill="white"/>
<path d="M498.929 685.324L603.92 623.327C605.255 622.612 606.473 622.038 606.987 622.314L606.301 621.922L445.57 527.007C445.57 527.007 444.626 526.454 443.692 525.899C442.656 525.285 440.389 525.629 438.628 526.668L334.448 588.187C331.817 589.75 331.817 592.29 334.448 593.835L489.367 685.324C492.007 686.882 496.289 686.884 498.929 685.324Z" fill="#04C45C"/>
<path opacity="0.8" d="M498.929 685.324L603.92 623.327C605.255 622.612 606.473 622.038 606.987 622.314L606.301 621.922L445.57 527.007C445.57 527.007 444.626 526.454 443.692 525.899C442.656 525.285 440.389 525.629 438.628 526.668L334.448 588.187C331.817 589.75 331.817 592.29 334.448 593.835L489.367 685.324C492.007 686.882 496.289 686.884 498.929 685.324Z" fill="white"/>
<path d="M449.566 520.547L450.229 520.943L613.996 617.628C613.996 617.628 614.107 617.364 614.346 617.176C614.493 617.082 614.678 616.988 614.899 616.856L616.077 616.159C616.519 615.895 617.016 615.594 617.532 615.293C618.213 614.897 618.839 614.973 619.392 615.462C619.465 615.5 619.52 615.557 619.576 615.632C619.76 615.82 619.926 616.065 620.073 616.329C620.239 616.611 620.386 616.931 620.496 617.27C620.625 617.609 620.736 617.986 620.828 618.362C620.92 618.777 620.994 619.191 621.067 619.643C621.122 619.888 621.141 620.151 621.159 620.415C621.178 620.622 621.196 620.811 621.215 621.037C621.251 621.507 621.27 621.997 621.27 622.505V617.799C621.27 615.202 619.115 611.831 616.484 610.27L461.552 518.781C458.902 517.217 455.09 516.956 453.029 518.159L451.078 519.327L451.004 519.364C450.875 519.458 450.544 519.647 450.175 519.854C450.175 519.854 450.157 519.854 450.157 519.873C449.933 520.003 449.713 520.248 449.566 520.547Z" fill="#04C45C"/>
<path opacity="0.8" d="M449.566 520.547L450.229 520.943L613.996 617.628C613.996 617.628 614.107 617.364 614.346 617.176C614.493 617.082 614.678 616.988 614.899 616.856L616.077 616.159C616.519 615.895 617.016 615.594 617.532 615.293C618.213 614.897 618.839 614.973 619.392 615.462C619.465 615.5 619.52 615.557 619.576 615.632C619.76 615.82 619.926 616.065 620.073 616.329C620.239 616.611 620.386 616.931 620.496 617.27C620.625 617.609 620.736 617.986 620.828 618.362C620.92 618.777 620.994 619.191 621.067 619.643C621.122 619.888 621.141 620.151 621.159 620.415C621.178 620.622 621.196 620.811 621.215 621.037C621.251 621.507 621.27 621.997 621.27 622.505V617.799C621.27 615.202 619.115 611.831 616.484 610.27L461.552 518.781C458.902 517.217 455.09 516.956 453.029 518.159L451.078 519.327L451.004 519.364C450.875 519.458 450.544 519.647 450.175 519.854C450.175 519.854 450.157 519.854 450.157 519.873C449.933 520.003 449.713 520.248 449.566 520.547Z" fill="white"/>
<path d="M498.895 685.341C498.914 685.341 498.914 685.322 498.914 685.322L505.412 681.482L580.089 637.414L603.927 623.332C605.621 622.316 607 621.958 607.092 622.485C607.111 622.504 607.111 622.523 607.111 622.541V623.653C607.111 624.877 608.787 624.877 610.847 623.653C612.873 622.466 613.755 620.999 613.792 619.813V618.607C613.792 617.986 614.031 617.346 614.344 617.176C614.492 617.082 614.694 616.969 614.897 616.856C615.228 616.668 615.633 616.423 616.075 616.159C616.517 615.896 617.014 615.594 617.53 615.293C618.211 614.897 618.837 614.973 619.39 615.462C619.463 615.5 619.519 615.557 619.574 615.632C619.703 615.764 619.813 615.914 619.905 616.084C619.979 616.159 620.016 616.234 620.071 616.329C620.237 616.611 620.384 616.931 620.495 617.27C620.623 617.609 620.734 617.986 620.826 618.363C620.918 618.777 620.992 619.191 621.065 619.643C621.121 619.888 621.139 620.152 621.157 620.415C621.176 620.622 621.194 620.811 621.213 621.037C621.25 621.507 621.268 621.997 621.268 622.506V638.996H617.587V622.506C617.587 622.11 617.568 621.715 617.55 621.338L617.458 620.396C617.458 620.359 617.458 620.34 617.439 620.302C617.108 623.295 614.311 625.969 611.88 627.38C610.794 628.039 609.12 628.811 607.389 628.811C606.1 628.811 604.941 628.34 604.094 627.568L603.763 627.756C603.542 627.888 603.339 628.02 603.118 628.152L509.113 683.667L498.934 689.672C498.934 689.672 498.915 689.672 498.915 689.691C498.897 689.71 498.878 689.71 498.842 689.729C497.534 690.463 495.842 690.84 494.148 690.84V686.495C496.048 686.493 497.559 686.062 498.895 685.341Z" fill="#04C45C"/>
<path opacity="0.6" d="M498.895 685.341C498.914 685.341 498.914 685.322 498.914 685.322L505.412 681.482L580.089 637.414L603.927 623.332C605.621 622.316 607 621.958 607.092 622.485C607.111 622.504 607.111 622.523 607.111 622.541V623.653C607.111 624.877 608.787 624.877 610.847 623.653C612.873 622.466 613.755 620.999 613.792 619.813V618.607C613.792 617.986 614.031 617.346 614.344 617.176C614.492 617.082 614.694 616.969 614.897 616.856C615.228 616.668 615.633 616.423 616.075 616.159C616.517 615.896 617.014 615.594 617.53 615.293C618.211 614.897 618.837 614.973 619.39 615.462C619.463 615.5 619.519 615.557 619.574 615.632C619.703 615.764 619.813 615.914 619.905 616.084C619.979 616.159 620.016 616.234 620.071 616.329C620.237 616.611 620.384 616.931 620.495 617.27C620.623 617.609 620.734 617.986 620.826 618.363C620.918 618.777 620.992 619.191 621.065 619.643C621.121 619.888 621.139 620.152 621.157 620.415C621.176 620.622 621.194 620.811 621.213 621.037C621.25 621.507 621.268 621.997 621.268 622.506V638.996H617.587V622.506C617.587 622.11 617.568 621.715 617.55 621.338L617.458 620.396C617.458 620.359 617.458 620.34 617.439 620.302C617.108 623.295 614.311 625.969 611.88 627.38C610.794 628.039 609.12 628.811 607.389 628.811C606.1 628.811 604.941 628.34 604.094 627.568L603.763 627.756C603.542 627.888 603.339 628.02 603.118 628.152L509.113 683.667L498.934 689.672C498.934 689.672 498.915 689.672 498.915 689.691C498.897 689.71 498.878 689.71 498.842 689.729C497.534 690.463 495.842 690.84 494.148 690.84V686.495C496.048 686.493 497.559 686.062 498.895 685.341Z" fill="white"/>
<path d="M332.478 590.957V595.381C332.478 596.398 333.104 597.396 334.374 598.166L334.448 598.204L479.201 683.668L489.362 689.674V689.693C489.362 689.693 489.38 689.674 489.38 689.693C490.706 690.446 492.417 690.842 494.148 690.842V686.493C492.417 686.493 490.688 686.117 489.362 685.326L482.9 681.504H482.882L334.446 593.836C333.04 593.001 332.483 592.025 332.478 590.957Z" fill="#04C45C"/>
<path opacity="0.1" d="M332.478 590.957V595.381C332.478 596.398 333.104 597.396 334.374 598.166L334.448 598.204L479.201 683.668L489.362 689.674V689.693C489.362 689.693 489.38 689.674 489.38 689.693C490.706 690.446 492.417 690.842 494.148 690.842V686.493C492.417 686.493 490.688 686.117 489.362 685.326L482.9 681.504H482.882L334.446 593.836C333.04 593.001 332.483 592.025 332.478 590.957Z" fill="white"/>
<path d="M438.628 526.666C440.389 525.627 442.656 525.283 443.692 525.897C444.626 526.452 445.562 527.005 445.562 527.005C447.632 525.762 449.29 523.805 449.29 522.581V521.564C449.29 521.225 449.4 520.868 449.566 520.547C449.713 520.246 449.934 520.001 450.155 519.869C450.155 519.851 450.174 519.851 450.174 519.851C450.542 519.643 450.873 519.455 451.002 519.361L451.076 519.323L453.028 518.156C455.088 516.95 458.9 517.214 461.55 518.777L616.482 610.266C616.537 610.299 616.589 610.343 616.644 610.379L507.183 675.011C505.422 676.05 502.571 676.045 500.814 674.997L344.869 582.032L438.628 526.666Z" fill="#263238"/>
<path d="M515.947 665.681L511.798 663.243C511.798 663.243 514.179 662.469 515.277 662.993C516.377 663.518 515.947 665.681 515.947 665.681Z" fill="#04C45C"/>
<path opacity="0.7" d="M515.947 665.681L511.798 663.243C511.798 663.243 514.179 662.469 515.277 662.993C516.377 663.518 515.947 665.681 515.947 665.681Z" fill="black"/>
<path d="M518.794 663.012C518.794 663.012 515.436 659.228 511.407 663.012C507.377 666.795 507.168 670.544 505.501 670.483C503.832 670.421 503.857 640.266 503.857 640.266L519.742 655.374L518.794 663.012Z" fill="#04C45C"/>
<path opacity="0.7" d="M518.794 663.012C518.794 663.012 515.436 659.228 511.407 663.012C507.377 666.795 507.168 670.544 505.501 670.483C503.832 670.421 503.857 640.266 503.857 640.266L519.742 655.374L518.794 663.012Z" fill="black"/>
<path d="M352.35 553.346L352.089 553.192L354.641 551.684L464.245 486.968L623.958 592.677C626.6 594.237 627.067 596.485 625.003 597.699L621.266 599.895L518.812 660.416L518.086 659.875L352.35 553.346Z" fill="#04C45C"/>
<path opacity="0.5" d="M352.35 553.346L352.089 553.192L354.641 551.684L464.245 486.968L623.958 592.677C626.6 594.237 627.067 596.485 625.003 597.699L621.266 599.895L518.812 660.416L518.086 659.875L352.35 553.346Z" fill="black"/>
<path d="M505.141 625.99L513.074 624.317V656.811C508.288 658.887 505.245 660.853 504.742 664.948L505.141 625.99Z" fill="#455A64"/>
<path d="M516.584 657.24L618.077 597.312C619.838 596.273 621.266 593.744 621.266 591.664V559.632L518.792 620.667C518.792 620.667 517.57 625.199 513.936 626.63C510.302 628.059 513.072 629.497 513.072 629.497V656.812C516.213 656.432 516.584 657.24 516.584 657.24Z" fill="#F0F0F0"/>
<path d="M507.227 624.878C508.276 624.257 509.103 624.219 509.103 624.803V625.82C509.103 626.95 510.779 626.893 512.858 625.669C514.919 624.445 516.618 622.547 516.618 621.418V620.398C516.618 619.814 518.031 618.517 519.778 617.481L354.645 520.717C353.634 521.316 352.089 522.235 352.089 522.235C351.662 522.663 351.461 523.388 351.461 523.634V524.651C351.461 525.781 349.785 527.681 347.725 528.905C345.644 530.129 343.97 530.186 343.97 529.056V528.039C343.97 527.455 343.141 527.493 342.093 528.114L507.227 624.878Z" fill="#04C45C"/>
<path opacity="0.6" d="M507.227 624.878C508.276 624.257 509.103 624.219 509.103 624.803V625.82C509.103 626.95 510.779 626.893 512.858 625.669C514.919 624.445 516.618 622.547 516.618 621.418V620.398C516.618 619.814 518.031 618.517 519.778 617.481L354.645 520.717C353.634 521.316 352.089 522.235 352.089 522.235C351.662 522.663 351.461 523.388 351.461 523.634V524.651C351.461 525.781 349.785 527.681 347.725 528.905C345.644 530.129 343.97 530.186 343.97 529.056V528.039C343.97 527.455 343.141 527.493 342.093 528.114L507.227 624.878Z" fill="black"/>
<path d="M352.35 522.39L352.089 522.235L354.641 520.727L464.245 456.012L623.958 550.333C626.6 551.892 627.067 554.14 625.003 555.354L621.266 557.551L518.792 620.665L352.35 522.39Z" fill="#04C45C"/>
<path opacity="0.5" d="M352.35 522.39L352.089 522.235L354.641 520.727L464.245 456.012L623.958 550.333C626.6 551.892 627.067 554.14 625.003 555.354L621.266 557.551L518.792 620.665L352.35 522.39Z" fill="black"/>
<path d="M343.938 527.048L508.941 624.474L503.164 629.095L338.695 531.984C339.408 530.254 340.146 529.344 340.896 528.844L343.938 527.048Z" fill="#04C45C"/>
<path opacity="0.5" d="M343.938 527.048L508.941 624.474L503.164 629.095L338.695 531.984C339.408 530.254 340.146 529.344 340.896 528.844L343.938 527.048Z" fill="black"/>
<path d="M339.339 575.617C339.237 575.557 339.138 575.484 339.041 575.398C338.968 575.361 338.912 575.304 338.857 575.229C338.728 575.097 338.618 574.946 338.526 574.777C338.452 574.701 338.415 574.626 338.36 574.532C338.194 574.249 338.047 573.929 337.936 573.59C337.808 573.251 337.697 572.875 337.605 572.498C337.513 572.084 337.439 571.669 337.366 571.217C337.31 570.973 337.292 570.709 337.274 570.445C337.255 570.238 337.237 570.05 337.218 569.824C337.182 569.353 337.163 568.863 337.163 568.355V540.477C337.163 537.361 337.766 534.24 338.691 531.978L503.16 629.095L503.855 672.772L339.393 575.646L339.339 575.617Z" fill="#04C45C"/>
<path opacity="0.7" d="M339.339 575.617C339.237 575.557 339.138 575.484 339.041 575.398C338.968 575.361 338.912 575.304 338.857 575.229C338.728 575.097 338.618 574.946 338.526 574.777C338.452 574.701 338.415 574.626 338.36 574.532C338.194 574.249 338.047 573.929 337.936 573.59C337.808 573.251 337.697 572.875 337.605 572.498C337.513 572.084 337.439 571.669 337.366 571.217C337.31 570.973 337.292 570.709 337.274 570.445C337.255 570.238 337.237 570.05 337.218 569.824C337.182 569.353 337.163 568.863 337.163 568.355V540.477C337.163 537.361 337.766 534.24 338.691 531.978L503.16 629.095L503.855 672.772L339.393 575.646L339.339 575.617Z" fill="black"/>
<path opacity="0.79" d="M503.162 629.097C503.162 629.097 373.636 567.097 361.846 561.416C354.069 557.669 350.246 565.54 352.087 573.693C353.696 580.815 360.571 588.154 360.571 588.154L339.393 575.648L339.338 575.617C339.236 575.557 339.137 575.484 339.04 575.398C338.966 575.361 338.911 575.304 338.856 575.229C338.727 575.097 338.616 574.946 338.524 574.777C338.451 574.701 338.414 574.626 338.359 574.532C338.193 574.249 338.046 573.929 337.935 573.59C337.806 573.251 337.696 572.875 337.604 572.498C337.511 572.084 337.438 571.669 337.364 571.217C337.309 570.973 337.291 570.709 337.272 570.445C337.254 570.238 337.235 570.05 337.217 569.824C337.18 569.353 337.162 568.863 337.162 568.355V540.477C337.162 537.361 337.764 534.24 338.69 531.978L503.162 629.097Z" fill="#263238"/>
<path d="M501.639 637.604H505.32C505.32 633.575 506.48 630.244 507.106 629.378C507.916 630.018 508.947 630.394 510.124 630.394C511.855 630.394 513.566 629.604 514.708 628.926C516.199 628.04 517.855 626.686 518.96 625.104C519.033 624.991 519.125 624.878 519.181 624.765C519.843 623.767 520.249 622.656 520.285 621.547L617.493 564.15L620.787 562.192L625.002 559.706C625.868 559.197 626.291 558.501 626.291 557.766V553.361C626.291 554.228 625.794 554.868 625.002 555.356L624.947 555.393L613.792 561.964L519.787 617.479C518.037 618.515 516.603 619.814 516.603 620.396V621.413C516.603 621.903 516.29 622.543 515.737 623.202C515.074 624.069 514.025 624.973 512.866 625.669C510.785 626.893 509.111 626.95 509.111 625.82V624.803C509.111 624.219 508.283 624.257 507.233 624.878L505.373 625.989C503.314 627.193 501.639 632.408 501.639 637.604Z" fill="#04C45C"/>
<path d="M505.32 637.604V665.482C505.32 665.877 505.338 666.273 505.357 666.649L505.449 667.591C505.449 667.629 505.449 667.648 505.467 667.685C505.799 664.693 508.596 662.019 511.027 660.608C512.113 659.949 513.787 659.177 515.518 659.177C516.807 659.177 517.965 659.647 518.812 660.42L519.144 660.231C519.365 660.099 519.567 659.968 519.788 659.836L613.793 604.321C613.793 604.321 616.259 602.871 619.187 601.14C619.684 600.839 620.218 600.537 620.734 600.217C622.318 599.275 623.918 598.334 625.28 597.526C625.907 597.055 626.293 596.471 626.293 595.718V596.923V600.123C626.293 600.744 625.98 601.347 625.354 601.818C625.354 601.837 625.336 601.837 625.317 601.855C624.783 602.176 624.212 602.496 623.642 602.854C623.292 603.061 622.942 603.268 622.592 603.475C621.966 603.833 621.358 604.209 620.787 604.548C620.382 604.793 620.014 605.019 619.664 605.208C619.37 605.377 619.112 605.546 618.872 605.678C618.025 606.187 617.491 606.507 617.491 606.507L542.814 650.576L518.976 664.657C517.282 665.674 515.903 666.031 515.811 665.504C515.796 665.431 515.792 665.343 515.792 665.324V664.338C515.792 663.114 514.117 663.114 512.056 664.338C510.031 665.525 509.147 666.992 509.112 668.178V669.384C509.112 670.005 508.872 670.645 508.559 670.815C508.412 670.909 508.209 671.022 508.007 671.135C507.675 671.323 507.27 671.568 506.828 671.832C506.386 672.095 505.889 672.397 505.373 672.698C504.692 673.093 504.066 673.018 503.514 672.528C503.44 672.491 503.385 672.434 503.33 672.359C503.201 672.227 503.09 672.077 502.998 671.907V671.888C502.924 671.813 502.888 671.756 502.832 671.662C502.667 671.38 502.519 671.06 502.409 670.721C502.28 670.382 502.169 670.005 502.077 669.628C501.985 669.214 501.912 668.8 501.838 668.348C501.783 668.103 501.764 667.839 501.746 667.576C501.728 667.369 501.709 667.18 501.691 666.954C501.654 666.483 501.635 665.994 501.635 665.485V637.607H505.32V637.604Z" fill="#04C45C"/>
<g opacity="0.6">
<path d="M501.639 637.604H505.32C505.32 633.575 506.48 630.244 507.106 629.378C507.916 630.018 508.947 630.394 510.124 630.394C511.855 630.394 513.566 629.604 514.708 628.926C516.199 628.04 517.855 626.686 518.96 625.104C519.033 624.991 519.125 624.878 519.181 624.765C519.843 623.767 520.249 622.656 520.285 621.547L617.493 564.15L620.787 562.192L625.002 559.706C625.868 559.197 626.291 558.501 626.291 557.766V553.361C626.291 554.228 625.794 554.868 625.002 555.356L624.947 555.393L613.792 561.964L519.787 617.479C518.037 618.515 516.603 619.814 516.603 620.396V621.413C516.603 621.903 516.29 622.543 515.737 623.202C515.074 624.069 514.025 624.973 512.866 625.669C510.785 626.893 509.111 626.95 509.111 625.82V624.803C509.111 624.219 508.283 624.257 507.233 624.878L505.373 625.989C503.314 627.193 501.639 632.408 501.639 637.604Z" fill="black"/>
<path d="M505.32 637.604V665.482C505.32 665.877 505.338 666.273 505.357 666.649L505.449 667.591C505.449 667.629 505.449 667.648 505.467 667.685C505.799 664.693 508.596 662.019 511.027 660.608C512.113 659.949 513.787 659.177 515.518 659.177C516.807 659.177 517.965 659.647 518.812 660.42L519.144 660.231C519.365 660.099 519.567 659.968 519.788 659.836L613.793 604.321C613.793 604.321 616.259 602.871 619.187 601.14C619.684 600.839 620.218 600.537 620.734 600.217C622.318 599.275 623.918 598.334 625.28 597.526C625.907 597.055 626.293 596.471 626.293 595.718V596.923V600.123C626.293 600.744 625.98 601.347 625.354 601.818C625.354 601.837 625.336 601.837 625.317 601.855C624.783 602.176 624.212 602.496 623.642 602.854C623.292 603.061 622.942 603.268 622.592 603.475C621.966 603.833 621.358 604.209 620.787 604.548C620.382 604.793 620.014 605.019 619.664 605.208C619.37 605.377 619.112 605.546 618.872 605.678C618.025 606.187 617.491 606.507 617.491 606.507L542.814 650.576L518.976 664.657C517.282 665.674 515.903 666.031 515.811 665.504C515.796 665.431 515.792 665.343 515.792 665.324V664.338C515.792 663.114 514.117 663.114 512.056 664.338C510.031 665.525 509.147 666.992 509.112 668.178V669.384C509.112 670.005 508.872 670.645 508.559 670.815C508.412 670.909 508.209 671.022 508.007 671.135C507.675 671.323 507.27 671.568 506.828 671.832C506.386 672.095 505.889 672.397 505.373 672.698C504.692 673.093 504.066 673.018 503.514 672.528C503.44 672.491 503.385 672.434 503.33 672.359C503.201 672.227 503.09 672.077 502.998 671.907V671.888C502.924 671.813 502.888 671.756 502.832 671.662C502.667 671.38 502.519 671.06 502.409 670.721C502.28 670.382 502.169 670.005 502.077 669.628C501.985 669.214 501.912 668.8 501.838 668.348C501.783 668.103 501.764 667.839 501.746 667.576C501.728 667.369 501.709 667.18 501.691 666.954C501.654 666.483 501.635 665.994 501.635 665.485V637.607H505.32V637.604Z" fill="black"/>
</g>
<path d="M338.698 531.975L495.011 624.274L613.167 554.508C614.935 553.473 614.935 551.779 613.167 550.744L458.493 459.405L354.658 520.719H354.64C353.627 521.321 352.08 522.244 352.08 522.244C351.657 522.658 351.454 523.393 351.454 523.638V524.654C351.454 525.784 349.778 527.685 347.718 528.909C347.607 528.984 347.497 529.022 347.386 529.078L343.945 527.044L342.306 528.005C342.232 528.043 342.177 528.061 342.085 528.118L342.103 528.137L340.888 528.852C340.153 529.34 339.398 530.261 338.698 531.975Z" fill="#263238"/>
<path d="M604.37 555.207L599.667 552.639L603.95 551.591C604.822 552.606 604.878 553.834 604.37 555.207Z" fill="#E0E0E0"/>
<path opacity="0.5" d="M604.37 555.207L599.667 552.639L603.95 551.591C604.822 552.606 604.878 553.834 604.37 555.207Z" fill="#E0E0E0"/>
<path d="M479.78 619.376C482.421 620.936 486.703 620.936 489.345 619.376L596.717 555.974L435.986 452.062L432.231 449.84L324.863 522.239C322.231 523.802 322.231 526.343 324.863 527.887L479.78 619.376Z" fill="#04C45C"/>
<path d="M520.096 490.611L601.213 546.835L557.539 512.652L581.778 498.339L609.975 514.999C609.975 514.999 609.975 542.259 609.975 544.779C609.975 547.299 607.213 550.887 606.209 550.297C606.209 550.297 604.001 550.759 600.818 552.254C597.634 553.75 593.036 558.141 593.036 558.141L506.999 498.344L520.096 490.611Z" fill="#04C45C"/>
<path opacity="0.2" d="M520.096 490.611L601.213 546.835L557.539 512.652L581.778 498.339L609.975 514.999C609.975 514.999 609.975 542.259 609.975 544.779C609.975 547.299 607.213 550.887 606.209 550.297C606.209 550.297 604.001 550.759 600.818 552.254C597.634 553.75 593.036 558.141 593.036 558.141L506.999 498.344L520.096 490.611Z" fill="black"/>
<path d="M484.562 582.231V616.603C485.723 616.603 486.881 616.358 487.746 615.831L499.526 608.885L589.243 555.912L589.261 520.41L484.562 582.231Z" fill="white"/>
<path d="M327.55 492.698V521.236C327.55 523.307 328.986 525.848 330.734 526.883L469.615 608.885L481.377 615.83C482.242 616.358 483.402 616.603 484.561 616.603V584.922L327.55 492.698Z" fill="#F0F0F0"/>
<path d="M589.243 555.912C589.28 554.669 589.795 553.449 590.587 552.356C591.692 550.774 593.347 549.42 594.839 548.535C595.981 547.857 597.691 547.066 599.422 547.066C600.601 547.066 601.63 547.155 602.44 547.796V512.629L589.261 520.41L589.243 555.912Z" fill="#455A64"/>
<path d="M594.507 548.751C593.106 549.634 591.611 550.888 590.587 552.355C589.795 553.447 589.28 554.668 589.243 555.911L589.259 521.652H594.506L594.507 548.751Z" fill="#F5F5F5"/>
<path d="M435.986 421.089L596.717 516.004C596.717 516.004 596.717 516.983 596.717 518.205C596.717 519.429 598.393 519.881 600.453 518.657C602.534 517.433 604.208 515.91 604.208 513.8L604.411 511.71L440.643 415.025L439.98 414.629C439.815 414.95 439.704 415.307 439.704 415.646V416.663C439.704 417.889 438.047 419.846 435.986 421.089Z" fill="#04C45C"/>
<path opacity="0.2" d="M435.986 421.089L596.717 516.004C596.717 516.004 596.717 516.983 596.717 518.205C596.717 519.429 598.393 519.881 600.453 518.657C602.534 517.433 604.208 515.91 604.208 513.8L604.411 511.71L440.643 415.025L439.98 414.629C439.815 414.95 439.704 415.307 439.704 415.646V416.663C439.704 417.889 438.047 419.846 435.986 421.089Z" fill="black"/>
<path d="M489.345 579.406L594.337 517.409C595.671 516.694 596.89 516.12 597.403 516.396L596.717 516.004L435.986 421.089C435.986 421.089 435.042 420.536 434.108 419.981C433.072 419.367 430.805 419.711 429.044 420.75L324.865 482.271C322.233 483.834 322.233 486.374 324.865 487.918L479.783 579.408C482.421 580.966 486.704 580.967 489.345 579.406Z" fill="#04C45C"/>
<path d="M439.98 414.633L440.643 415.028L604.411 511.713C604.411 511.713 604.521 511.45 604.761 511.262C604.908 511.167 605.092 511.073 605.313 510.941L606.492 510.245C606.934 509.981 607.431 509.68 607.946 509.378C608.628 508.983 609.254 509.058 609.806 509.548C609.88 509.586 609.935 509.642 609.99 509.717C610.174 509.906 610.34 510.15 610.487 510.414C610.653 510.697 610.8 511.017 610.911 511.356C611.04 511.695 611.15 512.071 611.242 512.448C611.334 512.862 611.408 513.277 611.482 513.729C611.537 513.973 611.555 514.237 611.574 514.501C611.592 514.708 611.611 514.896 611.629 515.122C611.666 515.593 611.684 516.083 611.684 516.591V511.885C611.684 509.288 609.532 505.917 606.898 504.355L451.966 412.866C449.316 411.303 445.505 411.041 443.444 412.245L441.492 413.412L441.418 413.45C441.29 413.544 440.958 413.732 440.59 413.939C440.59 413.939 440.571 413.939 440.571 413.958C440.349 414.087 440.128 414.332 439.98 414.633Z" fill="#04C45C"/>
<path d="M489.348 619.371L495.828 615.531L593.036 558.134C593.073 556.891 593.57 555.669 594.362 554.577C595.467 552.995 597.122 551.641 598.614 550.756C599.755 550.078 601.466 549.287 603.197 549.287C604.376 549.287 605.405 549.663 606.215 550.304C606.842 549.437 608.002 546.106 608.002 542.078H611.683C611.683 547.273 610.007 552.488 607.946 553.693L606.087 554.805C605.037 555.426 604.208 555.464 604.208 554.88V553.863C604.208 552.733 602.533 552.79 600.453 554.014C598.391 555.238 596.717 557.138 596.717 558.268V559.285C596.717 559.869 595.281 561.168 593.533 562.202L499.528 617.717L489.348 623.723C489.348 623.723 489.33 623.723 489.33 623.742C488.004 624.495 486.293 624.89 484.562 624.89V620.542C486.292 620.537 488.023 620.16 489.348 619.371Z" fill="#04C45C"/>
<path opacity="0.4" d="M489.348 619.371L495.828 615.531L593.036 558.134C593.073 556.891 593.57 555.669 594.362 554.577C595.467 552.995 597.122 551.641 598.614 550.756C599.755 550.078 601.466 549.287 603.197 549.287C604.376 549.287 605.405 549.663 606.215 550.304C606.842 549.437 608.002 546.106 608.002 542.078H611.683C611.683 547.273 610.007 552.488 607.946 553.693L606.087 554.805C605.037 555.426 604.208 555.464 604.208 554.88V553.863C604.208 552.733 602.533 552.79 600.453 554.014C598.391 555.238 596.717 557.138 596.717 558.268V559.285C596.717 559.869 595.281 561.168 593.533 562.202L499.528 617.717L489.348 623.723C489.348 623.723 489.33 623.723 489.33 623.742C488.004 624.495 486.293 624.89 484.562 624.89V620.542C486.292 620.537 488.023 620.16 489.348 619.371Z" fill="black"/>
<path d="M489.311 579.427C489.311 579.427 489.33 579.408 489.348 579.408L495.828 575.568L570.505 531.499L594.343 517.418C596.037 516.401 597.417 516.043 597.509 516.57C597.527 516.589 597.527 516.608 597.527 516.627V517.738C597.527 518.962 599.203 518.962 601.264 517.738C603.289 516.552 604.171 515.084 604.208 513.898V512.693C604.208 512.071 604.447 511.431 604.761 511.262C604.908 511.167 605.11 511.054 605.313 510.941C605.644 510.753 606.049 510.508 606.491 510.245C606.933 509.981 607.431 509.68 607.946 509.378C608.627 508.983 609.254 509.058 609.806 509.548C609.88 509.585 609.935 509.642 609.99 509.717C610.119 509.849 610.23 510 610.322 510.169C610.395 510.245 610.432 510.32 610.487 510.414C610.653 510.697 610.8 511.017 610.911 511.356C611.04 511.695 611.15 512.071 611.242 512.448C611.334 512.862 611.408 513.277 611.482 513.729C611.537 513.973 611.555 514.237 611.574 514.501C611.592 514.708 611.611 514.896 611.629 515.122C611.666 515.593 611.684 516.083 611.684 516.591V542.078H608.003V516.591C608.003 516.196 607.985 515.8 607.966 515.423L607.874 514.482C607.874 514.444 607.874 514.425 607.856 514.388C607.524 517.38 604.727 520.054 602.296 521.465C601.21 522.124 599.536 522.896 597.805 522.896C596.516 522.896 595.356 522.425 594.511 521.653L594.179 521.842C593.958 521.974 593.756 522.105 593.535 522.237L499.53 577.752L489.35 583.758C489.35 583.758 489.332 583.758 489.332 583.777C489.313 583.796 489.295 583.796 489.258 583.814C487.95 584.549 486.258 584.925 484.564 584.925V580.58C486.464 580.577 487.976 580.146 489.311 579.427Z" fill="#04C45C"/>
<path opacity="0.4" d="M489.311 579.427C489.311 579.427 489.33 579.408 489.348 579.408L495.828 575.568L570.505 531.499L594.343 517.418C596.037 516.401 597.417 516.043 597.509 516.57C597.527 516.589 597.527 516.608 597.527 516.627V517.738C597.527 518.962 599.203 518.962 601.264 517.738C603.289 516.552 604.171 515.084 604.208 513.898V512.693C604.208 512.071 604.447 511.431 604.761 511.262C604.908 511.167 605.11 511.054 605.313 510.941C605.644 510.753 606.049 510.508 606.491 510.245C606.933 509.981 607.431 509.68 607.946 509.378C608.627 508.983 609.254 509.058 609.806 509.548C609.88 509.585 609.935 509.642 609.99 509.717C610.119 509.849 610.23 510 610.322 510.169C610.395 510.245 610.432 510.32 610.487 510.414C610.653 510.697 610.8 511.017 610.911 511.356C611.04 511.695 611.15 512.071 611.242 512.448C611.334 512.862 611.408 513.277 611.482 513.729C611.537 513.973 611.555 514.237 611.574 514.501C611.592 514.708 611.611 514.896 611.629 515.122C611.666 515.593 611.684 516.083 611.684 516.591V542.078H608.003V516.591C608.003 516.196 607.985 515.8 607.966 515.423L607.874 514.482C607.874 514.444 607.874 514.425 607.856 514.388C607.524 517.38 604.727 520.054 602.296 521.465C601.21 522.124 599.536 522.896 597.805 522.896C596.516 522.896 595.356 522.425 594.511 521.653L594.179 521.842C593.958 521.974 593.756 522.105 593.535 522.237L499.53 577.752L489.35 583.758C489.35 583.758 489.332 583.758 489.332 583.777C489.313 583.796 489.295 583.796 489.258 583.814C487.95 584.549 486.258 584.925 484.564 584.925V580.58C486.464 580.577 487.976 580.146 489.311 579.427Z" fill="black"/>
<path d="M322.893 485.041V489.464C322.893 490.481 323.519 491.479 324.789 492.25L324.863 492.287L469.615 577.752L479.777 583.758V583.777C479.777 583.777 479.795 583.758 479.795 583.777C481.121 584.53 482.832 584.925 484.562 584.925V580.577C482.832 580.577 481.102 580.2 479.777 579.409L473.315 575.588H473.296L324.861 487.92C323.457 487.085 322.898 486.109 322.893 485.041Z" fill="#04C45C"/>
<path opacity="0.2" d="M322.893 485.041V489.464C322.893 490.481 323.519 491.479 324.789 492.25L324.863 492.287L469.615 577.752L479.777 583.758V583.777C479.777 583.777 479.795 583.758 479.795 583.777C481.121 584.53 482.832 584.925 484.562 584.925V580.577C482.832 580.577 481.102 580.2 479.777 579.409L473.315 575.588H473.296L324.861 487.92C323.457 487.085 322.898 486.109 322.893 485.041Z" fill="black"/>
<path d="M322.893 525V529.424C322.893 530.441 323.519 531.439 324.789 532.21L324.863 532.247L469.615 617.712L479.777 623.718V623.736C479.777 623.736 479.795 623.718 479.795 623.736C481.121 624.49 482.832 624.885 484.562 624.885V620.537C482.832 620.537 481.102 620.16 479.777 619.369L473.315 615.548H473.296L324.861 527.88C323.457 527.046 322.898 526.069 322.893 525Z" fill="#04C45C"/>
<path opacity="0.2" d="M322.893 525V529.424C322.893 530.441 323.519 531.439 324.789 532.21L324.863 532.247L469.615 617.712L479.777 623.718V623.736C479.777 623.736 479.795 623.718 479.795 623.736C481.121 624.49 482.832 624.885 484.562 624.885V620.537C482.832 620.537 481.102 620.16 479.777 619.369L473.315 615.548H473.296L324.861 527.88C323.457 527.046 322.898 526.069 322.893 525Z" fill="black"/>
<path d="M389.75 369.667L374.395 397.681L396.79 409.868L413.088 385.051L389.75 369.667Z" fill="#FFA8A7"/>
<path d="M444.281 306.587C435.743 305.096 422.812 304.698 414.407 319.446C406 334.193 387.896 370.564 387.896 370.564C387.896 370.564 398.48 384.572 413.789 387.116L438.817 346.504L444.281 306.587Z" fill="#04C45C"/>
<path d="M424.111 649.598H404.996V683.066H424.111V649.598Z" fill="#FFA8A7"/>
<path d="M368.755 641.445L349.65 642.118L348.692 606.7L367.797 606.029L368.755 641.445Z" fill="#FFA8A7"/>
<path d="M404.996 673.415V670.62C403.166 671.435 398.917 688.017 391.332 695.091C385.303 700.715 377.077 707.212 374.986 713.483C372.81 720.004 386.441 723.604 392.074 722.584C398.619 721.399 409.964 716.684 412.813 712.315C415.661 707.946 416.995 701.501 419.308 698.298C421.622 695.096 426.957 691.52 428.207 687.813C428.895 685.778 428.078 681.318 427.113 677.55C426.227 674.093 425.266 670.293 424.113 670.616C424.109 671.037 424.113 672.748 424.113 672.748C422.725 674.321 418.885 675.882 414.556 676.052C411.757 676.165 404.972 675.596 404.996 673.415Z" fill="#263238"/>
<path d="M349.447 636.09C348.455 636.126 347.646 637.557 345.458 639.982C342.811 642.911 338.484 646.07 334.214 648.256C327.056 651.919 313.14 657.557 306.841 660.459C302.905 662.272 303.091 667.132 307.157 669.899C311.225 672.665 321.044 674.658 332.834 671.962C339.258 670.493 347.619 664.426 352.911 664.753C358.202 665.08 368.106 665.003 372.013 662.248C375.92 659.495 374.356 653.613 373.251 648.559C372.046 643.043 370.322 634.604 368.536 634.981L368.594 636.715C366.296 640.274 354.596 641.728 349.548 639.109L349.447 636.09Z" fill="#263238"/>
<path d="M501.112 446.06C505.3 476.272 499.657 482.072 471.579 511.012C456.481 526.572 432.149 549.401 432.149 549.401C432.149 549.401 432.501 559.049 432.7 580.687C432.874 599.743 425.085 661.758 425.085 661.758C425.085 661.758 412.403 667.214 403.695 661.551C403.695 661.551 399.763 615.414 397.642 591.381C394.762 558.783 393.252 542.454 394.881 535.438C396.316 529.256 424.896 492.361 431.488 482.005L370.761 518.084C370.761 518.084 372.831 533.884 372.528 545.662C371.862 571.531 368.757 623.196 368.757 623.196C368.757 623.196 354.851 629.559 347.954 624.074C347.954 624.074 330.457 511.083 330.457 501.81C330.457 487.718 390.296 445.656 401.621 435.86C408.084 430.27 415.292 424.3 415.292 424.3L501.112 446.06Z" fill="#455A64"/>
<path d="M431.488 482.005C431.488 482.005 421.746 474.64 417.612 461.764C417.612 461.764 418.133 470.441 419.775 477.16C421.417 483.878 370.762 518.086 370.762 518.086L431.488 482.005Z" fill="#37474F"/>
<path d="M465.249 252.557C468.669 237.633 459.612 222.699 445.02 219.201C430.427 215.703 415.825 224.965 412.404 239.889C408.984 254.813 418.041 269.747 432.634 273.245C447.226 276.743 461.829 267.481 465.249 252.557Z" fill="#263238"/>
<path d="M495.837 323.397C495.837 323.397 502.548 329.007 502.548 346.743V385.048L501.589 449.451C488.183 464.366 427.889 458.71 413.021 426.189C413.021 426.189 413.138 358.193 413.138 342.965C413.138 327.737 421.436 307.943 444.279 306.585L473.772 313.603L495.837 323.397Z" fill="#263238"/>
<path d="M485.728 265.94C485.728 265.94 481.33 287.07 479.567 290.542C477.803 294.014 474.16 295 474.16 295L474.468 280.136L485.728 265.94Z" fill="#263238"/>
<path d="M480.208 235.671C480.208 235.671 484.944 234.84 488.637 238.701C492.256 242.486 490.235 254.335 485.727 265.94L477.444 266.913L480.208 235.671Z" fill="#263238"/>
<path d="M474.958 266.92C476.619 267.935 478.989 264.672 481.038 262.479C483.086 260.287 489.773 257.291 493.11 264.48C496.508 271.806 490.165 281.485 484.9 283.175C475.827 286.087 474.466 280.136 474.466 280.136L473.773 313.604C465.954 322.537 439.215 320.406 444.256 312.719L444.281 302.533C444.281 302.533 436.06 303.808 432.05 303.175C425.378 302.12 421.181 296.736 419.157 289.35C415.906 277.486 414.673 267.908 417.43 244.576C420.453 219.003 449.537 218.737 465.243 228.847C480.948 238.956 474.958 266.92 474.958 266.92Z" fill="#FFA8A7"/>
<path d="M451.851 272.773H450.421C445.317 272.773 441.166 268.527 441.166 263.306C441.166 258.086 445.317 253.84 450.421 253.84H451.851C456.955 253.84 461.108 258.086 461.108 263.306C461.108 268.526 456.956 272.773 451.851 272.773ZM450.421 255.436C446.179 255.436 442.726 258.966 442.726 263.306C442.726 267.646 446.179 271.176 450.421 271.176H451.851C456.094 271.176 459.548 267.646 459.548 263.306C459.548 258.966 456.094 255.436 451.851 255.436H450.421Z" fill="#263238"/>
<path d="M423.627 272.773H422.197C417.093 272.773 412.942 268.527 412.942 263.306C412.942 258.086 417.093 253.84 422.197 253.84H423.627C428.731 253.84 432.884 258.086 432.884 263.306C432.884 268.526 428.731 272.773 423.627 272.773ZM422.197 255.436C417.956 255.436 414.504 258.966 414.504 263.306C414.504 267.646 417.957 271.176 422.197 271.176H423.627C427.871 271.176 431.322 267.646 431.322 263.306C431.322 258.966 427.871 255.436 423.627 255.436H422.197Z" fill="#263238"/>
<path d="M441.279 261.438C440.422 260 438.504 259 436.39 258.89C434.568 258.795 432.961 259.411 432.123 260.537L430.879 259.572C432.046 258 434.08 257.17 436.468 257.297C439.123 257.435 441.477 258.704 442.612 260.608L441.279 261.438Z" fill="#263238"/>
<path d="M479.944 261.363H460.251V262.958H479.944V261.363Z" fill="#263238"/>
<path d="M474.959 269.777C475.794 269.794 478.971 264.403 481.039 262.479C483.903 259.813 480.208 235.671 480.208 235.671C480.208 235.671 482.962 229.67 477.445 223.459C473.519 219.042 466.96 218.551 455.761 216.751C449.886 215.806 440.978 214.125 435.111 213.009C428.103 211.677 422.305 210.266 417.358 214.663C413.508 218.085 411.851 224.132 413.923 228.898C414.408 230.016 415.113 231.026 415.913 231.935C417.331 233.548 418.937 234.818 420.955 235.487C420.955 235.487 424.011 238.259 434.639 239.583C445.267 240.906 461.821 239.327 464.083 239.012C467.165 238.581 467.822 241.635 469.485 249.981C470.941 257.307 472.151 269.722 474.959 269.777Z" fill="#263238"/>
<path d="M480.191 237.547L490.234 232.033C488.809 229.09 485.404 227.938 482.632 229.461C479.858 230.985 478.765 234.604 480.191 237.547Z" fill="#263238"/>
<path d="M444.281 302.534C444.281 302.534 459.174 299.467 464.382 296.635C467.867 294.74 470.738 291.456 471.58 289.352C471.58 289.352 470.604 293.872 467.491 297.943C463.682 302.921 444.281 306.589 444.281 306.589V302.534Z" fill="#F28F8F"/>
<path d="M447.86 263.111C447.86 264.862 449.196 266.278 450.845 266.274C452.494 266.269 453.829 264.847 453.829 263.095C453.829 261.344 452.494 259.928 450.845 259.931C449.196 259.936 447.86 261.361 447.86 263.111Z" fill="#263238"/>
<path d="M452.653 250.474L459.037 254.078C459.98 252.202 459.312 249.873 457.549 248.879C455.786 247.884 453.595 248.598 452.653 250.474Z" fill="#263238"/>
<path d="M445.629 284.197L438.815 286.811C439.49 288.809 441.562 289.843 443.444 289.121C445.326 288.398 446.303 286.195 445.629 284.197Z" fill="#F28F8F"/>
<path d="M420.48 253.16L426.302 248.574C425.114 246.869 422.849 246.514 421.24 247.78C419.633 249.046 419.291 251.455 420.48 253.16Z" fill="#263238"/>
<path d="M423.036 262.243C423.036 263.994 424.372 265.41 426.021 265.405C427.668 265.399 429.006 263.977 429.006 262.225C429.006 260.474 427.67 259.058 426.021 259.062C424.374 259.067 423.036 260.491 423.036 262.243Z" fill="#263238"/>
<path d="M437.787 259.793L437.441 278.303L426.742 275.892L437.787 259.793Z" fill="#F28F8F"/>
<path d="M419.496 413.647V415.412C419.496 417.192 418.565 418.843 417.063 419.733L370.573 447.094C369.822 447.539 368.978 447.757 368.132 447.757C367.295 447.757 366.45 447.539 365.7 447.094L280.417 396.741C278.907 395.85 277.976 394.2 277.976 392.42V391.206L368.134 444.44L419.496 413.647Z" fill="#04C45C"/>
<path opacity="0.6" d="M419.496 413.647V415.412C419.496 417.192 418.565 418.843 417.063 419.733L370.573 447.094C369.822 447.539 368.978 447.757 368.132 447.757C367.295 447.757 366.45 447.539 365.7 447.094L280.417 396.741C278.907 395.85 277.976 394.2 277.976 392.42V391.206L368.134 444.44L419.496 413.647Z" fill="black"/>
<path d="M277.972 391.204L328.541 361.349C329.44 360.818 330.548 360.818 331.447 361.349L419.173 413.154C419.603 413.409 419.603 414.044 419.173 414.297L368.131 444.44L277.972 391.204Z" fill="#04C45C"/>
<path opacity="0.5" d="M277.972 391.204L328.541 361.349C329.44 360.818 330.548 360.818 331.447 361.349L419.173 413.154C419.603 413.409 419.603 414.044 419.173 414.297L368.131 444.44L277.972 391.204Z" fill="black"/>
<path d="M368.596 440.051L395.87 423.963L316.121 376.873L288.704 392.877L368.596 440.051Z" fill="#263238"/>
<path d="M382.002 395.299L381.499 395.595L368.131 403.488L344.358 389.449L343.863 389.162L357.734 380.973L382.002 395.299Z" fill="#263238"/>
<path d="M381.499 395.595L368.131 403.488L344.358 389.449L357.733 381.557L381.499 395.595Z" fill="#263238"/>
<path opacity="0.7" d="M368.131 444.439V447.757C367.294 447.757 366.448 447.539 365.698 447.094L280.415 396.741C278.905 395.85 277.974 394.2 277.974 392.42V391.206L368.131 444.439Z" fill="black"/>
<path d="M366.756 445.175C365.143 445.812 363.308 445.69 361.78 444.781L276.871 394.645C275.378 393.764 274.353 392.254 274.062 390.516L264.766 333.825C264.714 333.503 264.689 333.179 264.689 332.856C264.689 331.276 265.304 329.766 266.397 328.656L354.635 380.764C355.736 381.42 356.496 382.536 356.709 383.82L366.756 445.175Z" fill="#04C45C"/>
<path opacity="0.5" d="M366.756 445.175C365.143 445.812 363.308 445.69 361.78 444.781L276.871 394.645C275.378 393.764 274.353 392.254 274.062 390.516L264.766 333.825C264.714 333.503 264.689 333.179 264.689 332.856C264.689 331.276 265.304 329.766 266.397 328.656L354.635 380.764C355.736 381.42 356.496 382.536 356.709 383.82L366.756 445.175Z" fill="black"/>
<path d="M368.131 444.442L367.55 444.783C367.294 444.932 367.029 445.062 366.756 445.177L356.709 383.822C356.496 382.538 355.736 381.422 354.635 380.766L266.397 328.658C266.738 328.309 267.14 328.004 267.575 327.742L355.993 379.946C357.094 380.6 357.854 381.718 358.067 383.002L368.131 444.442Z" fill="#E0E0E0"/>
<path d="M318.935 392.841C318.312 389.045 314.481 384.003 310.378 381.581C306.273 379.158 303.451 380.271 304.073 384.067C304.696 387.862 308.528 392.904 312.633 395.327C316.736 397.749 319.558 396.636 318.935 392.841Z" fill="#04C45C"/>
<path d="M336.328 429.743C336.325 429.676 336.182 426.627 334.898 422.47C333.601 418.267 329.707 402.12 320.84 399.687C319.789 399.398 318.659 399.286 317.596 399.583C315.13 400.269 314.005 402.883 313.523 405.225C312.815 408.663 313.275 412.205 313.466 415.672C312.107 414.082 310.505 412.712 308.739 411.62C307.06 410.582 305.319 409.5 303.297 409.63C302.751 409.665 302.137 409.82 301.874 410.312C301.549 410.921 301.946 411.662 302.378 412.197C303.265 413.296 304.35 414.215 305.228 415.321C305.963 416.247 306.543 417.288 307.16 418.3C308.283 420.142 309.541 421.893 310.794 423.645C313.356 427.216 316.103 430.63 319.73 433.102C321.977 434.632 327.337 437.818 333.126 438.558C339.597 439.385 345.895 439.286 349.984 437.818L336.328 429.743Z" fill="#FFA8A7"/>
<path d="M494.067 323.887C488.081 320.747 479.348 333.222 482.128 346.268C484.909 359.313 498.601 405.169 498.601 405.169C498.601 405.169 436.743 410.832 431.49 411.488C427.827 411.945 423.724 410.041 420.331 408.891C415.701 407.321 411.044 406.227 406.485 404.505C405.668 404.196 404.816 403.881 403.949 403.967C403.082 404.053 402.198 404.666 402.093 405.549C402.029 406.078 402.245 406.597 402.474 407.074C403.927 410.106 406.145 412.751 408.854 414.681C410.115 415.578 411.509 416.333 412.609 417.447C413.337 418.185 414.916 420.217 414.34 421.335L389.755 435.803C389.755 435.803 395.424 440.84 415.91 434.968C430.06 430.912 437.444 427.141 437.444 427.141C437.444 427.141 510.34 430.241 523.503 426.155C528.157 424.71 529.841 421.339 526.695 405.991C523.043 388.164 512.717 355.743 510.367 347.24C505.226 328.658 503.966 329.079 494.067 323.887Z" fill="#FFA8A7"/>
<path d="M490.986 321.243C490.986 321.243 500.854 324.077 505.106 329.764C509.207 335.247 525.832 390.827 525.832 390.827C525.832 390.827 513.077 402.89 494.6 399.408C494.6 399.408 481.4 361.138 479.999 350.922C477.443 335.078 485.008 322.613 490.986 321.243Z" fill="#04C45C"/>
<path d="M437.677 358.349C436.884 354.071 439.498 351.766 443.518 353.203C447.537 354.639 451.441 359.27 452.234 363.55C453.028 367.827 438.471 362.627 437.677 358.349Z" fill="#04C45C"/>
<path d="M465.286 371.682L453.409 363.968C454.02 367.26 449.683 366.8 445.783 365.408C441.884 364.014 437.111 361.22 436.502 357.93L426.152 357.794C425.204 357.782 425.182 359.054 426.103 360.107C428.664 363.035 434.614 368.21 447.134 372.682C459.67 377.161 464.471 375.772 466.272 374.373C466.914 373.874 466.376 372.389 465.286 371.682Z" fill="#04C45C"/>
<defs>
<linearGradient id="paint0_linear_81_406" x1="-6.85474e-06" y1="24.5" x2="1526.5" y2="982" gradientUnits="userSpaceOnUse">
<stop stop-color="#82FF55"/>
<stop offset="1" stop-color="#C3FFDE"/>
</linearGradient>
<linearGradient id="paint1_linear_81_406" x1="3.26273e-06" y1="436" x2="1515" y2="982" gradientUnits="userSpaceOnUse">
<stop stop-color="#013B1C"/>
<stop offset="1" stop-color="#03A14C"/>
</linearGradient>
</defs>
</svg>
