<svg width="2020" height="982" viewBox="0 0 2020 982" fill="none" xmlns="http://www.w3.org/2000/svg">
<rect width="2020" height="949.138" fill="url(#paint0_linear_81_406)"/>
<path d="M1129.04 623.581C1254.41 336.642 326.33 372.382 0 383.614V982H2020V757.35C1176.39 901.841 981.628 960.955 1129.04 623.581Z" fill="url(#paint1_linear_81_406)"/>
<path d="M205.188 792.626C354.18 874.374 595.745 874.376 744.737 792.628C893.731 710.875 893.731 578.336 744.737 496.585C595.743 414.835 354.18 414.835 205.186 496.583C56.1939 578.334 56.1939 710.877 205.188 792.626Z" fill="#F1F1F1"/>
<path d="M393.367 721.623C433.511 741.721 498.596 741.721 538.741 721.623C578.885 701.531 578.885 668.948 538.741 648.851C498.596 628.758 433.511 628.758 393.367 648.851C353.223 668.948 353.223 701.531 393.367 721.623Z" fill="#B4D0D4"/>
<path d="M741.05 671.874L597.57 758.88C595.451 760.164 592.017 760.164 589.898 758.88L410.422 650.051C408.303 648.767 408.303 646.682 410.422 645.398L553.907 558.392C556.026 557.108 559.46 557.108 561.58 558.392L741.05 667.221C743.167 668.507 743.167 670.59 741.05 671.874Z" fill="#B4D0D4"/>
<path d="M780.985 193.597V233.553C780.985 233.553 765.347 241.236 736.625 241.236C707.917 241.236 692.308 233.54 692.308 233.54V194.364L722.221 105.458C721.827 108.244 723.387 111.104 726.895 113.228C732.482 116.619 737.866 117.002 744.14 114.363C744.941 114.039 745.684 113.656 746.387 113.228C750.106 110.972 751.637 107.89 750.964 104.957L780.985 193.597Z" fill="#F5F5F5"/>
<path opacity="0.5" d="M780.985 193.597V233.553C780.985 233.553 765.347 241.236 736.625 241.236C707.917 241.236 692.308 233.54 692.308 233.54V194.364L722.221 105.458C721.827 108.244 723.387 111.104 726.895 113.228C732.482 116.619 737.866 117.002 744.14 114.363C744.941 114.039 745.684 113.656 746.387 113.228C750.106 110.972 751.637 107.89 750.964 104.957L780.985 193.597Z" fill="#EEEEEE"/>
<path d="M777.549 473.681C775.386 476.822 772.203 479.768 767.988 482.325C750.666 492.829 722.582 492.829 705.261 482.325C701.044 479.768 697.863 476.822 695.699 473.681C693.584 470.608 692.453 467.347 692.301 464.072V483.289V484.819C692.609 491.445 696.922 498.014 705.261 503.073C722.582 513.577 750.666 513.577 767.988 503.073C776.649 497.821 780.978 490.939 780.978 484.054V463.307C780.978 466.839 779.83 470.37 777.549 473.681Z" fill="#EEEEEE"/>
<path d="M777.549 452.933C775.386 456.075 772.203 459.021 767.987 461.578C766.974 462.192 765.916 462.763 764.833 463.307C748.492 471.496 724.758 471.496 708.417 463.307C707.334 462.763 706.276 462.192 705.263 461.578C701.045 459.021 697.865 456.077 695.701 452.933C693.585 449.86 692.455 446.6 692.302 443.324V462.542V464.072C692.455 467.347 693.585 470.608 695.701 473.681C697.865 476.822 701.047 479.768 705.263 482.325C722.584 492.829 750.668 492.829 767.989 482.325C772.207 479.768 775.387 476.824 777.551 473.681C779.831 470.37 780.98 466.839 780.98 463.307V442.559C780.978 446.092 779.83 449.622 777.549 452.933Z" fill="#455A64"/>
<path d="M777.549 432.188C775.386 435.329 772.203 438.275 767.987 440.832C766.974 441.446 765.916 442.018 764.833 442.561C748.492 450.75 724.758 450.75 708.417 442.561C707.334 442.018 706.276 441.446 705.263 440.832C701.045 438.275 697.865 435.329 695.701 432.188C693.585 429.115 692.455 425.854 692.302 422.579V441.796V443.326C692.455 446.602 693.585 449.862 695.701 452.935C697.865 456.077 701.047 459.023 705.263 461.58C706.276 462.194 707.334 462.765 708.417 463.309C724.758 471.498 748.494 471.498 764.833 463.309C765.916 462.765 766.974 462.194 767.987 461.58C772.205 459.023 775.386 456.078 777.549 452.935C779.83 449.624 780.978 446.094 780.978 442.561V421.814C780.978 425.346 779.83 428.875 777.549 432.188Z" fill="#EEEEEE"/>
<path d="M692.301 194.364V421.047V422.577C692.453 425.852 693.584 429.113 695.699 432.186C697.863 435.327 701.046 438.273 705.261 440.83C706.275 441.445 707.333 442.016 708.415 442.559C712.507 444.61 717.061 446.146 721.847 447.169L713.829 206.664L692.301 194.364Z" fill="#F5F5F5"/>
<path d="M759.432 206.662L751.414 447.167C756.195 446.144 760.745 444.608 764.833 442.559C765.916 442.016 766.974 441.445 767.987 440.83C772.205 438.273 775.385 435.329 777.549 432.186C779.829 428.875 780.978 425.344 780.978 421.812V193.599L759.432 206.662Z" fill="#F5F5F5"/>
<path d="M692.301 194.364V421.047V422.577C692.453 425.852 693.584 429.113 695.699 432.186C697.863 435.327 701.046 438.273 705.261 440.83C706.275 441.445 707.333 442.016 708.415 442.559C712.507 444.61 717.061 446.146 721.847 447.169L713.829 206.664L692.301 194.364Z" fill="#37474F"/>
<path d="M759.432 206.662L751.414 447.167C756.195 446.144 760.745 444.608 764.833 442.559C765.916 442.016 766.974 441.445 767.987 440.83C772.205 438.273 775.385 435.329 777.549 432.186C779.829 428.875 780.978 425.344 780.978 421.812V193.599L759.432 206.662Z" fill="#37474F"/>
<path d="M713.83 206.664V444.856C716.401 445.792 719.079 446.578 721.849 447.169C726.622 448.189 731.626 448.701 736.63 448.701C741.635 448.701 746.639 448.189 751.412 447.167C754.184 446.574 756.861 445.788 759.431 444.852V206.662L713.83 206.664Z" fill="#455A64"/>
<path d="M746.383 113.228C745.682 113.656 744.938 114.039 744.137 114.363C737.862 117.002 732.479 116.619 726.892 113.228C723.383 111.104 721.824 108.244 722.217 105.458L732.426 75.4381C733.212 73.4635 734.912 72.4902 736.623 72.4902H736.638C738.351 72.4902 740.063 73.4635 740.85 75.4232L750.946 104.912C750.946 104.927 750.96 104.942 750.96 104.957C751.634 107.89 750.103 110.972 746.383 113.228Z" fill="#37474F"/>
<path d="M767.988 503.071C753.103 512.097 730.29 513.344 713.169 506.858C712.209 506.495 711.273 506.097 710.354 505.686C709.925 505.494 709.487 505.315 709.069 505.113C707.756 504.48 706.478 503.808 705.263 503.073C696.924 498.016 692.611 491.445 692.303 484.819V541.305C691.969 548.441 696.282 555.641 705.263 561.089C706.333 561.738 707.446 562.345 708.592 562.915C709.021 563.127 709.477 563.305 709.913 563.506C710.646 563.843 711.373 564.191 712.133 564.496C712.719 564.733 713.331 564.93 713.93 565.148C714.569 565.379 715.195 565.626 715.849 565.835C716.561 566.063 717.295 566.253 718.023 566.458C718.585 566.616 719.138 566.789 719.71 566.933C720.543 567.141 721.393 567.309 722.24 567.485C722.72 567.584 723.194 567.701 723.679 567.791C724.636 567.967 725.607 568.103 726.578 568.241C726.963 568.295 727.342 568.364 727.728 568.41C728.807 568.544 729.895 568.637 730.985 568.721C731.267 568.743 731.545 568.777 731.827 568.796C733.014 568.874 734.203 568.911 735.395 568.931C735.582 568.935 735.766 568.946 735.952 568.948C737.231 568.959 738.507 568.931 739.785 568.876C739.882 568.872 739.978 568.872 740.075 568.866C741.424 568.803 742.763 568.699 744.099 568.561C744.124 568.559 744.147 568.557 744.17 568.556C752.398 567.698 760.283 565.42 766.806 561.736C767.196 561.517 767.608 561.32 767.988 561.089C776.649 555.837 780.98 548.954 780.98 542.07V484.054C780.98 490.937 776.649 497.821 767.988 503.071Z" fill="#37474F"/>
<path d="M233.056 536.05C227.931 534.691 200.588 518.343 197.813 516.359C195.036 514.373 189.527 510.262 189.527 503.173C189.527 496.887 190.154 437.752 195.038 409.175C197.441 395.118 206.121 376.701 223.133 365.629C240.144 354.556 257.231 346.542 271.648 352.821C286.066 359.101 299.204 370.673 304.871 384.631C310.537 398.589 314.425 426.541 314.827 437.354C315.23 448.165 314.827 485.249 314.827 488.538C314.827 491.826 314.26 496.118 297.379 507.097C280.497 518.077 257.165 531.283 249.953 534.693C244.465 537.287 237.702 537.28 233.056 536.05Z" fill="#37474F"/>
<path d="M228.833 373.312C227.279 374.254 222.773 371.92 222.096 370.751C221.419 369.582 221.247 359.436 224.607 353.828C227.968 348.221 248.986 337.906 254.178 338.668C259.368 339.427 263.176 343.693 263.823 345.137C264.469 346.581 265.176 356.019 263.823 357.945C262.469 359.871 257.672 356.91 257.252 356.08C256.83 355.25 258.834 348.369 255.443 346.931C252.365 345.626 237.746 352.153 231.771 357.414C229.186 359.691 229.315 365.378 229.427 368.192C229.54 371.002 229.622 372.834 228.833 373.312Z" fill="#455A64"/>
<path d="M224.607 439.913C227.628 409.175 233.055 391.243 261.677 377.858C290.296 364.473 301.389 375.873 305.448 386.12C310.8 400.491 314.439 426.909 314.827 437.35C315.23 448.161 314.827 485.245 314.827 488.534C314.827 491.823 314.26 496.114 297.379 507.093C280.497 518.073 257.165 531.28 249.953 534.689C244.465 537.285 237.702 537.278 233.056 536.048C232.345 535.86 231.193 535.374 229.751 534.687C220.839 522.719 221.849 467.969 224.607 439.913Z" fill="#455A64"/>
<path d="M291.324 365.854C283.862 361.259 271.589 358.231 253.596 366.653C221.414 381.713 213.247 400.566 210 433.589C209.405 439.645 208.542 446.862 208.17 454.629L205.514 452.944C205.889 444.566 206.658 437.393 207.334 430.924C210.815 397.582 220.402 379.152 251.148 364.773C268.162 356.815 279.358 357.861 286.756 361.773C288.166 362.912 289.49 364.031 291.324 365.854Z" fill="#263238"/>
<path d="M292.442 366.711C284.98 362.117 272.707 359.088 254.715 367.507C222.534 382.569 214.365 401.42 211.118 434.443C210.523 440.499 209.66 447.717 209.288 455.483L206.632 453.799C207.007 445.42 207.777 438.247 208.452 431.78C211.934 398.438 221.52 380.008 252.266 365.629C269.28 357.671 280.777 358.993 288.177 362.905C289.587 364.042 290.61 364.887 292.442 366.711Z" fill="#455A64"/>
<path d="M282.029 395.92L272.305 390.093C271.307 389.496 270.033 389.859 269.461 390.905L259.479 409.125C258.907 410.171 259.245 411.511 260.239 412.119L269.845 418.002C270.838 418.609 272.108 418.257 272.684 417.213L282.793 398.894C283.369 397.85 283.027 396.518 282.029 395.92Z" fill="#263238"/>
<path d="M271.596 415.914L281.177 398.554C281.466 398.031 281.294 397.366 280.796 397.067L271.979 391.783C271.479 391.484 270.843 391.666 270.556 392.189L261.087 409.475C260.8 409.998 260.97 410.668 261.466 410.971L270.177 416.307C270.673 416.614 271.309 416.437 271.596 415.914Z" fill="#455A64"/>
<path d="M273.65 407.614C274.16 407.305 274.573 406.62 274.573 406.084V397.776C274.573 397.24 274.16 397.057 273.65 397.366C273.14 397.675 272.727 398.36 272.727 398.896V407.202C272.727 407.74 273.14 407.923 273.65 407.614Z" fill="#37474F"/>
<path d="M268.502 410.735C269.013 410.426 269.425 409.741 269.425 409.205V400.899C269.425 400.363 269.013 400.18 268.502 400.489C267.992 400.798 267.579 401.483 267.579 402.019V410.325C267.579 410.861 267.992 411.045 268.502 410.735Z" fill="#37474F"/>
<path d="M237.868 465.886C237.868 465.886 242.695 470.061 246.154 485.765C249.611 501.467 251.72 521.263 247.896 523.632C244.072 526.003 238.636 521.036 237.28 519.322C234.498 515.805 235.191 478.471 237.868 465.886Z" fill="#263238"/>
<path d="M237.868 465.886C237.868 465.886 242.695 470.061 246.154 485.765C249.611 501.467 251.72 521.263 247.896 523.632L306.446 487.414C310.27 485.043 311.211 464.252 307.754 448.55C305.477 438.204 301.281 433.295 298.683 431.149C297.476 430.152 295.812 430.044 294.489 430.862L237.868 465.886Z" fill="#37474F"/>
<path d="M297.441 433.52C300.246 434.983 304.991 438.975 307.137 449.611C307.814 452.968 306.689 456.24 304.741 457.686C302.792 459.132 260.95 484.133 255.402 487.605C250.618 490.6 248.126 486.619 247.075 484.133H247.072C245.327 479.699 243.771 476.254 242.458 473.612C240.007 467.74 237.866 465.884 237.866 465.884L293.634 433.699C294.799 432.98 296.232 432.891 297.441 433.52Z" fill="#263238"/>
<path d="M210.023 457.281C210.023 457.281 211.703 464.135 211.604 467.061C211.581 467.736 210.745 468.084 210.49 468.092C208.999 468.129 205.377 465.76 205.073 465.123C204.766 464.487 206.522 456.786 206.522 456.786L210.023 457.281Z" fill="#263238"/>
<path d="M211.831 454.673C211.831 452.714 210.318 451.124 208.452 451.124C206.586 451.124 205.073 452.714 205.073 454.673C205.073 456.633 206.586 458.222 208.452 458.222C210.319 458.222 211.831 456.633 211.831 454.673Z" fill="#263238"/>
<path d="M254.178 346.767C257.883 346.393 261.367 346.734 262.26 350.649C263.151 354.563 262.827 358.081 262.26 358.578C260.321 358.503 257.568 356.698 257.252 356.078C256.83 355.248 258.835 348.368 255.443 346.929C255.133 346.799 254.7 346.75 254.178 346.767Z" fill="#263238"/>
<path d="M294.811 430.661C295.973 429.943 297.407 429.852 298.616 430.483C301.421 431.946 306.168 435.938 308.312 446.574C308.989 449.931 307.863 453.203 305.916 454.649C303.967 456.095 262.125 481.095 256.577 484.568C251.793 487.563 249.301 483.582 248.25 481.095C242.468 468.365 237.87 465.886 237.87 465.886L294.811 430.661Z" fill="#37474F"/>
<path d="M284.773 647.183L237.854 618.732C235.528 617.322 233.64 613.888 233.64 611.067L233.617 611.634C233.617 608.811 235.505 605.379 237.831 603.968L332.191 546.751C334.518 545.34 338.292 545.34 340.62 546.751L387.539 575.201C389.867 576.612 391.753 580.046 391.753 582.867L391.776 582.3C391.776 585.123 389.889 588.555 387.562 589.966L293.202 647.183C290.874 648.596 287.099 648.596 284.773 647.183Z" fill="#04C45C"/>
<path opacity="0.7" d="M284.773 647.183L237.854 618.732C235.528 617.322 233.64 613.888 233.64 611.067L233.617 611.634C233.617 608.811 235.505 605.379 237.831 603.968L332.191 546.751C334.518 545.34 338.292 545.34 340.62 546.751L387.539 575.201C389.867 576.612 391.753 580.046 391.753 582.867L391.776 582.3C391.776 585.123 389.889 588.555 387.562 589.966L293.202 647.183C290.874 648.596 287.099 648.596 284.773 647.183Z" fill="black"/>
<path d="M288.964 572.961L237.831 603.966C235.503 605.377 233.617 608.811 233.617 611.632L233.64 611.065C233.64 613.888 235.528 617.32 237.854 618.731L284.773 647.181C285.937 647.886 287.463 648.24 288.987 648.24L288.964 572.961Z" fill="#04C45C"/>
<path opacity="0.7" d="M288.964 572.961L237.831 603.966C235.503 605.377 233.617 608.811 233.617 611.632L233.64 611.065C233.64 613.888 235.528 617.32 237.854 618.731L284.773 647.181C285.937 647.886 287.463 648.24 288.987 648.24L288.964 572.961Z" fill="black"/>
<path d="M237.829 609.079L284.748 637.529C287.076 638.94 290.849 638.94 293.177 637.529L387.537 580.312C389.865 578.901 389.865 576.612 387.537 575.201L340.618 546.751C338.29 545.34 334.517 545.34 332.189 546.751L237.829 603.968C235.503 605.379 235.503 607.666 237.829 609.079Z" fill="#04C45C"/>
<path opacity="0.5" d="M237.829 609.079L284.748 637.529C287.076 638.94 290.849 638.94 293.177 637.529L387.537 580.312C389.865 578.901 389.865 576.612 387.537 575.201L340.618 546.751C338.29 545.34 334.517 545.34 332.189 546.751L237.829 603.968C235.503 605.379 235.503 607.666 237.829 609.079Z" fill="black"/>
<path d="M237.829 599.725V604.441L286.531 633.973C288.035 634.885 289.888 634.885 291.393 633.973L387.535 575.674V570.8L288.963 620.986L237.829 599.725Z" fill="#04C45C"/>
<path d="M284.75 628.176L237.831 599.725C235.505 598.314 233.617 594.881 233.617 592.059V582.945C233.617 580.122 235.505 576.69 237.831 575.28L332.191 518.062C334.518 516.651 338.292 516.651 340.62 518.062L387.539 546.513C389.867 547.923 391.753 551.357 391.753 554.179V563.292C391.753 566.116 389.866 569.389 387.539 570.8L293.179 628.176C290.851 629.588 287.076 629.588 284.75 628.176Z" fill="#04C45C"/>
<path opacity="0.6" d="M284.75 628.176L237.831 599.725C235.505 598.314 233.617 594.881 233.617 592.059V582.945C233.617 580.122 235.505 576.69 237.831 575.28L332.191 518.062C334.518 516.651 338.292 516.651 340.62 518.062L387.539 546.513C389.867 547.923 391.753 551.357 391.753 554.179V563.292C391.753 566.116 389.866 569.389 387.539 570.8L293.179 628.176C290.851 629.588 287.076 629.588 284.75 628.176Z" fill="black"/>
<path d="M288.964 544.272L237.831 575.278C235.503 576.688 233.617 580.122 233.617 582.944V592.057C233.617 594.881 235.505 598.313 237.831 599.723L284.75 628.174C285.914 628.879 287.438 629.233 288.964 629.233V544.272Z" fill="#04C45C"/>
<path opacity="0.7" d="M288.964 544.272L237.831 575.278C235.503 576.688 233.617 580.122 233.617 582.944V592.057C233.617 594.881 235.505 598.313 237.831 599.723L284.75 628.174C285.914 628.879 287.438 629.233 288.964 629.233V544.272Z" fill="black"/>
<path d="M237.829 580.39L284.748 608.841C287.076 610.251 290.849 610.251 293.177 608.841L387.537 551.623C389.865 550.213 389.865 547.923 387.537 546.513L340.618 518.062C338.29 516.651 334.517 516.651 332.189 518.062L237.829 575.28C235.503 576.69 235.503 578.978 237.829 580.39Z" fill="#04C45C"/>
<path opacity="0.5" d="M237.829 580.39L284.748 608.841C287.076 610.251 290.849 610.251 293.177 608.841L387.537 551.623C389.865 550.213 389.865 547.923 387.537 546.513L340.618 518.062C338.29 516.651 334.517 516.651 332.189 518.062L237.829 575.28C235.503 576.69 235.503 578.978 237.829 580.39Z" fill="black"/>
<path d="M303.274 557.778C298.077 560.929 298.077 566.017 303.274 569.144C308.471 572.268 316.897 572.268 322.094 569.144C327.292 566.019 327.292 560.931 322.094 557.778C316.897 554.625 308.471 554.625 303.274 557.778Z" fill="#04C45C"/>
<path d="M379.891 561.102C378.982 561.643 378.245 562.991 378.245 564.111C378.245 565.232 378.982 565.701 379.891 565.159C380.8 564.617 381.537 563.27 381.537 562.15C381.537 561.029 380.8 560.56 379.891 561.102Z" fill="#04C45C"/>
<path d="M379.891 567.787C378.982 568.328 378.245 569.676 378.245 570.796C378.245 571.917 378.982 572.386 379.891 571.844C380.8 571.302 381.537 569.955 381.537 568.835C381.537 567.712 380.8 567.245 379.891 567.787Z" fill="#04C45C"/>
<path d="M265.102 684.701C264.891 684.701 264.677 684.645 264.48 684.524L219.02 656.818C216.596 655.34 215.15 652.701 215.153 649.759C215.157 646.815 216.608 644.179 219.034 642.707L252.363 622.497C252.953 622.138 253.715 622.35 254.055 622.974C254.397 623.596 254.195 624.392 253.602 624.751L220.273 644.961C218.621 645.962 217.634 647.758 217.631 649.761C217.629 651.765 218.612 653.561 220.262 654.568L265.722 682.274C266.314 682.635 266.516 683.432 266.172 684.051C265.945 684.468 265.529 684.701 265.102 684.701Z" fill="#04C45C"/>
<path d="M322.055 658L312.201 616.443C312.061 615.85 311.874 615.302 311.665 614.779L314.532 614.342L308.28 610.545C305.904 609.09 302.833 609.109 299.826 610.94L258.73 635.964C253.387 639.218 249.059 647.114 249.06 653.6L249.071 703.557C249.073 707.527 249.999 710.269 251.887 711.218L251.874 711.221L257.761 714.787L256.338 710.849C256.442 710.801 256.54 710.765 256.646 710.711C263.405 707.322 265.853 701.151 267.872 695.022L275.684 671.306C277.703 665.176 282.733 658.152 286.919 655.617C291.104 653.083 296.977 655.595 300.037 661.229L303.96 668.452C305.287 670.895 307.148 672.745 309.171 673.851L315.171 677.508L313.646 675.023C314.866 674.997 316.054 674.679 317.129 674.026C321.343 671.467 323.549 664.294 322.055 658Z" fill="#04C45C"/>
<path opacity="0.7" d="M322.055 658L312.201 616.443C312.061 615.85 311.874 615.302 311.665 614.779L314.532 614.342L308.28 610.545C305.904 609.09 302.833 609.109 299.826 610.94L258.73 635.964C253.387 639.218 249.059 647.114 249.06 653.6L249.071 703.557C249.073 707.527 249.999 710.269 251.887 711.218L251.874 711.221L257.761 714.787L256.338 710.849C256.442 710.801 256.54 710.765 256.646 710.711C263.405 707.322 265.853 701.151 267.872 695.022L275.684 671.306C277.703 665.176 282.733 658.152 286.919 655.617C291.104 653.083 296.977 655.595 300.037 661.229L303.96 668.452C305.287 670.895 307.148 672.745 309.171 673.851L315.171 677.508L313.646 675.023C314.866 674.997 316.054 674.679 317.129 674.026C321.343 671.467 323.549 664.294 322.055 658Z" fill="black"/>
<path d="M311.664 614.779L314.532 614.342L308.28 610.546C305.904 609.09 302.833 609.109 299.826 610.94L258.73 635.964C256.568 637.282 254.592 639.376 252.982 641.812L262.754 648.069L312.676 618.45L312.201 616.445C312.061 615.85 311.874 615.302 311.664 614.779Z" fill="#04C45C"/>
<path opacity="0.5" d="M311.664 614.779L314.532 614.342L308.28 610.546C305.904 609.09 302.833 609.109 299.826 610.94L258.73 635.964C256.568 637.282 254.592 639.376 252.982 641.812L262.754 648.069L312.676 618.45L312.201 616.445C312.061 615.85 311.874 615.302 311.664 614.779Z" fill="black"/>
<path d="M323.518 677.902C319.304 680.458 313.407 677.962 310.346 672.328L306.423 665.105C303.363 659.472 297.489 656.959 293.303 659.494C289.118 662.029 284.087 669.053 282.069 675.183L274.256 698.899C272.238 705.029 269.787 711.199 263.031 714.588C257.919 717.153 255.459 713.92 255.457 707.434L255.447 657.475C255.445 650.989 259.776 643.094 265.118 639.841L306.212 614.817C311.555 611.564 317.096 614.028 318.588 620.322L328.442 661.878C329.937 668.172 327.731 675.347 323.518 677.902Z" fill="#04C45C"/>
<path opacity="0.6" d="M323.518 677.902C319.304 680.458 313.407 677.962 310.346 672.328L306.423 665.105C303.363 659.472 297.489 656.959 293.303 659.494C289.118 662.029 284.087 669.053 282.069 675.183L274.256 698.899C272.238 705.029 269.787 711.199 263.031 714.588C257.919 717.153 255.459 713.92 255.457 707.434L255.447 657.475C255.445 650.989 259.776 643.094 265.118 639.841L306.212 614.817C311.555 611.564 317.096 614.028 318.588 620.322L328.442 661.878C329.937 668.172 327.731 675.347 323.518 677.902Z" fill="black"/>
<path d="M307.584 629.205L308.612 635.33L313.153 632.266L314.181 638.391L309.639 641.458L310.671 647.583L306.134 650.641L305.103 644.52L300.567 647.579L299.539 641.455L304.075 638.395L303.048 632.27L307.584 629.205Z" fill="#263238"/>
<path d="M308.893 629.929L309.921 636.054L314.463 632.992L315.492 639.117L310.949 642.182L311.98 648.307L307.446 651.367L306.414 645.244L301.878 648.303L300.85 642.178L305.387 639.121L304.359 632.996L308.893 629.929Z" fill="#04C45C"/>
<path d="M273.198 650.874C273.482 652.565 272.697 654.622 271.444 655.469C270.191 656.315 268.946 655.631 268.662 653.939C268.379 652.247 269.164 650.191 270.416 649.344C271.669 648.497 272.915 649.182 273.198 650.874Z" fill="#263238"/>
<path d="M275.256 663.123C275.539 664.815 274.754 666.871 273.502 667.718C272.249 668.565 271.003 667.88 270.72 666.188C270.436 664.497 271.221 662.44 272.474 661.593C273.727 660.749 274.972 661.432 275.256 663.123Z" fill="#263238"/>
<path d="M278.766 653.937C279.05 655.629 278.265 657.685 277.012 658.532C275.759 659.379 274.513 658.694 274.23 657.002C273.946 655.31 274.731 653.254 275.984 652.407C277.237 651.56 278.483 652.245 278.766 653.937Z" fill="#263238"/>
<path d="M269.697 660.062C269.98 661.754 269.196 663.81 267.943 664.657C266.69 665.504 265.444 664.819 265.161 663.127C264.877 661.435 265.662 659.379 266.915 658.532C268.168 657.685 269.413 658.37 269.697 660.062Z" fill="#263238"/>
<path d="M273.292 650.937C273.576 652.628 272.791 654.685 271.538 655.532C270.285 656.378 269.039 655.694 268.756 654.002C268.472 652.31 269.257 650.254 270.51 649.407C271.763 648.56 273.009 649.245 273.292 650.937Z" fill="#263238"/>
<path d="M275.35 663.187C275.633 664.878 274.848 666.935 273.595 667.782C272.342 668.628 271.097 667.944 270.813 666.252C270.53 664.56 271.315 662.504 272.568 661.657C273.82 660.81 275.066 661.495 275.35 663.187Z" fill="#263238"/>
<path d="M278.86 653.998C279.143 655.69 278.358 657.747 277.106 658.593C275.853 659.44 274.607 658.755 274.324 657.064C274.04 655.372 274.825 653.315 276.078 652.469C277.331 651.622 278.576 652.308 278.86 653.998Z" fill="#263238"/>
<path d="M269.791 660.123C270.074 661.815 269.289 663.871 268.037 664.718C266.784 665.565 265.538 664.88 265.255 663.188C264.971 661.497 265.756 659.44 267.009 658.593C268.262 657.748 269.507 658.433 269.791 660.123Z" fill="#263238"/>
<path d="M273.386 650.998C273.67 652.69 272.885 654.747 271.632 655.593C270.379 656.44 269.133 655.755 268.85 654.063C268.566 652.372 269.351 650.315 270.604 649.468C271.857 648.623 273.103 649.308 273.386 650.998Z" fill="#263238"/>
<path d="M275.443 663.248C275.727 664.94 274.942 666.996 273.689 667.843C272.436 668.69 271.191 668.005 270.907 666.313C270.624 664.621 271.409 662.565 272.661 661.718C273.914 660.873 275.16 661.558 275.443 663.248Z" fill="#263238"/>
<path d="M278.954 654.062C279.237 655.753 278.452 657.81 277.2 658.657C275.947 659.504 274.701 658.819 274.418 657.127C274.134 655.435 274.919 653.379 276.172 652.532C277.425 651.685 278.67 652.37 278.954 654.062Z" fill="#263238"/>
<path d="M269.885 660.186C270.168 661.878 269.383 663.935 268.13 664.781C266.878 665.628 265.632 664.943 265.348 663.252C265.065 661.56 265.85 659.503 267.103 658.657C268.356 657.81 269.599 658.495 269.885 660.186Z" fill="#263238"/>
<path d="M273.48 651.062C273.764 652.753 272.979 654.81 271.726 655.657C270.473 656.503 269.227 655.818 268.944 654.127C268.66 652.435 269.445 650.379 270.698 649.532C271.951 648.685 273.197 649.37 273.48 651.062Z" fill="#263238"/>
<path d="M275.538 663.311C275.821 665.003 275.036 667.059 273.783 667.906C272.53 668.753 271.285 668.068 271.001 666.376C270.718 664.685 271.503 662.628 272.756 661.781C274.008 660.935 275.254 661.62 275.538 663.311Z" fill="#263238"/>
<path d="M279.048 654.125C279.331 655.817 278.546 657.873 277.294 658.72C276.041 659.567 274.795 658.882 274.512 657.19C274.228 655.498 275.013 653.442 276.266 652.595C277.519 651.748 278.764 652.433 279.048 654.125Z" fill="#263238"/>
<path d="M269.979 660.25C270.262 661.941 269.477 663.998 268.224 664.845C266.972 665.692 265.726 665.007 265.442 663.315C265.159 661.623 265.944 659.567 267.197 658.72C268.449 657.873 269.695 658.558 269.979 660.25Z" fill="#263238"/>
<path d="M273.574 651.125C273.858 652.817 273.073 654.873 271.82 655.72C270.567 656.567 269.321 655.882 269.038 654.19C268.754 652.498 269.539 650.442 270.792 649.595C272.045 648.748 273.291 649.433 273.574 651.125Z" fill="#263238"/>
<path d="M275.631 663.375C275.915 665.066 275.13 667.123 273.877 667.97C272.624 668.816 271.379 668.132 271.095 666.44C270.812 664.748 271.596 662.691 272.849 661.845C274.102 660.998 275.348 661.683 275.631 663.375Z" fill="#263238"/>
<path d="M279.142 654.186C279.425 655.878 278.64 657.935 277.388 658.781C276.135 659.628 274.889 658.943 274.606 657.252C274.322 655.56 275.107 653.503 276.36 652.657C277.613 651.81 278.858 652.495 279.142 654.186Z" fill="#263238"/>
<path d="M270.073 660.311C270.356 662.003 269.571 664.059 268.318 664.906C267.066 665.753 265.82 665.068 265.536 663.376C265.253 661.685 266.038 659.628 267.291 658.781C268.543 657.936 269.787 658.621 270.073 660.311Z" fill="#263238"/>
<path d="M273.668 651.186C273.951 652.878 273.166 654.935 271.914 655.781C270.661 656.628 269.415 655.943 269.132 654.252C268.848 652.56 269.633 650.503 270.886 649.656C272.139 648.812 273.384 649.496 273.668 651.186Z" fill="#263238"/>
<path d="M275.725 663.436C276.009 665.128 275.224 667.184 273.971 668.031C272.718 668.878 271.473 668.193 271.189 666.501C270.905 664.809 271.69 662.753 272.943 661.906C274.196 661.061 275.442 661.746 275.725 663.436Z" fill="#263238"/>
<path d="M279.236 654.25C279.519 655.941 278.734 657.998 277.481 658.845C276.229 659.691 274.983 659.007 274.699 657.315C274.416 655.623 275.201 653.567 276.454 652.72C277.706 651.873 278.952 652.558 279.236 654.25Z" fill="#263238"/>
<path d="M270.166 660.374C270.45 662.066 269.665 664.123 268.412 664.97C267.159 665.816 265.914 665.131 265.63 663.44C265.347 661.748 266.132 659.691 267.384 658.845C268.637 657.998 269.881 658.683 270.166 660.374Z" fill="#263238"/>
<path d="M273.762 651.25C274.045 652.941 273.26 654.998 272.007 655.845C270.755 656.691 269.509 656.006 269.225 654.315C268.942 652.623 269.727 650.567 270.98 649.72C272.232 648.873 273.478 649.558 273.762 651.25Z" fill="#263238"/>
<path d="M275.819 663.499C276.102 665.191 275.317 667.247 274.065 668.094C272.812 668.941 271.566 668.256 271.283 666.564C270.999 664.873 271.784 662.816 273.037 661.969C274.29 661.123 275.535 661.808 275.819 663.499Z" fill="#263238"/>
<path d="M279.329 654.311C279.613 656.003 278.828 658.059 277.575 658.906C276.322 659.753 275.077 659.068 274.793 657.376C274.509 655.684 275.294 653.628 276.547 652.781C277.8 651.934 279.046 652.621 279.329 654.311Z" fill="#263238"/>
<path d="M270.26 660.436C270.544 662.128 269.759 664.184 268.506 665.031C267.253 665.878 266.007 665.193 265.724 663.501C265.44 661.809 266.225 659.753 267.478 658.906C268.729 658.061 269.975 658.746 270.26 660.436Z" fill="#263238"/>
<path d="M273.856 651.313C274.139 653.004 273.354 655.061 272.102 655.908C270.849 656.755 269.603 656.07 269.32 654.378C269.036 652.686 269.821 650.63 271.074 649.783C272.327 648.936 273.572 649.621 273.856 651.313Z" fill="#263238"/>
<path d="M275.913 663.562C276.197 665.254 275.412 667.311 274.159 668.157C272.906 669.004 271.66 668.319 271.377 666.628C271.093 664.936 271.878 662.879 273.131 662.033C274.384 661.186 275.628 661.871 275.913 663.562Z" fill="#263238"/>
<path d="M279.423 654.374C279.707 656.066 278.922 658.123 277.669 658.969C276.416 659.816 275.171 659.131 274.887 657.439C274.603 655.748 275.388 653.691 276.641 652.844C277.894 651.998 279.14 652.683 279.423 654.374Z" fill="#263238"/>
<path d="M270.353 660.499C270.636 662.191 269.851 664.247 268.598 665.094C267.345 665.941 266.1 665.256 265.816 663.564C265.533 661.873 266.318 659.816 267.57 658.969C268.823 658.123 270.069 658.807 270.353 660.499Z" fill="#263238"/>
<path d="M273.949 651.374C274.233 653.066 273.448 655.123 272.195 655.969C270.942 656.816 269.697 656.131 269.413 654.439C269.13 652.748 269.915 650.691 271.167 649.844C272.42 648.998 273.666 649.683 273.949 651.374Z" fill="#263238"/>
<path d="M276.007 663.624C276.29 665.316 275.505 667.372 274.252 668.219C272.999 669.066 271.754 668.381 271.47 666.689C271.187 664.997 271.972 662.941 273.225 662.094C274.477 661.247 275.721 661.932 276.007 663.624Z" fill="#263238"/>
<path d="M279.517 654.438C279.8 656.129 279.015 658.186 277.763 659.033C276.51 659.879 275.264 659.195 274.981 657.503C274.697 655.811 275.482 653.755 276.735 652.908C277.988 652.061 279.233 652.746 279.517 654.438Z" fill="#263238"/>
<path d="M270.446 660.562C270.73 662.254 269.945 664.311 268.692 665.157C267.439 666.004 266.193 665.319 265.91 663.628C265.626 661.936 266.411 659.879 267.664 659.033C268.917 658.186 270.163 658.871 270.446 660.562Z" fill="#263238"/>
<path d="M274.044 651.438C274.327 653.129 273.542 655.186 272.29 656.033C271.037 656.879 269.791 656.195 269.508 654.503C269.224 652.811 270.009 650.754 271.262 649.908C272.515 649.061 273.76 649.746 274.044 651.438Z" fill="#263238"/>
<path d="M276.101 663.687C276.385 665.379 275.6 667.435 274.347 668.282C273.094 669.129 271.848 668.444 271.565 666.752C271.281 665.061 272.066 663.004 273.319 662.157C274.572 661.311 275.816 661.996 276.101 663.687Z" fill="#263238"/>
<path d="M279.611 654.499C279.895 656.191 279.11 658.247 277.857 659.094C276.604 659.941 275.359 659.256 275.075 657.564C274.791 655.873 275.576 653.816 276.829 652.969C278.082 652.124 279.328 652.809 279.611 654.499Z" fill="#263238"/>
<path d="M270.54 660.624C270.824 662.316 270.039 664.372 268.786 665.219C267.533 666.066 266.288 665.381 266.004 663.689C265.721 661.997 266.506 659.941 267.758 659.094C269.011 658.249 270.257 658.934 270.54 660.624Z" fill="#263238"/>
<path d="M274.137 651.499C274.421 653.191 273.636 655.247 272.383 656.094C271.13 656.941 269.885 656.256 269.601 654.564C269.318 652.872 270.103 650.816 271.355 649.969C272.608 649.124 273.854 649.809 274.137 651.499Z" fill="#263238"/>
<path d="M276.195 663.749C276.478 665.44 275.693 667.497 274.44 668.344C273.187 669.191 271.942 668.506 271.658 666.814C271.375 665.122 272.16 663.066 273.412 662.219C274.665 661.374 275.909 662.059 276.195 663.749Z" fill="#263238"/>
<path d="M279.705 654.562C279.988 656.254 279.203 658.31 277.951 659.157C276.698 660.004 275.452 659.319 275.169 657.627C274.885 655.936 275.67 653.879 276.923 653.032C278.176 652.186 279.421 652.871 279.705 654.562Z" fill="#263238"/>
<path d="M270.634 660.687C270.918 662.379 270.133 664.435 268.88 665.282C267.627 666.129 266.381 665.444 266.098 663.752C265.814 662.061 266.599 660.004 267.852 659.157C269.105 658.311 270.351 658.995 270.634 660.687Z" fill="#263238"/>
<path d="M274.232 651.562C274.515 653.254 273.73 655.31 272.477 656.157C271.225 657.004 269.979 656.319 269.695 654.627C269.412 652.936 270.197 650.879 271.45 650.032C272.702 649.186 273.948 649.87 274.232 651.562Z" fill="#263238"/>
<path d="M276.289 663.812C276.572 665.504 275.787 667.56 274.535 668.407C273.282 669.254 272.036 668.569 271.752 666.877C271.469 665.185 272.254 663.129 273.507 662.282C274.76 661.435 276.003 662.12 276.289 663.812Z" fill="#263238"/>
<path d="M279.799 654.625C280.083 656.317 279.298 658.374 278.045 659.221C276.792 660.067 275.546 659.382 275.263 657.691C274.979 655.999 275.764 653.942 277.017 653.096C278.27 652.249 279.516 652.934 279.799 654.625Z" fill="#263238"/>
<path d="M270.728 660.749C271.012 662.44 270.227 664.497 268.974 665.344C267.721 666.19 266.475 665.506 266.192 663.814C265.908 662.122 266.693 660.066 267.946 659.219C269.199 658.374 270.445 659.059 270.728 660.749Z" fill="#263238"/>
<path d="M307.584 629.205L308.894 629.929L304.359 632.996L303.048 632.27L307.584 629.205Z" fill="#263238"/>
<path d="M304.075 638.395L305.387 639.121L300.85 642.179L299.539 641.455L304.075 638.395Z" fill="#263238"/>
<path d="M309.921 636.054L309.678 634.611L313.153 632.266L314.463 632.992L309.921 636.054Z" fill="#263238"/>
<path d="M299.539 641.455L300.85 642.179L301.878 648.303L300.567 647.579L299.539 641.455Z" fill="#263238"/>
<path d="M306.135 650.641L307.446 651.367L306.415 645.244L305.348 645.964L306.135 650.641Z" fill="#263238"/>
<path d="M274.232 651.562C274.515 653.254 273.73 655.31 272.478 656.157C271.225 657.004 269.979 656.319 269.696 654.627C269.412 652.936 270.197 650.879 271.45 650.032C272.703 649.186 273.948 649.87 274.232 651.562Z" fill="#04C45C"/>
<path d="M276.289 663.812C276.573 665.504 275.788 667.56 274.535 668.407C273.282 669.254 272.036 668.569 271.753 666.877C271.469 665.185 272.254 663.129 273.507 662.282C274.76 661.435 276.004 662.12 276.289 663.812Z" fill="#04C45C"/>
<path d="M279.799 654.625C280.083 656.317 279.298 658.374 278.045 659.221C276.792 660.067 275.547 659.382 275.263 657.691C274.979 655.999 275.764 653.942 277.017 653.096C278.27 652.249 279.516 652.934 279.799 654.625Z" fill="#04C45C"/>
<path d="M270.728 660.749C271.012 662.44 270.227 664.497 268.974 665.344C267.721 666.19 266.476 665.506 266.192 663.814C265.909 662.122 266.694 660.066 267.946 659.219C269.199 658.374 270.445 659.059 270.728 660.749Z" fill="#04C45C"/>
<path d="M317.822 131.466L298.778 143.014C298.872 142.121 298.938 141.235 298.938 140.366V134.573C298.938 124.262 292.045 120.082 283.543 125.237C280.1 127.325 276.932 130.634 274.368 134.504C272.975 121.537 263.289 116.708 251.525 123.841C238.806 131.554 228.493 150.314 228.493 165.74V174.409C228.493 178.405 229.196 181.77 230.442 184.452L214.623 194.044C209.906 196.904 206.084 203.859 206.084 209.578C206.084 215.298 209.908 217.616 214.623 214.756L317.818 152.18C322.535 149.32 326.358 142.365 326.358 136.646C326.361 130.925 322.537 128.606 317.822 131.466Z" fill="#F0F0F0"/>
<path d="M713.59 651.491L710.122 649.4L712.636 648.208C712.636 648.208 714.614 648.756 714.66 648.852C714.706 648.949 714.522 650.285 714.522 650.285L713.59 651.491Z" fill="#E0E0E0"/>
<path d="M713.59 651.491L710.122 649.4L712.636 648.208C712.636 648.208 714.614 648.756 714.66 648.852C714.706 648.949 714.522 650.285 714.522 650.285L713.59 651.491Z" fill="#04C45C"/>
<path opacity="0.1" d="M713.59 651.491L710.122 649.4L712.636 648.208C712.636 648.208 714.614 648.756 714.66 648.852C714.706 648.949 714.522 650.285 714.522 650.285L713.59 651.491Z" fill="white"/>
<path d="M581.731 721.264C584.527 722.959 589.06 722.959 591.854 721.264L705.511 652.34L535.372 549.159L531.398 546.743L417.744 615.667C414.959 617.366 414.959 620.128 417.744 621.807L581.731 721.264Z" fill="#04C45C"/>
<path opacity="0.8" d="M581.731 721.264C584.527 722.959 589.06 722.959 591.854 721.264L705.511 652.34L535.372 549.159L531.398 546.743L417.744 615.667C414.959 617.366 414.959 620.128 417.744 621.807L581.731 721.264Z" fill="white"/>
<path d="M624.408 591.065L664.042 615.025L689.7 599.466L719.549 617.577C719.549 617.577 719.549 637.433 719.549 640.17C719.549 642.91 716.623 646.811 715.56 646.169C715.56 646.169 713.223 646.671 709.854 648.296C706.486 649.922 701.618 654.696 701.618 654.696L610.545 599.472L624.408 591.065Z" fill="#E0E0E0"/>
<path d="M624.408 591.065L664.042 615.025L689.7 599.466L719.549 617.577C719.549 617.577 719.549 637.433 719.549 640.17C719.549 642.91 716.623 646.811 715.56 646.169C715.56 646.169 713.223 646.671 709.854 648.296C706.486 649.922 701.618 654.696 701.618 654.696L610.545 599.472L624.408 591.065Z" fill="#04C45C"/>
<path opacity="0.1" d="M624.408 591.065L664.042 615.025L689.7 599.466L719.549 617.577C719.549 617.577 719.549 637.433 719.549 640.17C719.549 642.91 716.623 646.811 715.56 646.169C715.56 646.169 713.223 646.671 709.854 648.296C706.486 649.922 701.618 654.696 701.618 654.696L610.545 599.472L624.408 591.065Z" fill="white"/>
<path d="M591.858 721.258L598.717 717.084L701.615 654.689C701.654 653.338 702.18 652.009 703.018 650.821C704.187 649.102 705.94 647.63 707.519 646.667C708.727 645.93 710.538 645.071 712.371 645.071C713.618 645.071 714.708 645.48 715.565 646.176C716.228 645.234 717.456 641.613 717.456 637.234H721.353C721.353 642.882 719.579 648.551 717.398 649.861L715.429 651.069C714.318 651.745 713.441 651.785 713.441 651.151V650.045C713.441 648.817 711.667 648.878 709.466 650.209C707.283 651.54 705.511 653.606 705.511 654.834V655.939C705.511 656.574 703.991 657.985 702.141 659.111L602.633 719.46L591.858 725.989C591.858 725.989 591.838 725.989 591.838 726.01C590.435 726.828 588.624 727.258 586.792 727.258V722.531C588.624 722.526 590.456 722.118 591.858 721.258Z" fill="#04C45C"/>
<path opacity="0.6" d="M591.858 721.258L598.717 717.084L701.615 654.689C701.654 653.338 702.18 652.009 703.018 650.821C704.187 649.102 705.94 647.63 707.519 646.667C708.727 645.93 710.538 645.071 712.371 645.071C713.618 645.071 714.708 645.48 715.565 646.176C716.228 645.234 717.456 641.613 717.456 637.234H721.353C721.353 642.882 719.579 648.551 717.398 649.861L715.429 651.069C714.318 651.745 713.441 651.785 713.441 651.151V650.045C713.441 648.817 711.667 648.878 709.466 650.209C707.283 651.54 705.511 653.606 705.511 654.834V655.939C705.511 656.574 703.991 657.985 702.141 659.111L602.633 719.46L591.858 725.989C591.858 725.989 591.838 725.989 591.838 726.01C590.435 726.828 588.624 727.258 586.792 727.258V722.531C588.624 722.526 590.456 722.118 591.858 721.258Z" fill="white"/>
<path d="M415.661 618.669V623.478C415.661 624.584 416.324 625.669 417.669 626.506L417.747 626.547L570.972 719.455L581.728 725.984V726.004C581.728 726.004 581.747 725.984 581.747 726.004C583.151 726.823 584.962 727.253 586.794 727.253V722.526C584.962 722.526 583.131 722.116 581.728 721.256L574.888 717.102H574.868L417.745 621.8C416.256 620.893 415.666 619.831 415.661 618.669Z" fill="#04C45C"/>
<path opacity="0.1" d="M415.661 618.669V623.478C415.661 624.584 416.324 625.669 417.669 626.506L417.747 626.547L570.972 719.455L581.728 725.984V726.004C581.728 726.004 581.747 725.984 581.747 726.004C583.151 726.823 584.962 727.253 586.794 727.253V722.526C584.962 722.526 583.131 722.116 581.728 721.256L574.888 717.102H574.868L417.745 621.8C416.256 620.893 415.666 619.831 415.661 618.669Z" fill="white"/>
<path d="M586.793 690.664V718.249C588.021 718.249 589.248 717.983 590.164 717.41L602.633 709.859L697.601 652.273L697.62 623.46L586.793 690.664Z" fill="white"/>
<path d="M420.59 593.334V614.577C420.59 616.828 422.111 619.59 423.961 620.716L570.972 709.859L583.422 717.409C584.338 717.983 585.566 718.249 586.792 718.249V693.589L420.59 593.334Z" fill="#F0F0F0"/>
<path d="M697.601 652.273C697.64 650.922 698.186 649.595 699.024 648.407C700.193 646.688 701.946 645.216 703.525 644.254C704.733 643.517 706.544 642.657 708.376 642.657C709.624 642.657 710.716 643.066 711.571 643.762V614.999L697.621 623.458L697.601 652.273Z" fill="#455A64"/>
<path d="M703.174 644.488C701.691 645.448 700.108 646.813 699.024 648.406C698.186 649.593 697.64 650.922 697.601 652.271L697.619 624.807H703.172V644.488H703.174Z" fill="#F5F5F5"/>
<path d="M535.373 515.488L705.511 618.669C705.511 618.669 705.511 619.734 705.511 621.062C705.511 622.393 707.285 622.884 709.466 621.554C711.667 620.223 713.441 618.567 713.441 616.274L713.655 614.001L540.302 508.896L539.6 508.466C539.425 508.814 539.308 509.203 539.308 509.572V510.677C539.31 512.01 537.556 514.137 535.373 515.488Z" fill="#04C45C"/>
<path opacity="0.6" d="M535.373 515.488L705.511 618.669C705.511 618.669 705.511 619.734 705.511 621.062C705.511 622.393 707.285 622.884 709.466 621.554C711.667 620.223 713.441 618.567 713.441 616.274L713.655 614.001L540.302 508.896L539.6 508.466C539.425 508.814 539.308 509.203 539.308 509.572V510.677C539.31 512.01 537.556 514.137 535.373 515.488Z" fill="white"/>
<path d="M591.855 687.595L702.992 620.199C704.404 619.421 705.694 618.798 706.238 619.097L705.512 618.671L535.373 515.49C535.373 515.49 534.373 514.889 533.385 514.286C532.288 513.618 529.888 513.992 528.024 515.122L417.747 581.998C414.961 583.697 414.961 586.459 417.747 588.138L581.733 687.595C584.528 689.288 589.06 689.29 591.855 687.595Z" fill="#04C45C"/>
<path opacity="0.8" d="M591.855 687.595L702.992 620.199C704.404 619.421 705.694 618.798 706.238 619.097L705.512 618.671L535.373 515.49C535.373 515.49 534.373 514.889 533.385 514.286C532.288 513.618 529.888 513.992 528.024 515.122L417.747 581.998C414.961 583.697 414.961 586.459 417.747 588.138L581.733 687.595C584.528 689.288 589.06 689.29 591.855 687.595Z" fill="white"/>
<path d="M539.602 508.468L540.304 508.898L713.657 614.003C713.657 614.003 713.774 613.716 714.028 613.512C714.183 613.409 714.378 613.307 714.612 613.164L715.86 612.406C716.328 612.12 716.854 611.792 717.4 611.465C718.121 611.035 718.784 611.117 719.368 611.649C719.446 611.69 719.505 611.751 719.563 611.833C719.758 612.038 719.934 612.304 720.089 612.591C720.265 612.898 720.421 613.246 720.538 613.614C720.674 613.983 720.791 614.392 720.889 614.802C720.986 615.252 721.064 615.702 721.142 616.194C721.201 616.46 721.22 616.746 721.24 617.033C721.259 617.258 721.278 617.463 721.298 617.709C721.337 618.22 721.356 618.753 721.356 619.305V614.189C721.356 611.366 719.076 607.701 716.29 606.004L552.29 506.547C549.485 504.848 545.45 504.563 543.269 505.872L541.202 507.141L541.124 507.182C540.988 507.284 540.637 507.489 540.247 507.714C540.247 507.714 540.228 507.714 540.228 507.735C539.99 507.876 539.758 508.142 539.602 508.468Z" fill="#04C45C"/>
<path opacity="0.8" d="M539.602 508.468L540.304 508.898L713.657 614.003C713.657 614.003 713.774 613.716 714.028 613.512C714.183 613.409 714.378 613.307 714.612 613.164L715.86 612.406C716.328 612.12 716.854 611.792 717.4 611.465C718.121 611.035 718.784 611.117 719.368 611.649C719.446 611.69 719.505 611.751 719.563 611.833C719.758 612.038 719.934 612.304 720.089 612.591C720.265 612.898 720.421 613.246 720.538 613.614C720.674 613.983 720.791 614.392 720.889 614.802C720.986 615.252 721.064 615.702 721.142 616.194C721.201 616.46 721.22 616.746 721.24 617.033C721.259 617.258 721.278 617.463 721.298 617.709C721.337 618.22 721.356 618.753 721.356 619.305V614.189C721.356 611.366 719.076 607.701 716.29 606.004L552.29 506.547C549.485 504.848 545.45 504.563 543.269 505.872L541.202 507.141L541.124 507.182C540.988 507.284 540.637 507.489 540.247 507.714C540.247 507.714 540.228 507.714 540.228 507.735C539.99 507.876 539.758 508.142 539.602 508.468Z" fill="white"/>
<path d="M591.819 687.613C591.838 687.613 591.838 687.593 591.838 687.593L598.717 683.418L677.765 635.512L702.998 620.205C704.792 619.099 706.252 618.71 706.349 619.283C706.369 619.304 706.369 619.324 706.369 619.345V620.553C706.369 621.883 708.142 621.883 710.324 620.553C712.468 619.263 713.402 617.668 713.441 616.378V615.068C713.441 614.392 713.694 613.696 714.025 613.512C714.181 613.41 714.396 613.287 714.61 613.164C714.961 612.959 715.39 612.693 715.858 612.407C716.325 612.12 716.852 611.792 717.398 611.465C718.119 611.035 718.781 611.117 719.366 611.649C719.444 611.69 719.503 611.751 719.561 611.833C719.698 611.977 719.815 612.14 719.912 612.325C719.99 612.407 720.029 612.488 720.087 612.591C720.263 612.898 720.419 613.246 720.536 613.614C720.672 613.983 720.789 614.392 720.887 614.802C720.984 615.252 721.062 615.703 721.14 616.194C721.198 616.46 721.218 616.747 721.237 617.033C721.257 617.258 721.276 617.463 721.296 617.709C721.335 618.221 721.354 618.753 721.354 619.306V637.232H717.458V619.306C717.458 618.876 717.438 618.446 717.419 618.036L717.321 617.013C717.321 616.972 717.321 616.951 717.302 616.91C716.951 620.164 713.99 623.071 711.417 624.604C710.267 625.321 708.495 626.16 706.663 626.16C705.298 626.16 704.072 625.648 703.176 624.809L702.825 625.014C702.591 625.157 702.376 625.3 702.143 625.444L602.635 685.793L591.86 692.322C591.86 692.322 591.84 692.322 591.84 692.342C591.821 692.363 591.801 692.363 591.762 692.383C590.378 693.182 588.587 693.591 586.793 693.591V688.868C588.805 688.866 590.405 688.397 591.819 687.613Z" fill="#04C45C"/>
<path opacity="0.6" d="M591.819 687.613C591.838 687.613 591.838 687.593 591.838 687.593L598.717 683.418L677.765 635.512L702.998 620.205C704.792 619.099 706.252 618.71 706.349 619.283C706.369 619.304 706.369 619.324 706.369 619.345V620.553C706.369 621.883 708.142 621.883 710.324 620.553C712.468 619.263 713.402 617.668 713.441 616.378V615.068C713.441 614.392 713.694 613.696 714.025 613.512C714.181 613.41 714.396 613.287 714.61 613.164C714.961 612.959 715.39 612.693 715.858 612.407C716.325 612.12 716.852 611.792 717.398 611.465C718.119 611.035 718.781 611.117 719.366 611.649C719.444 611.69 719.503 611.751 719.561 611.833C719.698 611.977 719.815 612.14 719.912 612.325C719.99 612.407 720.029 612.488 720.087 612.591C720.263 612.898 720.419 613.246 720.536 613.614C720.672 613.983 720.789 614.392 720.887 614.802C720.984 615.252 721.062 615.703 721.14 616.194C721.198 616.46 721.218 616.747 721.237 617.033C721.257 617.258 721.276 617.463 721.296 617.709C721.335 618.221 721.354 618.753 721.354 619.306V637.232H717.458V619.306C717.458 618.876 717.438 618.446 717.419 618.036L717.321 617.013C717.321 616.972 717.321 616.951 717.302 616.91C716.951 620.164 713.99 623.071 711.417 624.604C710.267 625.321 708.495 626.16 706.663 626.16C705.298 626.16 704.072 625.648 703.176 624.809L702.825 625.014C702.591 625.157 702.376 625.3 702.143 625.444L602.635 685.793L591.86 692.322C591.86 692.322 591.84 692.322 591.84 692.342C591.821 692.363 591.801 692.363 591.762 692.383C590.378 693.182 588.587 693.591 586.793 693.591V688.868C588.805 688.866 590.405 688.397 591.819 687.613Z" fill="white"/>
<path d="M415.661 585.009V589.818C415.661 590.924 416.323 592.009 417.668 592.846L417.746 592.887L570.972 685.795L581.727 692.324V692.344C581.727 692.344 581.747 692.324 581.747 692.344C583.15 693.163 584.961 693.593 586.794 693.593V688.866C584.961 688.866 583.131 688.456 581.727 687.597L574.888 683.443H574.868L417.745 588.14C416.256 587.232 415.666 586.171 415.661 585.009Z" fill="#04C45C"/>
<path opacity="0.1" d="M415.661 585.009V589.818C415.661 590.924 416.323 592.009 417.668 592.846L417.746 592.887L570.972 685.795L581.727 692.324V692.344C581.727 692.344 581.747 692.324 581.747 692.344C583.15 693.163 584.961 693.593 586.794 693.593V688.866C584.961 688.866 583.131 688.456 581.727 687.597L574.888 683.443H574.868L417.745 588.14C416.256 587.232 415.666 586.171 415.661 585.009Z" fill="white"/>
<path d="M528.024 515.12C529.888 513.99 532.287 513.616 533.384 514.284C534.373 514.887 535.363 515.488 535.363 515.488C537.555 514.137 539.31 512.01 539.31 510.679V509.574C539.31 509.205 539.427 508.816 539.602 508.468C539.758 508.141 539.992 507.875 540.226 507.731C540.226 507.711 540.245 507.711 540.245 507.711C540.635 507.486 540.986 507.281 541.122 507.178L541.2 507.138L543.266 505.868C545.448 504.558 549.483 504.845 552.288 506.544L716.288 606.001C716.347 606.036 716.402 606.084 716.46 606.123L600.592 676.384C598.728 677.513 595.71 677.508 593.85 676.369L428.777 575.308L528.024 515.12Z" fill="#263238"/>
<path d="M609.868 666.241L605.477 663.59C605.477 663.59 607.997 662.749 609.159 663.319C610.324 663.89 609.868 666.241 609.868 666.241Z" fill="#04C45C"/>
<path opacity="0.7" d="M609.868 666.241L605.477 663.59C605.477 663.59 607.997 662.749 609.159 663.319C610.324 663.89 609.868 666.241 609.868 666.241Z" fill="black"/>
<path d="M612.882 663.339C612.882 663.339 609.328 659.226 605.063 663.339C600.798 667.452 600.576 671.528 598.811 671.461C597.044 671.394 597.071 638.613 597.071 638.613L613.885 655.037L612.882 663.339Z" fill="#04C45C"/>
<path opacity="0.7" d="M612.882 663.339C612.882 663.339 609.328 659.226 605.063 663.339C600.798 667.452 600.576 671.528 598.811 671.461C597.044 671.394 597.071 638.613 597.071 638.613L613.885 655.037L612.882 663.339Z" fill="black"/>
<path d="M436.696 544.123L436.419 543.956L439.121 542.316L555.14 471.965L724.202 586.88C726.998 588.575 727.492 591.019 725.308 592.338L721.352 594.726L612.902 660.518L612.133 659.93L436.696 544.123Z" fill="#04C45C"/>
<path opacity="0.5" d="M436.696 544.123L436.419 543.956L439.121 542.316L555.14 471.965L724.202 586.88C726.998 588.575 727.492 591.019 725.308 592.338L721.352 594.726L612.902 660.518L612.133 659.93L436.696 544.123Z" fill="black"/>
<path d="M598.43 623.093L606.827 621.275V656.598C601.761 658.856 598.54 660.992 598.008 665.444L598.43 623.093Z" fill="#455A64"/>
<path d="M610.543 657.065L717.977 591.918C719.841 590.788 721.353 588.039 721.353 585.778V550.957L612.881 617.307C612.881 617.307 611.587 622.233 607.74 623.789C603.893 625.343 606.826 626.906 606.826 626.906V656.6C610.15 656.187 610.543 657.065 610.543 657.065Z" fill="#F0F0F0"/>
<path d="M600.638 621.885C601.749 621.21 602.624 621.169 602.624 621.803V622.909C602.624 624.137 604.398 624.076 606.599 622.745C608.78 621.414 610.579 619.35 610.579 618.124V617.015C610.579 616.38 612.074 614.969 613.924 613.843L439.125 508.652C438.055 509.304 436.419 510.303 436.419 510.303C435.968 510.769 435.755 511.556 435.755 511.824V512.929C435.755 514.158 433.981 516.223 431.8 517.554C429.597 518.885 427.825 518.946 427.825 517.718V516.612C427.825 515.978 426.948 516.019 425.839 516.694L600.638 621.885Z" fill="#04C45C"/>
<path opacity="0.6" d="M600.638 621.885C601.749 621.21 602.624 621.169 602.624 621.803V622.909C602.624 624.137 604.398 624.076 606.599 622.745C608.78 621.414 610.579 619.35 610.579 618.124V617.015C610.579 616.38 612.074 614.969 613.924 613.843L439.125 508.652C438.055 509.304 436.419 510.303 436.419 510.303C435.968 510.769 435.755 511.556 435.755 511.824V512.929C435.755 514.158 433.981 516.223 431.8 517.554C429.597 518.885 427.825 518.946 427.825 517.718V516.612C427.825 515.978 426.948 516.019 425.839 516.694L600.638 621.885Z" fill="black"/>
<path d="M436.696 510.471L436.419 510.303L439.121 508.664L555.14 438.312L724.202 540.848C726.998 542.543 727.492 544.987 725.308 546.306L721.352 548.694L612.88 617.305L436.696 510.471Z" fill="#04C45C"/>
<path opacity="0.5" d="M436.696 510.471L436.419 510.303L439.121 508.664L555.14 438.312L724.202 540.848C726.998 542.543 727.492 544.987 725.308 546.306L721.352 548.694L612.88 617.305L436.696 510.471Z" fill="black"/>
<path d="M427.792 515.535L602.452 621.446L596.337 626.469L422.242 520.9C422.997 519.021 423.778 518.031 424.572 517.487L427.792 515.535Z" fill="#04C45C"/>
<path opacity="0.5" d="M427.792 515.535L602.452 621.446L596.337 626.469L422.242 520.9C422.997 519.021 423.778 518.031 424.572 517.487L427.792 515.535Z" fill="black"/>
<path d="M422.924 568.334C422.816 568.269 422.711 568.189 422.608 568.096C422.53 568.055 422.472 567.993 422.413 567.912C422.277 567.768 422.16 567.604 422.063 567.42C421.985 567.338 421.946 567.256 421.887 567.154C421.712 566.847 421.556 566.499 421.439 566.131C421.302 565.762 421.185 565.353 421.088 564.943C420.99 564.493 420.912 564.042 420.835 563.551C420.776 563.285 420.757 562.998 420.737 562.712C420.718 562.486 420.698 562.282 420.679 562.036C420.64 561.524 420.62 560.992 420.62 560.439V530.133C420.62 526.746 421.258 523.353 422.238 520.895L596.334 626.469L597.069 673.949L422.98 568.366L422.924 568.334Z" fill="#04C45C"/>
<path opacity="0.7" d="M422.924 568.334C422.816 568.269 422.711 568.189 422.608 568.096C422.53 568.055 422.472 567.993 422.413 567.912C422.277 567.768 422.16 567.604 422.063 567.42C421.985 567.338 421.946 567.256 421.887 567.154C421.712 566.847 421.556 566.499 421.439 566.131C421.302 565.762 421.185 565.353 421.088 564.943C420.99 564.493 420.912 564.042 420.835 563.551C420.776 563.285 420.757 562.998 420.737 562.712C420.718 562.486 420.698 562.282 420.679 562.036C420.64 561.524 420.62 560.992 420.62 560.439V530.133C420.62 526.746 421.258 523.353 422.238 520.895L596.334 626.469L597.069 673.949L422.98 568.366L422.924 568.334Z" fill="black"/>
<path opacity="0.79" d="M596.335 626.471C596.335 626.471 459.228 559.071 446.748 552.896C438.515 548.822 434.468 557.38 436.417 566.242C438.12 573.984 445.398 581.963 445.398 581.963L422.98 568.368L422.922 568.334C422.814 568.269 422.709 568.189 422.607 568.096C422.529 568.055 422.47 567.993 422.412 567.912C422.275 567.768 422.158 567.605 422.061 567.42C421.983 567.338 421.944 567.256 421.885 567.154C421.71 566.847 421.554 566.499 421.437 566.131C421.301 565.762 421.184 565.353 421.086 564.943C420.989 564.493 420.911 564.042 420.833 563.551C420.774 563.285 420.755 562.998 420.735 562.712C420.716 562.486 420.696 562.282 420.677 562.036C420.638 561.524 420.618 560.992 420.618 560.439V530.133C420.618 526.746 421.256 523.353 422.236 520.895L596.335 626.471Z" fill="#263238"/>
<path d="M594.723 635.719H598.62C598.62 631.339 599.847 627.718 600.51 626.776C601.368 627.472 602.459 627.882 603.705 627.882C605.537 627.882 607.348 627.022 608.557 626.285C610.136 625.323 611.888 623.85 613.058 622.131C613.136 622.008 613.233 621.885 613.292 621.762C613.993 620.677 614.422 619.469 614.461 618.263L717.358 555.868L720.846 553.739L725.307 551.037C726.224 550.484 726.672 549.727 726.672 548.928V544.14C726.672 545.081 726.146 545.778 725.307 546.308L725.249 546.349L713.441 553.492L613.933 613.841C612.081 614.967 610.563 616.38 610.563 617.013V618.118C610.563 618.651 610.231 619.347 609.647 620.063C608.945 621.005 607.834 621.987 606.608 622.745C604.405 624.076 602.633 624.137 602.633 622.909V621.803C602.633 621.169 601.756 621.21 600.645 621.885L598.676 623.093C596.497 624.401 594.723 630.07 594.723 635.719Z" fill="#04C45C"/>
<path d="M598.62 635.719V666.025C598.62 666.455 598.639 666.885 598.659 667.294L598.756 668.318C598.756 668.358 598.756 668.379 598.776 668.42C599.126 665.167 602.087 662.26 604.66 660.726C605.81 660.01 607.582 659.17 609.415 659.17C610.779 659.17 612.005 659.682 612.902 660.521L613.253 660.317C613.487 660.173 613.701 660.03 613.935 659.887L713.442 599.537C713.442 599.537 716.053 597.961 719.152 596.079C719.678 595.752 720.243 595.424 720.789 595.076C722.465 594.052 724.159 593.029 725.602 592.15C726.264 591.639 726.674 591.004 726.674 590.185V591.495V594.974C726.674 595.649 726.342 596.304 725.68 596.816C725.68 596.837 725.66 596.837 725.641 596.857C725.075 597.205 724.471 597.553 723.867 597.942C723.497 598.167 723.126 598.393 722.756 598.618C722.093 599.007 721.45 599.416 720.846 599.785C720.417 600.051 720.027 600.296 719.657 600.501C719.345 600.685 719.072 600.87 718.819 601.013C717.922 601.566 717.357 601.914 717.357 601.914L638.309 649.82L613.075 665.128C611.282 666.233 609.822 666.622 609.725 666.049C609.709 665.969 609.705 665.874 609.705 665.853V664.781C609.705 663.451 607.931 663.451 605.75 664.781C603.606 666.071 602.67 667.666 602.633 668.956V670.266C602.633 670.942 602.38 671.638 602.048 671.822C601.892 671.924 601.678 672.047 601.464 672.17C601.113 672.375 600.684 672.641 600.216 672.927C599.748 673.214 599.222 673.542 598.676 673.869C597.955 674.299 597.292 674.217 596.708 673.685C596.63 673.644 596.571 673.583 596.513 673.501C596.376 673.357 596.259 673.194 596.162 673.009V672.989C596.084 672.907 596.045 672.846 595.986 672.743C595.811 672.436 595.655 672.088 595.538 671.72C595.402 671.351 595.285 670.942 595.187 670.532C595.09 670.082 595.012 669.631 594.934 669.14C594.875 668.874 594.856 668.587 594.836 668.301C594.817 668.076 594.797 667.871 594.778 667.625C594.739 667.113 594.719 666.581 594.719 666.028V635.722H598.62V635.719Z" fill="#04C45C"/>
<g opacity="0.6">
<path d="M594.723 635.719H598.62C598.62 631.339 599.847 627.718 600.51 626.776C601.368 627.472 602.459 627.882 603.705 627.882C605.537 627.882 607.348 627.022 608.557 626.285C610.136 625.323 611.888 623.85 613.058 622.131C613.136 622.008 613.233 621.885 613.292 621.762C613.993 620.677 614.422 619.469 614.461 618.263L717.358 555.868L720.846 553.739L725.307 551.037C726.224 550.484 726.672 549.727 726.672 548.928V544.14C726.672 545.081 726.146 545.778 725.307 546.308L725.249 546.349L713.441 553.492L613.933 613.841C612.081 614.967 610.563 616.38 610.563 617.013V618.118C610.563 618.651 610.231 619.347 609.647 620.063C608.945 621.005 607.834 621.987 606.608 622.745C604.405 624.076 602.633 624.137 602.633 622.909V621.803C602.633 621.169 601.756 621.21 600.645 621.885L598.676 623.093C596.497 624.401 594.723 630.07 594.723 635.719Z" fill="black"/>
<path d="M598.62 635.719V666.025C598.62 666.455 598.639 666.885 598.659 667.294L598.756 668.318C598.756 668.358 598.756 668.379 598.776 668.42C599.126 665.167 602.087 662.26 604.66 660.726C605.81 660.01 607.582 659.17 609.415 659.17C610.779 659.17 612.005 659.682 612.902 660.521L613.253 660.317C613.487 660.173 613.701 660.03 613.935 659.887L713.442 599.537C713.442 599.537 716.053 597.961 719.152 596.079C719.678 595.752 720.243 595.424 720.789 595.076C722.465 594.052 724.159 593.029 725.602 592.15C726.264 591.639 726.674 591.004 726.674 590.185V591.495V594.974C726.674 595.649 726.342 596.304 725.68 596.816C725.68 596.837 725.66 596.837 725.641 596.857C725.075 597.205 724.471 597.553 723.867 597.942C723.497 598.167 723.126 598.393 722.756 598.618C722.093 599.007 721.45 599.416 720.846 599.785C720.417 600.051 720.027 600.296 719.657 600.501C719.345 600.685 719.072 600.87 718.819 601.013C717.922 601.566 717.357 601.914 717.357 601.914L638.309 649.82L613.075 665.128C611.282 666.233 609.822 666.622 609.725 666.049C609.709 665.969 609.705 665.874 609.705 665.853V664.781C609.705 663.451 607.931 663.451 605.75 664.781C603.606 666.071 602.67 667.666 602.633 668.956V670.266C602.633 670.942 602.38 671.638 602.048 671.822C601.892 671.924 601.678 672.047 601.464 672.17C601.113 672.375 600.684 672.641 600.216 672.927C599.748 673.214 599.222 673.542 598.676 673.869C597.955 674.299 597.292 674.217 596.708 673.685C596.63 673.644 596.571 673.583 596.513 673.501C596.376 673.357 596.259 673.194 596.162 673.009V672.989C596.084 672.907 596.045 672.846 595.986 672.743C595.811 672.436 595.655 672.088 595.538 671.72C595.402 671.351 595.285 670.942 595.187 670.532C595.09 670.082 595.012 669.631 594.934 669.14C594.875 668.874 594.856 668.587 594.836 668.301C594.817 668.076 594.797 667.871 594.778 667.625C594.739 667.113 594.719 666.581 594.719 666.028V635.722H598.62V635.719Z" fill="black"/>
</g>
<path d="M422.245 520.891L587.708 621.228L712.78 545.387C714.651 544.261 714.651 542.42 712.78 541.294L549.052 442.001L439.139 508.654H439.12C438.048 509.309 436.41 510.313 436.41 510.313C435.962 510.763 435.748 511.561 435.748 511.827V512.933C435.748 514.161 433.974 516.227 431.793 517.558C431.676 517.64 431.559 517.681 431.442 517.742L427.799 515.531L426.064 516.575C425.986 516.616 425.927 516.637 425.83 516.698L425.849 516.718L424.563 517.496C423.785 518.027 422.986 519.028 422.245 520.891Z" fill="#263238"/>
<path d="M703.468 546.146L698.489 543.354L703.023 542.215C703.946 543.319 704.005 544.653 703.468 546.146Z" fill="#E0E0E0"/>
<path opacity="0.5" d="M703.468 546.146L698.489 543.354L703.023 542.215C703.946 543.319 704.005 544.653 703.468 546.146Z" fill="#E0E0E0"/>
<path d="M571.584 615.904C574.381 617.599 578.913 617.599 581.709 615.904L695.366 546.98L525.228 434.019L521.253 431.603L407.6 510.307C404.814 512.006 404.814 514.768 407.6 516.447L571.584 615.904Z" fill="#04C45C"/>
<path d="M614.261 475.925L700.126 537.045L653.895 499.885L679.553 484.326L709.401 502.436C709.401 502.436 709.401 532.071 709.401 534.81C709.401 537.55 706.477 541.45 705.414 540.808C705.414 540.808 703.076 541.311 699.708 542.936C696.338 544.562 691.47 549.336 691.47 549.336L600.397 484.332L614.261 475.925Z" fill="#04C45C"/>
<path opacity="0.2" d="M614.261 475.925L700.126 537.045L653.895 499.885L679.553 484.326L709.401 502.436C709.401 502.436 709.401 532.071 709.401 534.81C709.401 537.55 706.477 541.45 705.414 540.808C705.414 540.808 703.076 541.311 699.708 542.936C696.338 544.562 691.47 549.336 691.47 549.336L600.397 484.332L614.261 475.925Z" fill="black"/>
<path d="M576.647 575.523V612.889C577.875 612.889 579.101 612.622 580.017 612.049L592.487 604.499L687.454 546.913L687.474 508.319L576.647 575.523Z" fill="white"/>
<path d="M410.444 478.194V509.216C410.444 511.468 411.964 514.23 413.814 515.356L560.825 604.499L573.275 612.049C574.191 612.622 575.419 612.889 576.645 612.889V578.449L410.444 478.194Z" fill="#F0F0F0"/>
<path d="M687.455 546.913C687.494 545.562 688.039 544.235 688.878 543.047C690.047 541.328 691.799 539.855 693.378 538.893C694.587 538.156 696.398 537.296 698.23 537.296C699.477 537.296 700.567 537.393 701.425 538.089V499.861L687.474 508.319L687.455 546.913Z" fill="#455A64"/>
<path d="M693.027 539.128C691.544 540.088 689.962 541.451 688.878 543.045C688.039 544.233 687.494 545.56 687.455 546.911L687.472 509.669H693.026L693.027 539.128Z" fill="#F5F5F5"/>
<path d="M525.228 400.348L695.366 503.529C695.366 503.529 695.366 504.593 695.366 505.922C695.366 507.253 697.14 507.744 699.321 506.414C701.524 505.083 703.296 503.426 703.296 501.134L703.51 498.861L530.157 393.756L529.455 393.326C529.28 393.674 529.163 394.063 529.163 394.431V395.537C529.163 396.87 527.409 398.997 525.228 400.348Z" fill="#04C45C"/>
<path opacity="0.2" d="M525.228 400.348L695.366 503.529C695.366 503.529 695.366 504.593 695.366 505.922C695.366 507.253 697.14 507.744 699.321 506.414C701.524 505.083 703.296 503.426 703.296 501.134L703.51 498.861L530.157 393.756L529.455 393.326C529.28 393.674 529.163 394.063 529.163 394.431V395.537C529.163 396.87 527.409 398.997 525.228 400.348Z" fill="black"/>
<path d="M581.71 572.453L692.847 505.057C694.259 504.279 695.549 503.655 696.093 503.955L695.367 503.529L525.228 400.348C525.228 400.348 524.228 399.747 523.24 399.144C522.143 398.476 519.743 398.85 517.879 399.979L407.602 466.858C404.816 468.557 404.816 471.319 407.602 472.998L571.588 572.455C574.381 574.148 578.914 574.15 581.71 572.453Z" fill="#04C45C"/>
<path d="M529.456 393.33L530.157 393.76L703.511 498.865C703.511 498.865 703.627 498.578 703.881 498.374C704.037 498.271 704.232 498.169 704.466 498.026L705.713 497.268C706.181 496.982 706.707 496.654 707.253 496.326C707.974 495.896 708.637 495.978 709.222 496.511C709.3 496.552 709.358 496.613 709.417 496.695C709.611 496.9 709.787 497.166 709.943 497.452C710.118 497.759 710.274 498.108 710.391 498.476C710.528 498.845 710.644 499.254 710.742 499.663C710.839 500.114 710.917 500.564 710.995 501.055C711.054 501.322 711.073 501.608 711.093 501.895C711.112 502.12 711.132 502.325 711.151 502.57C711.19 503.082 711.21 503.614 711.21 504.167V499.051C711.21 496.228 708.931 492.563 706.144 490.866L542.143 391.409C539.338 389.71 535.303 389.425 533.122 390.734L531.056 392.003L530.978 392.044C530.841 392.146 530.49 392.351 530.101 392.576C530.101 392.576 530.081 392.576 530.081 392.596C529.845 392.736 529.612 393.002 529.456 393.33Z" fill="#04C45C"/>
<path d="M581.713 615.898L588.572 611.724L691.47 549.328C691.509 547.977 692.035 546.649 692.873 545.461C694.043 543.741 695.795 542.269 697.374 541.307C698.582 540.57 700.393 539.71 702.226 539.71C703.473 539.71 704.563 540.12 705.421 540.816C706.083 539.874 707.311 536.252 707.311 531.873H711.208C711.208 537.522 709.434 543.191 707.253 544.501L705.284 545.709C704.173 546.384 703.296 546.425 703.296 545.791V544.685C703.296 543.457 701.522 543.518 699.321 544.849C697.138 546.18 695.366 548.245 695.366 549.474V550.579C695.366 551.214 693.846 552.626 691.996 553.75L592.489 614.1L581.713 620.629C581.713 620.629 581.694 620.629 581.694 620.649C580.29 621.468 578.479 621.898 576.647 621.898V617.171C578.477 617.165 580.31 616.756 581.713 615.898Z" fill="#04C45C"/>
<path opacity="0.4" d="M581.713 615.898L588.572 611.724L691.47 549.328C691.509 547.977 692.035 546.649 692.873 545.461C694.043 543.741 695.795 542.269 697.374 541.307C698.582 540.57 700.393 539.71 702.226 539.71C703.473 539.71 704.563 540.12 705.421 540.816C706.083 539.874 707.311 536.252 707.311 531.873H711.208C711.208 537.522 709.434 543.191 707.253 544.501L705.284 545.709C704.173 546.384 703.296 546.425 703.296 545.791V544.685C703.296 543.457 701.522 543.518 699.321 544.849C697.138 546.18 695.366 548.245 695.366 549.474V550.579C695.366 551.214 693.846 552.626 691.996 553.75L592.489 614.1L581.713 620.629C581.713 620.629 581.694 620.629 581.694 620.649C580.29 621.468 578.479 621.898 576.647 621.898V617.171C578.477 617.165 580.31 616.756 581.713 615.898Z" fill="black"/>
<path d="M581.674 572.475C581.674 572.475 581.694 572.455 581.713 572.455L588.572 568.28L667.621 520.374L692.854 505.066C694.647 503.961 696.107 503.572 696.204 504.145C696.224 504.165 696.224 504.186 696.224 504.206V505.414C696.224 506.745 697.998 506.745 700.179 505.414C702.323 504.124 703.257 502.529 703.296 501.24V499.929C703.296 499.254 703.549 498.558 703.881 498.374C704.037 498.271 704.251 498.148 704.465 498.026C704.816 497.821 705.245 497.555 705.713 497.268C706.181 496.982 706.707 496.654 707.253 496.326C707.974 495.896 708.637 495.978 709.221 496.511C709.299 496.552 709.358 496.613 709.416 496.695C709.553 496.838 709.67 497.002 709.767 497.186C709.845 497.268 709.884 497.35 709.943 497.452C710.118 497.759 710.274 498.108 710.391 498.476C710.527 498.845 710.644 499.254 710.742 499.663C710.839 500.114 710.917 500.564 710.995 501.055C711.054 501.322 711.073 501.608 711.093 501.895C711.112 502.12 711.132 502.325 711.151 502.57C711.19 503.082 711.21 503.614 711.21 504.167V531.873H707.313V504.167C707.313 503.737 707.294 503.307 707.274 502.898L707.177 501.874C707.177 501.833 707.177 501.813 707.157 501.772C706.806 505.025 703.845 507.932 701.272 509.466C700.122 510.182 698.35 511.022 696.518 511.022C695.154 511.022 693.926 510.51 693.031 509.67L692.68 509.875C692.446 510.019 692.232 510.162 691.998 510.305L592.49 570.655L581.715 577.184C581.715 577.184 581.695 577.183 581.695 577.204C581.676 577.224 581.656 577.224 581.617 577.245C580.233 578.043 578.442 578.453 576.649 578.453V573.729C578.66 573.726 580.26 573.257 581.674 572.475Z" fill="#04C45C"/>
<path opacity="0.4" d="M581.674 572.475C581.674 572.475 581.694 572.455 581.713 572.455L588.572 568.28L667.621 520.374L692.854 505.066C694.647 503.961 696.107 503.572 696.204 504.145C696.224 504.165 696.224 504.186 696.224 504.206V505.414C696.224 506.745 697.998 506.745 700.179 505.414C702.323 504.124 703.257 502.529 703.296 501.24V499.929C703.296 499.254 703.549 498.558 703.881 498.374C704.037 498.271 704.251 498.148 704.465 498.026C704.816 497.821 705.245 497.555 705.713 497.268C706.181 496.982 706.707 496.654 707.253 496.326C707.974 495.896 708.637 495.978 709.221 496.511C709.299 496.552 709.358 496.613 709.416 496.695C709.553 496.838 709.67 497.002 709.767 497.186C709.845 497.268 709.884 497.35 709.943 497.452C710.118 497.759 710.274 498.108 710.391 498.476C710.527 498.845 710.644 499.254 710.742 499.663C710.839 500.114 710.917 500.564 710.995 501.055C711.054 501.322 711.073 501.608 711.093 501.895C711.112 502.12 711.132 502.325 711.151 502.57C711.19 503.082 711.21 503.614 711.21 504.167V531.873H707.313V504.167C707.313 503.737 707.294 503.307 707.274 502.898L707.177 501.874C707.177 501.833 707.177 501.813 707.157 501.772C706.806 505.025 703.845 507.932 701.272 509.466C700.122 510.182 698.35 511.022 696.518 511.022C695.154 511.022 693.926 510.51 693.031 509.67L692.68 509.875C692.446 510.019 692.232 510.162 691.998 510.305L592.49 570.655L581.715 577.184C581.715 577.184 581.695 577.183 581.695 577.204C581.676 577.224 581.656 577.224 581.617 577.245C580.233 578.043 578.442 578.453 576.649 578.453V573.729C578.66 573.726 580.26 573.257 581.674 572.475Z" fill="black"/>
<path d="M405.514 469.869V474.678C405.514 475.784 406.177 476.869 407.522 477.706L407.6 477.747L560.825 570.655L571.581 577.184V577.204C571.581 577.204 571.6 577.183 571.6 577.204C573.004 578.023 574.815 578.453 576.647 578.453V573.726C574.815 573.726 572.984 573.316 571.581 572.456L564.741 568.302H564.722L407.598 472.999C406.111 472.091 405.519 471.03 405.514 469.869Z" fill="#04C45C"/>
<path opacity="0.2" d="M405.514 469.869V474.678C405.514 475.784 406.177 476.869 407.522 477.706L407.6 477.747L560.825 570.655L571.581 577.184V577.204C571.581 577.204 571.6 577.183 571.6 577.204C573.004 578.023 574.815 578.453 576.647 578.453V573.726C574.815 573.726 572.984 573.316 571.581 572.456L564.741 568.302H564.722L407.598 472.999C406.111 472.091 405.519 471.03 405.514 469.869Z" fill="black"/>
<path d="M405.514 513.309V518.118C405.514 519.223 406.177 520.309 407.522 521.146L407.6 521.187L560.825 614.095L571.581 620.623V620.644C571.581 620.644 571.6 620.623 571.6 620.644C573.004 621.463 574.815 621.893 576.647 621.893V617.165C574.815 617.165 572.984 616.756 571.581 615.896L564.741 611.742H564.722L407.598 516.439C406.111 515.533 405.519 514.47 405.514 513.309Z" fill="#04C45C"/>
<path opacity="0.2" d="M405.514 513.309V518.118C405.514 519.223 406.177 520.309 407.522 521.146L407.6 521.187L560.825 614.095L571.581 620.623V620.644C571.581 620.644 571.6 620.623 571.6 620.644C573.004 621.463 574.815 621.893 576.647 621.893V617.165C574.815 617.165 572.984 616.756 571.581 615.896L564.741 611.742H564.722L407.598 516.439C406.111 515.533 405.519 514.47 405.514 513.309Z" fill="black"/>
<path d="M476.285 344.448L460.031 374.901L483.736 388.15L500.988 361.172L476.285 344.448Z" fill="#FFA8A7"/>
<path d="M534.007 275.874C524.97 274.253 511.282 273.821 502.385 289.853C493.486 305.884 474.322 345.423 474.322 345.423C474.322 345.423 485.526 360.651 501.731 363.416L528.224 319.268L534.007 275.874Z" fill="#04C45C"/>
<path d="M512.657 648.758H492.423V685.14H512.657V648.758Z" fill="#FFA8A7"/>
<path d="M454.061 639.895L433.837 640.626L432.824 602.124L453.047 601.395L454.061 639.895Z" fill="#FFA8A7"/>
<path d="M492.423 674.649V671.61C490.486 672.496 485.989 690.522 477.96 698.212C471.577 704.326 462.87 711.389 460.656 718.206C458.353 725.295 472.782 729.209 478.745 728.1C485.673 726.812 497.682 721.686 500.698 716.937C503.712 712.187 505.124 705.18 507.573 701.698C510.022 698.218 515.669 694.33 516.993 690.301C517.721 688.088 516.857 683.24 515.834 679.144C514.897 675.386 513.88 671.254 512.659 671.606C512.655 672.064 512.659 673.923 512.659 673.923C511.19 675.634 507.125 677.331 502.543 677.515C499.58 677.638 492.398 677.02 492.423 674.649Z" fill="#263238"/>
<path d="M433.623 634.073C432.572 634.113 431.716 635.668 429.4 638.304C426.599 641.488 422.018 644.922 417.498 647.298C409.921 651.281 395.19 657.41 388.522 660.564C384.357 662.535 384.553 667.819 388.857 670.826C393.163 673.834 403.558 676 416.038 673.069C422.837 671.472 431.688 664.876 437.289 665.232C442.89 665.587 453.374 665.504 457.509 662.509C461.645 659.517 459.99 653.122 458.821 647.628C457.545 641.631 455.72 632.458 453.829 632.867L453.891 634.753C451.458 638.622 439.074 640.202 433.729 637.355L433.623 634.073Z" fill="#263238"/>
<path d="M594.165 427.494C598.598 460.337 592.625 466.642 562.903 498.102C546.922 515.017 521.166 539.835 521.166 539.835C521.166 539.835 521.538 550.322 521.749 573.845C521.933 594.561 513.688 661.977 513.688 661.977C513.688 661.977 500.264 667.908 491.046 661.752C491.046 661.752 486.883 611.597 484.638 585.471C481.59 550.034 479.992 532.283 481.716 524.656C483.235 517.936 513.488 477.827 520.466 466.569L456.184 505.79C456.184 505.79 458.376 522.966 458.055 535.77C457.35 563.892 454.063 620.056 454.063 620.056C454.063 620.056 439.343 626.973 432.042 621.01C432.042 621.01 413.521 498.18 413.521 488.099C413.521 472.78 476.863 427.055 488.85 416.405C495.692 410.329 503.322 403.839 503.322 403.839L594.165 427.494Z" fill="#455A64"/>
<path d="M520.466 466.569C520.466 466.569 510.153 458.563 505.778 444.566C505.778 444.566 506.329 453.998 508.067 461.303C509.806 468.605 456.186 505.792 456.186 505.792L520.466 466.569Z" fill="#37474F"/>
<path d="M556.203 217.139C559.824 200.915 550.237 184.681 534.79 180.878C519.343 177.075 503.886 187.145 500.265 203.368C496.645 219.592 506.232 235.826 521.678 239.629C537.125 243.432 552.583 233.362 556.203 217.139Z" fill="#263238"/>
<path d="M588.581 294.148C588.581 294.148 595.685 300.247 595.685 319.528V361.168L594.67 431.181C580.48 447.395 516.656 441.245 500.918 405.892C500.918 405.892 501.042 331.975 501.042 315.421C501.042 298.866 509.825 277.348 534.006 275.872L565.225 283.501L588.581 294.148Z" fill="#263238"/>
<path d="M577.88 231.688C577.88 231.688 573.225 254.658 571.359 258.432C569.492 262.206 565.636 263.278 565.636 263.278L565.962 247.12L577.88 231.688Z" fill="#263238"/>
<path d="M572.038 198.782C572.038 198.782 577.051 197.879 580.96 202.076C584.791 206.191 582.652 219.072 577.88 231.688L569.112 232.745L572.038 198.782Z" fill="#263238"/>
<path d="M566.481 232.753C568.239 233.856 570.748 230.309 572.917 227.925C575.084 225.543 582.163 222.286 585.694 230.101C589.292 238.064 582.578 248.587 577.005 250.424C567.4 253.589 565.96 247.12 565.96 247.12L565.226 283.503C556.949 293.214 528.645 290.897 533.981 282.541L534.007 271.467C534.007 271.467 525.305 272.854 521.061 272.165C513.998 271.019 509.556 265.165 507.413 257.137C503.972 244.239 502.666 233.827 505.585 208.464C508.785 180.663 539.571 180.374 556.196 191.364C572.821 202.354 566.481 232.753 566.481 232.753Z" fill="#FFA8A7"/>
<path d="M542.021 239.116H540.507C535.104 239.116 530.71 234.5 530.71 228.824C530.71 223.149 535.104 218.534 540.507 218.534H542.021C547.423 218.534 551.82 223.149 551.82 228.824C551.82 234.498 547.425 239.116 542.021 239.116ZM540.507 220.268C536.017 220.268 532.361 224.106 532.361 228.824C532.361 233.542 536.017 237.379 540.507 237.379H542.021C546.513 237.379 550.168 233.542 550.168 228.824C550.168 224.106 546.513 220.268 542.021 220.268H540.507Z" fill="#263238"/>
<path d="M512.145 239.116H510.632C505.229 239.116 500.834 234.5 500.834 228.824C500.834 223.149 505.229 218.534 510.632 218.534H512.145C517.548 218.534 521.944 223.149 521.944 228.824C521.944 234.498 517.548 239.116 512.145 239.116ZM510.632 220.268C506.141 220.268 502.487 224.106 502.487 228.824C502.487 233.542 506.143 237.379 510.632 237.379H512.145C516.637 237.379 520.291 233.542 520.291 228.824C520.291 224.106 516.637 220.268 512.145 220.268H510.632Z" fill="#263238"/>
<path d="M530.83 226.793C529.923 225.23 527.892 224.143 525.654 224.024C523.726 223.92 522.025 224.59 521.138 225.815L519.821 224.765C521.056 223.056 523.209 222.154 525.738 222.291C528.548 222.442 531.039 223.821 532.241 225.891L530.83 226.793Z" fill="#263238"/>
<path d="M571.758 226.712H550.912V228.446H571.758V226.712Z" fill="#263238"/>
<path d="M566.481 235.859C567.365 235.877 570.729 230.017 572.917 227.925C575.949 225.027 572.038 198.782 572.038 198.782C572.038 198.782 574.953 192.259 569.113 185.507C564.957 180.705 558.015 180.171 546.16 178.215C539.94 177.188 530.512 175.36 524.301 174.147C516.883 172.699 510.745 171.165 505.509 175.945C501.433 179.665 499.679 186.238 501.873 191.42C502.387 192.635 503.133 193.733 503.98 194.721C505.481 196.474 507.18 197.855 509.317 198.583C509.317 198.583 512.551 201.596 523.801 203.035C535.052 204.473 552.575 202.757 554.969 202.415C558.231 201.946 558.927 205.266 560.687 214.339C562.228 222.303 563.51 235.799 566.481 235.859Z" fill="#263238"/>
<path d="M572.02 200.822L582.65 194.827C581.142 191.628 577.538 190.376 574.604 192.032C571.668 193.688 570.51 197.623 572.02 200.822Z" fill="#263238"/>
<path d="M534.008 271.469C534.008 271.469 549.773 268.134 555.286 265.056C558.975 262.995 562.014 259.426 562.905 257.139C562.905 257.139 561.872 262.052 558.576 266.478C554.545 271.89 534.008 275.876 534.008 275.876V271.469Z" fill="#F28F8F"/>
<path d="M537.796 228.612C537.796 230.516 539.21 232.055 540.955 232.051C542.701 232.045 544.115 230.499 544.115 228.595C544.115 226.691 542.701 225.152 540.955 225.156C539.21 225.161 537.796 226.71 537.796 228.612Z" fill="#263238"/>
<path d="M542.869 214.875L549.628 218.793C550.625 216.753 549.918 214.222 548.052 213.14C546.187 212.059 543.867 212.835 542.869 214.875Z" fill="#263238"/>
<path d="M535.434 251.535L528.222 254.377C528.936 256.549 531.13 257.673 533.122 256.887C535.113 256.102 536.148 253.707 535.434 251.535Z" fill="#F28F8F"/>
<path d="M508.813 217.795L514.976 212.809C513.718 210.956 511.321 210.57 509.618 211.946C507.917 213.323 507.555 215.941 508.813 217.795Z" fill="#263238"/>
<path d="M511.519 227.668C511.519 229.572 512.933 231.111 514.679 231.106C516.422 231.1 517.838 229.553 517.838 227.65C517.838 225.746 516.424 224.207 514.679 224.21C512.935 224.216 511.519 225.764 511.519 227.668Z" fill="#263238"/>
<path d="M527.134 225.005L526.767 245.127L515.443 242.507L527.134 225.005Z" fill="#F28F8F"/>
<path d="M507.772 392.258V394.177C507.772 396.112 506.787 397.906 505.197 398.874L455.986 428.618C455.19 429.102 454.297 429.338 453.402 429.338C452.516 429.338 451.621 429.102 450.827 428.618L360.552 373.879C358.953 372.912 357.968 371.118 357.968 369.182V367.863L453.404 425.733L507.772 392.258Z" fill="#04C45C"/>
<path opacity="0.6" d="M507.772 392.258V394.177C507.772 396.112 506.787 397.906 505.197 398.874L455.986 428.618C455.19 429.102 454.297 429.338 453.402 429.338C452.516 429.338 451.621 429.102 450.827 428.618L360.552 373.879C358.953 372.912 357.968 371.118 357.968 369.182V367.863L453.404 425.733L507.772 392.258Z" fill="black"/>
<path d="M357.965 367.861L411.493 335.405C412.444 334.828 413.617 334.828 414.569 335.405L507.43 391.722C507.885 391.999 507.885 392.69 507.43 392.965L453.4 425.733L357.965 367.861Z" fill="#04C45C"/>
<path opacity="0.5" d="M357.965 367.861L411.493 335.405C412.444 334.828 413.617 334.828 414.569 335.405L507.43 391.722C507.885 391.999 507.885 392.69 507.43 392.965L453.4 425.733L357.965 367.861Z" fill="black"/>
<path d="M453.893 420.961L482.764 403.473L398.346 352.281L369.325 369.679L453.893 420.961Z" fill="#263238"/>
<path d="M468.083 372.312L467.551 372.634L453.4 381.214L428.236 365.953L427.712 365.64L442.394 356.739L468.083 372.312Z" fill="#263238"/>
<path d="M467.551 372.634L453.4 381.214L428.236 365.953L442.394 357.373L467.551 372.634Z" fill="#263238"/>
<path opacity="0.7" d="M453.4 425.731V429.338C452.514 429.338 451.619 429.102 450.825 428.618L360.55 373.879C358.952 372.912 357.966 371.118 357.966 369.182V367.863L453.4 425.731Z" fill="black"/>
<path d="M451.945 426.532C450.237 427.224 448.295 427.092 446.677 426.104L356.799 371.601C355.218 370.643 354.133 369.002 353.825 367.113L343.985 305.484C343.93 305.134 343.904 304.783 343.904 304.431C343.904 302.713 344.554 301.072 345.711 299.866L439.114 356.512C440.28 357.225 441.085 358.438 441.31 359.834L451.945 426.532Z" fill="#04C45C"/>
<path opacity="0.5" d="M451.945 426.532C450.237 427.224 448.295 427.092 446.677 426.104L356.799 371.601C355.218 370.643 354.133 369.002 353.825 367.113L343.985 305.484C343.93 305.134 343.904 304.783 343.904 304.431C343.904 302.713 344.554 301.072 345.711 299.866L439.114 356.512C440.28 357.225 441.085 358.438 441.31 359.834L451.945 426.532Z" fill="black"/>
<path d="M453.4 425.735L452.785 426.105C452.514 426.267 452.234 426.409 451.945 426.534L441.31 359.836C441.085 358.44 440.28 357.226 439.114 356.514L345.711 299.867C346.073 299.488 346.498 299.157 346.959 298.872L440.552 355.622C441.717 356.333 442.522 357.548 442.747 358.944L453.4 425.735Z" fill="#E0E0E0"/>
<path d="M401.325 369.64C400.666 365.514 396.61 360.033 392.267 357.399C387.922 354.766 384.934 355.976 385.593 360.102C386.253 364.228 390.309 369.709 394.653 372.342C398.997 374.976 401.984 373.766 401.325 369.64Z" fill="#04C45C"/>
<path d="M419.736 409.756C419.732 409.683 419.582 406.369 418.223 401.85C416.849 397.281 412.728 379.727 403.342 377.082C402.229 376.768 401.033 376.647 399.907 376.969C397.297 377.715 396.107 380.557 395.596 383.103C394.847 386.84 395.334 390.691 395.536 394.459C394.097 392.73 392.401 391.242 390.532 390.054C388.755 388.926 386.912 387.75 384.771 387.892C384.193 387.929 383.543 388.098 383.265 388.632C382.921 389.295 383.341 390.101 383.798 390.681C384.737 391.876 385.886 392.876 386.816 394.078C387.594 395.085 388.207 396.216 388.861 397.316C390.05 399.319 391.381 401.223 392.708 403.127C395.419 407.009 398.327 410.72 402.167 413.407C404.545 415.071 410.219 418.535 416.346 419.339C423.197 420.237 429.863 420.13 434.192 418.535L419.736 409.756Z" fill="#FFA8A7"/>
<path d="M586.708 294.681C580.372 291.267 571.127 304.829 574.07 319.011C577.014 333.192 591.507 383.042 591.507 383.042C591.507 383.042 526.028 389.198 520.468 389.911C516.591 390.408 512.248 388.338 508.656 387.088C503.755 385.381 498.825 384.192 494 382.32C493.135 381.985 492.233 381.642 491.315 381.735C490.397 381.828 489.462 382.494 489.35 383.455C489.283 384.03 489.511 384.594 489.754 385.113C491.292 388.409 493.64 391.284 496.507 393.382C497.841 394.357 499.317 395.178 500.482 396.389C501.252 397.192 502.923 399.401 502.314 400.616L476.291 416.344C476.291 416.344 482.29 421.819 503.976 415.436C518.955 411.027 526.771 406.927 526.771 406.927C526.771 406.927 603.934 410.297 617.867 405.855C622.793 404.284 624.575 400.62 621.246 383.935C617.379 364.555 606.45 329.312 603.962 320.068C598.52 299.867 597.186 300.325 586.708 294.681Z" fill="#FFA8A7"/>
<path d="M583.446 291.807C583.446 291.807 593.892 294.887 598.393 301.07C602.734 307.031 620.332 367.451 620.332 367.451C620.332 367.451 606.831 380.565 587.272 376.779C587.272 376.779 573.3 335.176 571.817 324.071C569.111 306.847 577.118 293.296 583.446 291.807Z" fill="#04C45C"/>
<path d="M527.017 332.144C526.177 327.494 528.945 324.989 533.2 326.55C537.454 328.111 541.586 333.146 542.426 337.798C543.266 342.447 527.857 336.795 527.017 332.144Z" fill="#04C45C"/>
<path d="M556.243 346.639L543.67 338.253C544.317 341.831 539.726 341.331 535.597 339.818C531.47 338.303 526.418 335.265 525.773 331.688L514.817 331.541C513.814 331.528 513.791 332.911 514.766 334.056C517.477 337.238 523.774 342.864 537.027 347.726C550.298 352.594 555.38 351.085 557.286 349.564C557.965 349.021 557.396 347.407 556.243 346.639Z" fill="#04C45C"/>
<defs>
<linearGradient id="paint0_linear_81_406" x1="-9.15778e-06" y1="23.6801" x2="1622.28" y2="1430.21" gradientUnits="userSpaceOnUse">
<stop stop-color="#82FF55"/>
<stop offset="1" stop-color="#C3FFDE"/>
</linearGradient>
<linearGradient id="paint1_linear_81_406" x1="4.35175e-06" y1="424.46" x2="1868.97" y2="1304.25" gradientUnits="userSpaceOnUse">
<stop stop-color="#013B1C"/>
<stop offset="1" stop-color="#03A14C"/>
</linearGradient>
</defs>
</svg>
