<svg width="120" height="95" viewBox="0 0 120 95" fill="none" xmlns="http://www.w3.org/2000/svg">
<path d="M54.5128 58.8374C54.5128 58.8374 37.0557 45.4653 18.1921 49.6659L20.0739 42.0768C20.0739 42.0768 21.8712 42.0768 23.6334 42.6771L22.8625 46.8132C22.8625 46.8132 39.9651 44.6797 54.5128 58.8374Z" fill="#063137"/>
<path d="M54.5129 58.8374C54.5129 58.8374 38.9084 40.0357 15.2039 40.0357L28.492 1.36805C28.492 1.36805 29.5719 1.53735 32.6634 2.68696L21.3772 35.4586C21.3772 35.4586 45.0641 42.0224 54.5129 58.8374Z" fill="#063137"/>
<path d="M54.5128 58.8374C46.7801 36.8349 25.2979 32.1767 25.2979 32.1767L36.3528 0C38.0785 0.511465 39.6568 1.14192 41.0972 1.85406C43.6181 3.10076 45.7172 4.59667 47.4472 6.13994L45.6006 10.9758C45.6006 10.9758 43.6151 6.98883 38.8076 6.62004L30.9285 28.8575C30.9285 28.8575 48.26 32.5775 54.5128 58.8374Z" fill="#04C45C"/>
<path d="M65.9302 58.8374C65.9302 58.8374 83.3873 45.4653 102.251 49.6659L100.369 42.0768C100.369 42.0768 98.5717 42.0768 96.8096 42.6771L97.5805 46.8132C97.5805 46.8132 80.4779 44.6797 65.9302 58.8374Z" fill="#063137"/>
<path d="M65.9302 58.8374C65.9302 58.8374 81.5347 40.0357 105.239 40.0357L91.951 1.36805C91.951 1.36805 90.8712 1.53735 87.7796 2.68696L99.0659 35.4586C99.0659 35.4586 75.3783 42.0224 65.9302 58.8374Z" fill="#063137"/>
<path d="M65.9302 58.8374C73.6623 36.835 95.1452 32.1767 95.1452 32.1767L84.0902 0.000631332C82.3645 0.512096 80.7862 1.14254 79.3458 1.85469C76.8249 3.10138 74.7258 4.5973 72.9958 6.14057L74.8424 10.9764C74.8424 10.9764 76.8279 6.98946 81.6354 6.62066L89.5145 28.8581C89.5145 28.8581 72.183 32.5775 65.9302 58.8374Z" fill="#04C45C"/>
<path d="M58.1095 40.3945C48.6929 38.9986 41.2297 31.7203 39.7983 22.537C49.2149 23.9329 56.6776 31.2112 58.1095 40.3945Z" fill="url(#paint0_linear_76_1807)"/>
<path d="M57.704 31.4657C50.3464 27.4729 46.4694 19.1965 48.1927 11.1587C55.5497 15.1515 59.4267 23.4279 57.704 31.4657Z" fill="url(#paint1_linear_76_1807)"/>
<path d="M62.7393 31.4657C70.0969 27.4729 73.9739 19.1965 72.2506 11.1587C64.8936 15.1515 61.0166 23.4279 62.7393 31.4657Z" fill="url(#paint2_linear_76_1807)"/>
<path d="M60.0666 0C55.2687 6.74849 55.5328 15.8436 60.7143 22.3162C65.5121 15.5683 65.2481 6.47322 60.0666 0Z" fill="url(#paint3_linear_76_1807)"/>
<path d="M62.3337 40.3945C63.7651 31.2112 71.2283 23.9329 80.6449 22.537C79.2136 31.7203 71.7503 38.9986 62.3337 40.3945Z" fill="url(#paint4_linear_76_1807)"/>
<path d="M7.56899 93.7676C7.23543 93.7676 6.91469 93.7144 6.60678 93.608C6.30315 93.4973 6.06795 93.3568 5.90116 93.1865L6.08719 92.8226C6.24542 92.9758 6.45711 93.1056 6.72225 93.2121C6.99167 93.3142 7.27392 93.3653 7.56899 93.3653C7.85124 93.3653 8.08003 93.3313 8.25537 93.2632C8.43498 93.1908 8.56542 93.095 8.64667 92.9758C8.7322 92.8566 8.77496 92.7247 8.77496 92.5799C8.77496 92.4054 8.72365 92.2649 8.62101 92.1585C8.52265 92.052 8.39222 91.969 8.22971 91.9094C8.06721 91.8456 7.88759 91.7902 7.69087 91.7434C7.49416 91.6966 7.29744 91.6476 7.10072 91.5966C6.904 91.5412 6.72225 91.4688 6.55547 91.3794C6.39296 91.2901 6.26039 91.173 6.15775 91.0282C6.05939 90.8793 6.01021 90.6856 6.01021 90.4472C6.01021 90.2258 6.06795 90.0236 6.18341 89.8406C6.30315 89.6532 6.4849 89.5043 6.72866 89.3936C6.97242 89.2786 7.28461 89.2212 7.66522 89.2212C7.91753 89.2212 8.1677 89.2574 8.41574 89.3297C8.66378 89.3978 8.8776 89.4936 9.05721 89.6171L8.89684 89.9938C8.7044 89.8661 8.49913 89.7724 8.28103 89.7128C8.0672 89.6532 7.8598 89.6235 7.6588 89.6235C7.38938 89.6235 7.167 89.6596 6.99167 89.732C6.81633 89.8044 6.6859 89.9023 6.60037 90.0257C6.51912 90.1449 6.47849 90.2812 6.47849 90.4344C6.47849 90.6089 6.52767 90.7494 6.62603 90.8558C6.72866 90.9623 6.86124 91.0453 7.02374 91.1049C7.19052 91.1645 7.37228 91.2177 7.56899 91.2645C7.76571 91.3113 7.96029 91.3624 8.15273 91.4178C8.34945 91.4731 8.52907 91.5455 8.69157 91.6349C8.85835 91.72 8.99093 91.8349 9.08929 91.9797C9.19192 92.1244 9.24324 92.3139 9.24324 92.548C9.24324 92.7651 9.18337 92.9673 9.06363 93.1546C8.94388 93.3377 8.76 93.4866 8.51196 93.6016C8.2682 93.7123 7.95388 93.7676 7.56899 93.7676Z" fill="#063137"/>
<path d="M11.2461 93.7612C10.9297 93.7612 10.6859 93.6761 10.5149 93.5058C10.3438 93.3355 10.2583 93.095 10.2583 92.7842V89.6362H10.7137V92.7587C10.7137 92.9545 10.7629 93.1056 10.8613 93.2121C10.9639 93.3185 11.1093 93.3717 11.2975 93.3717C11.4985 93.3717 11.6652 93.3142 11.7978 93.1993L11.9582 93.525C11.8684 93.6058 11.7593 93.6654 11.631 93.7038C11.507 93.7421 11.3787 93.7612 11.2461 93.7612ZM9.65528 90.7537V90.3769H11.7401V90.7537H9.65528Z" fill="#063137"/>
<path d="M14.8977 93.7293V92.9886L14.8785 92.8673V91.6285C14.8785 91.3433 14.7972 91.124 14.6347 90.9708C14.4765 90.8175 14.2391 90.7409 13.9227 90.7409C13.7046 90.7409 13.4972 90.7771 13.3005 90.8495C13.1037 90.9218 12.937 91.0176 12.8001 91.1368L12.5948 90.7984C12.7659 90.6536 12.9712 90.543 13.2106 90.4663C13.4501 90.3854 13.7024 90.345 13.9676 90.345C14.4038 90.345 14.7395 90.4536 14.9747 90.6707C15.2142 90.8835 15.3339 91.2092 15.3339 91.6476V93.7293H14.8977ZM13.7367 93.7612C13.4843 93.7612 13.2641 93.7208 13.0759 93.6399C12.8921 93.5548 12.7509 93.4398 12.6526 93.2951C12.5542 93.1461 12.505 92.9758 12.505 92.7842C12.505 92.6097 12.5457 92.4522 12.6269 92.3117C12.7124 92.167 12.8493 92.052 13.0375 91.9669C13.2299 91.8775 13.4865 91.8328 13.8072 91.8328H14.9683V92.1712H13.82C13.495 92.1712 13.2684 92.2287 13.1401 92.3437C13.0161 92.4586 12.9541 92.6012 12.9541 92.7715C12.9541 92.963 13.0289 93.1163 13.1786 93.2312C13.3283 93.3462 13.5378 93.4036 13.8072 93.4036C14.0638 93.4036 14.284 93.3462 14.4679 93.2312C14.6561 93.112 14.793 92.9418 14.8785 92.7204L14.9811 93.0333C14.8956 93.2546 14.7459 93.4313 14.5321 93.5633C14.3225 93.6952 14.0574 93.7612 13.7367 93.7612Z" fill="#063137"/>
<path d="M16.571 93.7293V90.3769H17.0072V91.2901L16.9623 91.1304C17.0563 90.875 17.2146 90.6813 17.437 90.5493C17.6593 90.4131 17.9352 90.345 18.2645 90.345V90.7856C18.2474 90.7856 18.2302 90.7856 18.2131 90.7856C18.196 90.7813 18.1789 90.7792 18.1618 90.7792C17.8069 90.7792 17.5289 90.8878 17.3279 91.1049C17.1269 91.3177 17.0264 91.6221 17.0264 92.018V93.7293H16.571Z" fill="#063137"/>
<path d="M20.3044 93.7612C19.988 93.7612 19.7442 93.6761 19.5732 93.5058C19.4021 93.3355 19.3166 93.095 19.3166 92.7842V89.6362H19.772V92.7587C19.772 92.9545 19.8212 93.1056 19.9196 93.2121C20.0222 93.3185 20.1676 93.3717 20.3558 93.3717C20.5568 93.3717 20.7235 93.3142 20.8561 93.1993L21.0165 93.525C20.9267 93.6058 20.8176 93.6654 20.6893 93.7038C20.5653 93.7421 20.437 93.7612 20.3044 93.7612ZM18.7136 90.7537V90.3769H20.7984V90.7537H18.7136Z" fill="#063137"/>
<path d="M24.6919 93.7293V92.0691L24.801 92.3628L22.8958 89.2595H23.4026L25.0768 91.9861H24.8074L26.4816 89.2595H26.9563L25.0511 92.3628L25.1602 92.0691V93.7293H24.6919Z" fill="#063137"/>
<path d="M28.5869 93.7612C28.2619 93.7612 27.969 93.6889 27.7081 93.5441C27.4515 93.3951 27.2484 93.1929 27.0987 92.9375C26.949 92.6778 26.8742 92.382 26.8742 92.0499C26.8742 91.7136 26.949 91.4178 27.0987 91.1623C27.2484 90.9069 27.4515 90.7068 27.7081 90.5621C27.9647 90.4174 28.2576 90.345 28.5869 90.345C28.9205 90.345 29.2156 90.4174 29.4721 90.5621C29.733 90.7068 29.9361 90.9069 30.0815 91.1623C30.2312 91.4178 30.3061 91.7136 30.3061 92.0499C30.3061 92.382 30.2312 92.6778 30.0815 92.9375C29.9361 93.1929 29.733 93.3951 29.4721 93.5441C29.2113 93.6889 28.9162 93.7612 28.5869 93.7612ZM28.5869 93.3589C28.8307 93.3589 29.0466 93.3057 29.2348 93.1993C29.423 93.0886 29.5705 92.9354 29.6774 92.7395C29.7886 92.5395 29.8442 92.3096 29.8442 92.0499C29.8442 91.786 29.7886 91.5561 29.6774 91.3603C29.5705 91.1645 29.423 91.0134 29.2348 90.9069C29.0466 90.7962 28.8328 90.7409 28.5933 90.7409C28.3538 90.7409 28.14 90.7962 27.9519 90.9069C27.7637 91.0134 27.614 91.1645 27.5028 91.3603C27.3916 91.5561 27.336 91.786 27.336 92.0499C27.336 92.3096 27.3916 92.5395 27.5028 92.7395C27.614 92.9354 27.7637 93.0886 27.9519 93.1993C28.14 93.3057 28.3517 93.3589 28.5869 93.3589Z" fill="#063137"/>
<path d="M32.6279 93.7612C32.3414 93.7612 32.0912 93.708 31.8774 93.6016C31.6635 93.4952 31.4968 93.3355 31.377 93.1227C31.2616 92.9098 31.2038 92.6438 31.2038 92.3245V90.3769H31.6593V92.2734C31.6593 92.631 31.7469 92.9013 31.9223 93.0844C32.1019 93.2632 32.3521 93.3526 32.6728 93.3526C32.908 93.3526 33.1111 93.3057 33.2822 93.2121C33.4575 93.1142 33.5901 92.9737 33.6799 92.7906C33.774 92.6076 33.821 92.3884 33.821 92.1329V90.3769H34.2765V93.7293H33.8403V92.8098L33.9108 92.9758C33.8039 93.2227 33.6371 93.4164 33.4105 93.5569C33.1881 93.6931 32.9272 93.7612 32.6279 93.7612Z" fill="#063137"/>
<path d="M35.5458 93.7293V90.3769H35.982V91.2901L35.9371 91.1304C36.0312 90.875 36.1894 90.6813 36.4118 90.5493C36.6342 90.4131 36.91 90.345 37.2393 90.345V90.7856C37.2222 90.7856 37.2051 90.7856 37.188 90.7856C37.1709 90.7813 37.1538 90.7792 37.1366 90.7792C36.7817 90.7792 36.5037 90.8878 36.3027 91.1049C36.1017 91.3177 36.0012 91.6221 36.0012 92.018V93.7293H35.5458Z" fill="#063137"/>
<path d="M40.3189 91.2581H42.6924V91.6604H40.3189V91.2581ZM40.3702 93.3206H43.0708V93.7293H39.8955V89.2595H42.9746V89.6681H40.3702V93.3206Z" fill="#063137"/>
<path d="M45.8096 90.345C46.0833 90.345 46.3227 90.3982 46.528 90.5046C46.7376 90.6068 46.9001 90.7643 47.0155 90.9772C47.1353 91.19 47.1951 91.4582 47.1951 91.7817V93.7293H46.7397V91.8264C46.7397 91.4731 46.6499 91.207 46.4703 91.0282C46.2949 90.8452 46.0469 90.7537 45.7262 90.7537C45.4867 90.7537 45.2771 90.8026 45.0975 90.9005C44.9222 90.9942 44.7853 91.1325 44.687 91.3156C44.5929 91.4944 44.5459 91.7115 44.5459 91.9669V93.7293H44.0904V90.3769H44.5266V91.2964L44.4561 91.124C44.563 90.8814 44.734 90.6919 44.9692 90.5557C45.2044 90.4152 45.4845 90.345 45.8096 90.345Z" fill="#063137"/>
<path d="M49.8623 95C49.5544 95 49.2593 94.9553 48.977 94.8659C48.6948 94.7765 48.466 94.6488 48.2907 94.4828L48.5216 94.138C48.6798 94.2784 48.8744 94.3891 49.1053 94.47C49.3405 94.5551 49.5886 94.5977 49.8494 94.5977C50.2771 94.5977 50.5914 94.4977 50.7924 94.2976C50.9934 94.1018 51.0939 93.7953 51.0939 93.3781V92.5416L51.158 91.9669L51.1131 91.3922V90.3769H51.5493V93.3206C51.5493 93.8996 51.4061 94.3231 51.1196 94.5913C50.8373 94.8638 50.4182 95 49.8623 95ZM49.7789 93.6016C49.4581 93.6016 49.1695 93.5335 48.9129 93.3973C48.6563 93.2568 48.4532 93.0631 48.3035 92.8162C48.1581 92.5693 48.0854 92.2862 48.0854 91.9669C48.0854 91.6476 48.1581 91.3667 48.3035 91.124C48.4532 90.8771 48.6563 90.6856 48.9129 90.5493C49.1695 90.4131 49.4581 90.345 49.7789 90.345C50.0782 90.345 50.3476 90.4067 50.5871 90.5302C50.8266 90.6536 51.0169 90.8367 51.158 91.0793C51.2992 91.322 51.3697 91.6178 51.3697 91.9669C51.3697 92.316 51.2992 92.6118 51.158 92.8545C51.0169 93.0971 50.8266 93.2823 50.5871 93.41C50.3476 93.5377 50.0782 93.6016 49.7789 93.6016ZM49.8238 93.1993C50.0718 93.1993 50.2921 93.1482 50.4845 93.0461C50.6769 92.9396 50.8288 92.7949 50.9399 92.6118C51.0511 92.4245 51.1067 92.2096 51.1067 91.9669C51.1067 91.7243 51.0511 91.5114 50.9399 91.3284C50.8288 91.1453 50.6769 91.0027 50.4845 90.9005C50.2921 90.7941 50.0718 90.7409 49.8238 90.7409C49.58 90.7409 49.3598 90.7941 49.1631 90.9005C48.9706 91.0027 48.8188 91.1453 48.7076 91.3284C48.6007 91.5114 48.5472 91.7243 48.5472 91.9669C48.5472 92.2096 48.6007 92.4245 48.7076 92.6118C48.8188 92.7949 48.9706 92.9396 49.1631 93.0461C49.3598 93.1482 49.58 93.1993 49.8238 93.1993Z" fill="#063137"/>
<path d="M52.8167 93.7293V88.9913H53.2721V93.7293H52.8167Z" fill="#063137"/>
<path d="M54.5394 93.7293V90.3769H54.9949V93.7293H54.5394ZM54.7703 89.6362C54.6763 89.6362 54.5971 89.6043 54.533 89.5404C54.4688 89.4766 54.4368 89.4 54.4368 89.3106C54.4368 89.2212 54.4688 89.1467 54.533 89.0871C54.5971 89.0232 54.6763 88.9913 54.7703 88.9913C54.8644 88.9913 54.9435 89.0211 55.0077 89.0807C55.0718 89.1403 55.1039 89.2148 55.1039 89.3042C55.1039 89.3978 55.0718 89.4766 55.0077 89.5404C54.9478 89.6043 54.8687 89.6362 54.7703 89.6362Z" fill="#063137"/>
<path d="M57.1666 93.7612C56.8886 93.7612 56.6256 93.7229 56.3776 93.6463C56.1295 93.5654 55.935 93.4654 55.7938 93.3462L55.9991 92.9886C56.136 93.0907 56.3113 93.1801 56.5251 93.2568C56.7389 93.3291 56.9635 93.3653 57.1987 93.3653C57.5194 93.3653 57.7503 93.3164 57.8915 93.2185C58.0326 93.1163 58.1031 92.9822 58.1031 92.8162C58.1031 92.6927 58.0625 92.5969 57.9813 92.5288C57.9043 92.4565 57.8016 92.4032 57.6734 92.3692C57.5451 92.3309 57.4018 92.299 57.2436 92.2734C57.0853 92.2479 56.9271 92.2181 56.7689 92.184C56.6149 92.15 56.4738 92.101 56.3455 92.0372C56.2172 91.969 56.1124 91.8775 56.0312 91.7626C55.9542 91.6476 55.9157 91.4944 55.9157 91.3028C55.9157 91.1198 55.967 90.9559 56.0697 90.8111C56.1723 90.6664 56.322 90.5536 56.5187 90.4727C56.7197 90.3876 56.9635 90.345 57.25 90.345C57.4681 90.345 57.6862 90.3748 57.9043 90.4344C58.1224 90.4897 58.302 90.5642 58.4431 90.6579L58.2443 91.0219C58.0946 90.9197 57.9342 90.8473 57.7632 90.8048C57.5921 90.7579 57.421 90.7345 57.25 90.7345C56.9464 90.7345 56.7218 90.7877 56.5764 90.8942C56.4353 90.9963 56.3647 91.1283 56.3647 91.2901C56.3647 91.4178 56.4032 91.5178 56.4802 91.5902C56.5615 91.6625 56.6662 91.72 56.7945 91.7626C56.9271 91.8009 57.0704 91.8328 57.2243 91.8584C57.3826 91.8839 57.5386 91.9158 57.6926 91.9541C57.8508 91.9882 57.9941 92.0372 58.1224 92.101C58.255 92.1606 58.3597 92.2479 58.4367 92.3628C58.518 92.4735 58.5586 92.6204 58.5586 92.8034C58.5586 92.9992 58.503 93.1695 58.3918 93.3142C58.2849 93.4547 58.1267 93.5654 57.9171 93.6463C57.7118 93.7229 57.4617 93.7612 57.1666 93.7612Z" fill="#063137"/>
<path d="M61.1135 90.345C61.3871 90.345 61.6266 90.3982 61.8319 90.5046C62.0415 90.6068 62.204 90.7643 62.3194 90.9772C62.4392 91.19 62.499 91.4582 62.499 91.7817V93.7293H62.0436V91.8264C62.0436 91.4731 61.9538 91.207 61.7742 91.0282C61.5988 90.8452 61.3508 90.7537 61.0301 90.7537C60.7906 90.7537 60.581 90.8026 60.4014 90.9005C60.2261 90.9942 60.0892 91.1325 59.9909 91.3156C59.8968 91.4944 59.8498 91.7115 59.8498 91.9669V93.7293H59.3943V88.9913H59.8498V91.2964L59.7599 91.124C59.8669 90.8814 60.0379 90.6919 60.2731 90.5557C60.5083 90.4152 60.7884 90.345 61.1135 90.345Z" fill="#063137"/>
<path d="M65.9854 93.7676C65.7331 93.7676 65.4958 93.7123 65.2734 93.6016C65.0553 93.4909 64.88 93.3334 64.7474 93.1291L65.0232 92.8098C65.1472 92.9886 65.2905 93.1248 65.453 93.2185C65.6155 93.3121 65.7951 93.3589 65.9919 93.3589C66.5478 93.3589 66.8258 93.0312 66.8258 92.3756V89.6681H65.1836V89.2595H67.2941V92.3564C67.2941 92.8289 67.1829 93.1823 66.9605 93.4164C66.7424 93.6505 66.4174 93.7676 65.9854 93.7676Z" fill="#063137"/>
<path d="M69.9945 93.7612C69.6695 93.7612 69.3765 93.6889 69.1157 93.5441C68.8591 93.3951 68.656 93.1929 68.5063 92.9375C68.3566 92.6778 68.2818 92.382 68.2818 92.0499C68.2818 91.7136 68.3566 91.4178 68.5063 91.1623C68.656 90.9069 68.8591 90.7068 69.1157 90.5621C69.3723 90.4174 69.6652 90.345 69.9945 90.345C70.3281 90.345 70.6231 90.4174 70.8797 90.5621C71.1406 90.7068 71.3437 90.9069 71.4891 91.1623C71.6388 91.4178 71.7136 91.7136 71.7136 92.0499C71.7136 92.382 71.6388 92.6778 71.4891 92.9375C71.3437 93.1929 71.1406 93.3951 70.8797 93.5441C70.6189 93.6889 70.3238 93.7612 69.9945 93.7612ZM69.9945 93.3589C70.2383 93.3589 70.4542 93.3057 70.6424 93.1993C70.8306 93.0886 70.9781 92.9354 71.085 92.7395C71.1962 92.5395 71.2518 92.3096 71.2518 92.0499C71.2518 91.786 71.1962 91.5561 71.085 91.3603C70.9781 91.1645 70.8306 91.0134 70.6424 90.9069C70.4542 90.7962 70.2404 90.7409 70.0009 90.7409C69.7614 90.7409 69.5476 90.7962 69.3594 90.9069C69.1713 91.0134 69.0216 91.1645 68.9104 91.3603C68.7992 91.5561 68.7436 91.786 68.7436 92.0499C68.7436 92.3096 68.7992 92.5395 68.9104 92.7395C69.0216 92.9354 69.1713 93.0886 69.3594 93.1993C69.5476 93.3057 69.7593 93.3589 69.9945 93.3589Z" fill="#063137"/>
<path d="M74.0355 93.7612C73.749 93.7612 73.4988 93.708 73.285 93.6016C73.0711 93.4952 72.9043 93.3355 72.7846 93.1227C72.6691 92.9098 72.6114 92.6438 72.6114 92.3245V90.3769H73.0669V92.2734C73.0669 92.631 73.1545 92.9013 73.3299 93.0844C73.5095 93.2632 73.7596 93.3526 74.0804 93.3526C74.3156 93.3526 74.5187 93.3057 74.6898 93.2121C74.8651 93.1142 74.9977 92.9737 75.0875 92.7906C75.1816 92.6076 75.2286 92.3884 75.2286 92.1329V90.3769H75.6841V93.7293H75.2479V92.8098L75.3184 92.9758C75.2115 93.2227 75.0447 93.4164 74.8181 93.5569C74.5957 93.6931 74.3348 93.7612 74.0355 93.7612Z" fill="#063137"/>
<path d="M76.9534 93.7293V90.3769H77.3896V91.2901L77.3447 91.1304C77.4388 90.875 77.597 90.6813 77.8194 90.5493C78.0417 90.4131 78.3176 90.345 78.6469 90.345V90.7856C78.6298 90.7856 78.6127 90.7856 78.5955 90.7856C78.5784 90.7813 78.5613 90.7792 78.5442 90.7792C78.1893 90.7792 77.9113 90.8878 77.7103 91.1049C77.5093 91.3177 77.4088 91.6221 77.4088 92.018V93.7293H76.9534Z" fill="#063137"/>
<path d="M81.1971 90.345C81.4708 90.345 81.7103 90.3982 81.9155 90.5046C82.1251 90.6068 82.2876 90.7643 82.403 90.9772C82.5228 91.19 82.5827 91.4582 82.5827 91.7817V93.7293H82.1272V91.8264C82.1272 91.4731 82.0374 91.207 81.8578 91.0282C81.6825 90.8452 81.4344 90.7537 81.1137 90.7537C80.8742 90.7537 80.6646 90.8026 80.485 90.9005C80.3097 90.9942 80.1729 91.1325 80.0745 91.3156C79.9804 91.4944 79.9334 91.7115 79.9334 91.9669V93.7293H79.4779V90.3769H79.9141V91.2964L79.8436 91.124C79.9505 90.8814 80.1215 90.6919 80.3567 90.5557C80.5919 90.4152 80.8721 90.345 81.1971 90.345Z" fill="#063137"/>
<path d="M85.2434 93.7612C84.8927 93.7612 84.5848 93.6889 84.3196 93.5441C84.0545 93.3951 83.8471 93.1929 83.6974 92.9375C83.5477 92.6778 83.4729 92.382 83.4729 92.0499C83.4729 91.7179 83.5435 91.4241 83.6846 91.1687C83.83 90.9133 84.0267 90.7132 84.2747 90.5685C84.5271 90.4195 84.8093 90.345 85.1215 90.345C85.4379 90.345 85.7181 90.4174 85.9618 90.5621C86.2099 90.7026 86.4044 90.9027 86.5456 91.1623C86.6867 91.4178 86.7572 91.7136 86.7572 92.0499C86.7572 92.0712 86.7551 92.0946 86.7508 92.1202C86.7508 92.1414 86.7508 92.1649 86.7508 92.1904H83.8193V91.852H86.5071L86.3275 91.9861C86.3275 91.7434 86.274 91.5284 86.1671 91.3411C86.0644 91.1496 85.9233 91.0006 85.7437 90.8942C85.5641 90.7877 85.3567 90.7345 85.1215 90.7345C84.8906 90.7345 84.6831 90.7877 84.4993 90.8942C84.3154 91.0006 84.1721 91.1496 84.0695 91.3411C83.9668 91.5327 83.9155 91.7519 83.9155 91.9988V92.0691C83.9155 92.3245 83.9711 92.5501 84.0823 92.7459C84.1978 92.9375 84.356 93.0886 84.557 93.1993C84.7623 93.3057 84.9953 93.3589 85.2562 93.3589C85.4615 93.3589 85.6518 93.3228 85.8271 93.2504C86.0067 93.178 86.1607 93.0673 86.289 92.9183L86.5456 93.2121C86.3959 93.3909 86.2077 93.5271 85.9811 93.6207C85.7587 93.7144 85.5128 93.7612 85.2434 93.7612Z" fill="#063137"/>
<path d="M87.6473 95C87.4891 95 87.3372 94.9745 87.1918 94.9234C87.0507 94.8723 86.9288 94.7957 86.8262 94.6935L87.0379 94.3551C87.1234 94.436 87.2154 94.4977 87.3137 94.5402C87.4164 94.5871 87.5297 94.6105 87.6537 94.6105C87.8034 94.6105 87.9317 94.5679 88.0386 94.4828C88.1498 94.4019 88.2545 94.2572 88.3529 94.0486L88.571 93.5569L88.6223 93.4866L90.0079 90.3769H90.4569L88.7699 94.1316C88.6758 94.3487 88.571 94.5211 88.4555 94.6488C88.3444 94.7765 88.2225 94.8659 88.0899 94.917C87.9573 94.9723 87.8098 95 87.6473 95ZM88.5453 93.8251L86.993 90.3769H87.4677L88.8404 93.4547L88.5453 93.8251Z" fill="#063137"/>
<path d="M90.6033 94.6616L90.8855 93.4803L90.9368 93.7548C90.8385 93.7548 90.7551 93.7229 90.6867 93.6591C90.6225 93.5952 90.5904 93.5122 90.5904 93.41C90.5904 93.3079 90.6225 93.2248 90.6867 93.161C90.7551 93.0971 90.8363 93.0652 90.9304 93.0652C91.0288 93.0652 91.1079 93.0993 91.1678 93.1674C91.2319 93.2355 91.264 93.3164 91.264 93.41C91.264 93.4441 91.2619 93.4781 91.2576 93.5122C91.2533 93.5462 91.2447 93.5846 91.2319 93.6271C91.2191 93.6697 91.202 93.7208 91.1806 93.7804L90.9112 94.6616H90.6033Z" fill="#063137"/>
<path d="M95.2516 93.7676C94.918 93.7676 94.5973 93.7144 94.2894 93.608C93.9858 93.4973 93.7506 93.3568 93.5838 93.1865L93.7698 92.8226C93.928 92.9758 94.1397 93.1056 94.4049 93.2121C94.6743 93.3142 94.9565 93.3653 95.2516 93.3653C95.5338 93.3653 95.7626 93.3313 95.938 93.2632C96.1176 93.1908 96.248 93.095 96.3293 92.9758C96.4148 92.8566 96.4576 92.7247 96.4576 92.5799C96.4576 92.4054 96.4063 92.2649 96.3036 92.1585C96.2053 92.052 96.0748 91.969 95.9123 91.9094C95.7498 91.8456 95.5702 91.7902 95.3735 91.7434C95.1768 91.6966 94.98 91.6476 94.7833 91.5966C94.5866 91.5412 94.4049 91.4688 94.2381 91.3794C94.0756 91.2901 93.943 91.173 93.8404 91.0282C93.742 90.8793 93.6928 90.6856 93.6928 90.4472C93.6928 90.2258 93.7505 90.0236 93.866 89.8406C93.9858 89.6532 94.1675 89.5043 94.4113 89.3936C94.655 89.2786 94.9672 89.2212 95.3478 89.2212C95.6001 89.2212 95.8503 89.2574 96.0983 89.3297C96.3464 89.3978 96.5602 89.4936 96.7398 89.6171L96.5794 89.9938C96.387 89.8661 96.1817 89.7724 95.9636 89.7128C95.7498 89.6532 95.5424 89.6235 95.3414 89.6235C95.072 89.6235 94.8496 89.6596 94.6743 89.732C94.4989 89.8044 94.3685 89.9023 94.283 90.0257C94.2017 90.1449 94.1611 90.2812 94.1611 90.4344C94.1611 90.6089 94.2103 90.7494 94.3086 90.8558C94.4113 90.9623 94.5438 91.0453 94.7063 91.1049C94.8731 91.1645 95.0549 91.2177 95.2516 91.2645C95.4483 91.3113 95.6429 91.3624 95.8353 91.4178C96.0321 91.4731 96.2117 91.5455 96.3742 91.6349C96.541 91.72 96.6735 91.8349 96.7719 91.9797C96.8745 92.1244 96.9258 92.3139 96.9258 92.548C96.9258 92.7651 96.866 92.9673 96.7462 93.1546C96.6265 93.3377 96.4426 93.4866 96.1946 93.6016C95.9508 93.7123 95.6365 93.7676 95.2516 93.7676Z" fill="#063137"/>
<path d="M97.8639 93.7293V90.3769H98.3193V93.7293H97.8639ZM98.0948 89.6362C98.0007 89.6362 97.9216 89.6043 97.8575 89.5404C97.7933 89.4766 97.7613 89.4 97.7613 89.3106C97.7613 89.2212 97.7933 89.1467 97.8575 89.0871C97.9216 89.0232 98.0007 88.9913 98.0948 88.9913C98.1889 88.9913 98.268 89.0211 98.3322 89.0807C98.3963 89.1403 98.4284 89.2148 98.4284 89.3042C98.4284 89.3978 98.3963 89.4766 98.3322 89.5404C98.2723 89.6043 98.1932 89.6362 98.0948 89.6362Z" fill="#063137"/>
<path d="M103.795 90.345C104.068 90.345 104.306 90.3982 104.507 90.5046C104.712 90.6068 104.87 90.7643 104.981 90.9772C105.097 91.19 105.155 91.4582 105.155 91.7817V93.7293H104.699V91.8264C104.699 91.4731 104.614 91.207 104.443 91.0282C104.276 90.8452 104.038 90.7537 103.731 90.7537C103.5 90.7537 103.299 90.8026 103.128 90.9005C102.961 90.9942 102.83 91.1325 102.736 91.3156C102.646 91.4944 102.602 91.7115 102.602 91.9669V93.7293H102.146V91.8264C102.146 91.4731 102.061 91.207 101.889 91.0282C101.718 90.8452 101.479 90.7537 101.171 90.7537C100.944 90.7537 100.746 90.8026 100.574 90.9005C100.403 90.9942 100.271 91.1325 100.177 91.3156C100.087 91.4944 100.042 91.7115 100.042 91.9669V93.7293H99.5866V90.3769H100.023V91.2837L99.9522 91.124C100.055 90.8814 100.22 90.6919 100.446 90.5557C100.677 90.4152 100.949 90.345 101.261 90.345C101.59 90.345 101.87 90.428 102.101 90.594C102.332 90.7558 102.482 91.0006 102.55 91.3284L102.371 91.2581C102.469 90.9857 102.642 90.7664 102.89 90.6004C103.143 90.4301 103.444 90.345 103.795 90.345Z" fill="#063137"/>
<path d="M108.128 93.7612C107.837 93.7612 107.574 93.6952 107.339 93.5633C107.104 93.4271 106.916 93.2334 106.775 92.9822C106.638 92.7268 106.569 92.416 106.569 92.0499C106.569 91.6838 106.638 91.3752 106.775 91.124C106.911 90.8686 107.097 90.6749 107.333 90.543C107.568 90.411 107.833 90.345 108.128 90.345C108.449 90.345 108.735 90.4174 108.988 90.5621C109.244 90.7026 109.445 90.9027 109.591 91.1623C109.736 91.4178 109.809 91.7136 109.809 92.0499C109.809 92.3905 109.736 92.6885 109.591 92.9439C109.445 93.1993 109.244 93.3994 108.988 93.5441C108.735 93.6889 108.449 93.7612 108.128 93.7612ZM106.39 94.9681V90.3769H106.826V91.3858L106.781 92.0563L106.845 92.7332V94.9681H106.39ZM108.096 93.3589C108.336 93.3589 108.549 93.3057 108.738 93.1993C108.926 93.0886 109.075 92.9354 109.187 92.7395C109.298 92.5395 109.353 92.3096 109.353 92.0499C109.353 91.7902 109.298 91.5625 109.187 91.3667C109.075 91.1709 108.926 91.0176 108.738 90.9069C108.549 90.7962 108.336 90.7409 108.096 90.7409C107.857 90.7409 107.641 90.7962 107.448 90.9069C107.26 91.0176 107.11 91.1709 106.999 91.3667C106.892 91.5625 106.839 91.7902 106.839 92.0499C106.839 92.3096 106.892 92.5395 106.999 92.7395C107.11 92.9354 107.26 93.0886 107.448 93.1993C107.641 93.3057 107.857 93.3589 108.096 93.3589Z" fill="#063137"/>
<path d="M110.737 93.7293V88.9913H111.193V93.7293H110.737Z" fill="#063137"/>
<path d="M112.486 95C112.327 95 112.176 94.9745 112.03 94.9234C111.889 94.8723 111.767 94.7957 111.664 94.6935L111.876 94.3551C111.962 94.436 112.054 94.4977 112.152 94.5402C112.255 94.5871 112.368 94.6105 112.492 94.6105C112.642 94.6105 112.77 94.5679 112.877 94.4828C112.988 94.4019 113.093 94.2572 113.191 94.0486L113.409 93.5569L113.461 93.4866L114.846 90.3769H115.295L113.608 94.1316C113.514 94.3487 113.409 94.5211 113.294 94.6488C113.183 94.7765 113.061 94.8659 112.928 94.917C112.796 94.9723 112.648 95 112.486 95ZM113.384 93.8251L111.831 90.3769H112.306L113.679 93.4547L113.384 93.8251Z" fill="#063137"/>
<path d="M6.28873 84.2515C5.07909 84.2515 3.91069 84.1146 2.78354 83.841C1.65638 83.5673 0.72853 83.2115 0 82.7737L1.56703 79.2434C2.25432 79.6403 3.01721 79.9618 3.85571 80.2081C4.70795 80.4407 5.53271 80.557 6.32997 80.557C6.79732 80.557 7.16159 80.5297 7.42276 80.4749C7.69768 80.4065 7.89699 80.3176 8.02071 80.2081C8.14442 80.085 8.20627 79.9413 8.20627 79.7771C8.20627 79.5171 8.06194 79.3119 7.77328 79.1613C7.48462 79.0108 7.09973 78.8877 6.61863 78.7919C6.15127 78.6824 5.6358 78.573 5.07222 78.4635C4.50864 78.3404 3.93819 78.183 3.36086 77.9914C2.79728 77.7999 2.27494 77.5467 1.79383 77.232C1.32647 76.9173 0.948464 76.5068 0.659801 76.0005C0.371138 75.4806 0.226807 74.8375 0.226807 74.0712C0.226807 73.1818 0.474232 72.3745 0.969083 71.6493C1.47768 70.9104 2.22683 70.3221 3.21653 69.8842C4.21998 69.4463 5.46398 69.2274 6.94853 69.2274C7.92448 69.2274 8.88669 69.33 9.83516 69.5353C10.7836 69.7405 11.6359 70.0552 12.3919 70.4794L10.928 73.9891C10.2132 73.6334 9.519 73.3665 8.84546 73.1887C8.18566 73.0108 7.5396 72.9218 6.90729 72.9218C6.43993 72.9218 6.06879 72.9629 5.79388 73.045C5.51896 73.1271 5.31965 73.2366 5.19593 73.3734C5.08597 73.5102 5.03098 73.6607 5.03098 73.8249C5.03098 74.0712 5.17531 74.2696 5.46398 74.4201C5.75264 74.557 6.13065 74.6733 6.59801 74.7691C7.07911 74.8649 7.60146 74.9675 8.16504 75.0769C8.74236 75.1864 9.31282 75.3369 9.87639 75.5285C10.44 75.72 10.9554 75.9732 11.4228 76.2879C11.9039 76.6026 12.2888 77.0131 12.5775 77.5194C12.8661 78.0256 13.0104 78.6551 13.0104 79.4076C13.0104 80.2834 12.7562 81.0907 12.2476 81.8296C11.7527 82.5548 11.0104 83.1431 10.0207 83.5947C9.03103 84.0325 7.78703 84.2515 6.28873 84.2515Z" fill="#063137"/>
<path d="M17.3911 83.9231V73.3118H13.1643V69.5558H26.484V73.3118H22.2572V83.9231H17.3911Z" fill="#063137"/>
<path d="M25.456 83.9231L31.7653 69.5558H36.5489L42.8582 83.9231H37.8272L33.1674 71.8546H35.0643L30.4045 83.9231H25.456ZM29.2086 81.4191L30.4457 77.9299H37.085L38.3221 81.4191H29.2086Z" fill="#063137"/>
<path d="M43.6348 83.9231V69.5558H50.5833C51.9304 69.5558 53.092 69.7747 54.0679 70.2126C55.0576 70.6505 55.8205 71.2799 56.3566 72.1009C56.8927 72.9082 57.1607 73.866 57.1607 74.9743C57.1607 76.0826 56.8927 77.0405 56.3566 77.8478C55.8205 78.6414 55.0576 79.2503 54.0679 79.6745C53.092 80.0986 51.9304 80.3107 50.5833 80.3107H46.3359L48.5008 78.3198V83.9231H43.6348ZM52.2741 83.9231L48.7276 78.6893H53.8823L57.47 83.9231H52.2741ZM48.5008 78.8535L46.3359 76.6573H50.2741C50.9476 76.6573 51.4425 76.5068 51.7586 76.2058C52.0885 75.9048 52.2535 75.4943 52.2535 74.9743C52.2535 74.4544 52.0885 74.0439 51.7586 73.7428C51.4425 73.4418 50.9476 73.2913 50.2741 73.2913H46.3359L48.5008 71.0952V78.8535Z" fill="#063137"/>
<path d="M61.9309 83.9231V73.3118H57.7041V69.5558H71.0238V73.3118H66.7969V83.9231H61.9309Z" fill="#063137"/>
<path d="M72.2877 83.9231V69.5558H77.1537V80.1671H83.6692V83.9231H72.2877Z" fill="#04C45C"/>
<path d="M85.0133 83.9231V69.5558H89.8793V83.9231H85.0133Z" fill="#04C45C"/>
<path d="M97.6033 84.2515C96.3937 84.2515 95.2253 84.1146 94.0981 83.841C92.971 83.5673 92.0431 83.2115 91.3146 82.7737L92.8816 79.2434C93.5689 79.6403 94.3318 79.9618 95.1703 80.2081C96.0226 80.4407 96.8473 80.557 97.6446 80.557C98.1119 80.557 98.4762 80.5297 98.7374 80.4749C99.0123 80.4065 99.2116 80.3176 99.3353 80.2081C99.459 80.085 99.5209 79.9413 99.5209 79.7771C99.5209 79.5171 99.3765 79.3119 99.0879 79.1613C98.7992 79.0108 98.4143 78.8877 97.9332 78.7919C97.4659 78.6824 96.9504 78.573 96.3868 78.4635C95.8232 78.3404 95.2528 78.183 94.6755 77.9914C94.1119 77.7999 93.5895 77.5467 93.1084 77.232C92.6411 76.9173 92.2631 76.5068 91.9744 76.0005C91.6857 75.4806 91.5414 74.8375 91.5414 74.0712C91.5414 73.1818 91.7888 72.3745 92.2837 71.6493C92.7923 70.9104 93.5414 70.3221 94.5311 69.8842C95.5346 69.4463 96.7786 69.2274 98.2631 69.2274C99.2391 69.2274 100.201 69.33 101.15 69.5353C102.098 69.7405 102.95 70.0552 103.706 70.4794L102.243 73.9891C101.528 73.6334 100.834 73.3665 100.16 73.1887C99.5003 73.0108 98.8542 72.9218 98.2219 72.9218C97.7545 72.9218 97.3834 72.9629 97.1085 73.045C96.8336 73.1271 96.6342 73.2366 96.5105 73.3734C96.4006 73.5102 96.3456 73.6607 96.3456 73.8249C96.3456 74.0712 96.4899 74.2696 96.7786 74.4201C97.0672 74.557 97.4453 74.6733 97.9126 74.7691C98.3937 74.8649 98.9161 74.9675 99.4796 75.0769C100.057 75.1864 100.627 75.3369 101.191 75.5285C101.755 75.72 102.27 75.9732 102.737 76.2879C103.219 76.6026 103.603 77.0131 103.892 77.5194C104.181 78.0256 104.325 78.6551 104.325 79.4076C104.325 80.2834 104.071 81.0907 103.562 81.8296C103.067 82.5548 102.325 83.1431 101.335 83.5947C100.346 84.0325 99.1016 84.2515 97.6033 84.2515Z" fill="#04C45C"/>
<path d="M115.134 69.5558H120V83.9231H115.134V69.5558ZM110.639 83.9231H105.773V69.5558H110.639V83.9231ZM115.464 78.6277H110.309V74.6459H115.464V78.6277Z" fill="#04C45C"/>
<defs>
<linearGradient id="paint0_linear_76_1807" x1="48.9539" y1="22.537" x2="48.9539" y2="40.3945" gradientUnits="userSpaceOnUse">
<stop stop-color="#00E067"/>
<stop offset="1" stop-color="#004C23"/>
</linearGradient>
<linearGradient id="paint1_linear_76_1807" x1="52.9482" y1="11.1587" x2="52.9482" y2="31.4657" gradientUnits="userSpaceOnUse">
<stop stop-color="#00E067"/>
<stop offset="1" stop-color="#004C23"/>
</linearGradient>
<linearGradient id="paint2_linear_76_1807" x1="67.4951" y1="11.1587" x2="67.4951" y2="31.4657" gradientUnits="userSpaceOnUse">
<stop stop-color="#00E067"/>
<stop offset="1" stop-color="#004C23"/>
</linearGradient>
<linearGradient id="paint3_linear_76_1807" x1="60.3904" y1="0" x2="60.3904" y2="22.3162" gradientUnits="userSpaceOnUse">
<stop stop-color="#00E067"/>
<stop offset="1" stop-color="#004C23"/>
</linearGradient>
<linearGradient id="paint4_linear_76_1807" x1="71.4893" y1="22.537" x2="71.4893" y2="40.3945" gradientUnits="userSpaceOnUse">
<stop stop-color="#00E067"/>
<stop offset="1" stop-color="#004C23"/>
</linearGradient>
</defs>
</svg>
